<svg width="25" height="25" viewBox="0 0 25 25" fill="none" xmlns="http://www.w3.org/2000/svg">
<rect width="25" height="25" rx="3" fill="#1DC89F"/>
<rect width="25" height="25" rx="3" fill="#1DC89F"/>
<path d="M0 3C0 1.34315 1.34315 0 3 0H22C23.6569 0 25 1.34315 25 3V22C25 23.6569 23.6569 25 22 25H3C1.34315 25 0 23.6569 0 22V3Z" fill="#1DC89F"/>
<path d="M18.2176 7.60145C18.1604 7.52961 18.0992 7.46064 18.0344 7.39481C18.0996 7.23046 18.1491 7.06092 18.1824 6.88821C18.2805 6.25642 18.1953 5.61127 17.9358 5.02178C17.9358 5.02178 17.1467 4.78848 15.3361 5.94167C14.5675 5.74085 13.7735 5.63994 12.976 5.6417C12.1763 5.64038 11.3801 5.74128 10.6089 5.94167C8.79831 4.77515 8.00926 5.02178 8.00926 5.02178C7.75288 5.60503 7.66769 6.24296 7.76269 6.86821C7.79611 7.0481 7.84802 7.22447 7.91768 7.39481C7.85427 7.46147 7.79087 7.5348 7.73451 7.60145C7.20879 8.22539 6.92972 9.00337 6.94546 9.80117C6.94378 9.99039 6.95319 10.1795 6.97364 10.3678C7.19908 13.3207 9.27738 14.0073 11.257 14.2206C10.9769 14.4671 10.7869 14.7917 10.7146 15.1472C10.6491 15.3843 10.6183 15.6287 10.623 15.8737V16.747C9.83464 16.8136 9.02587 16.705 8.77506 16.0397C8.50584 15.403 8.05933 14.8471 7.483 14.4312C7.44087 14.4097 7.4008 14.3847 7.36323 14.3566C7.31262 14.2307 7.22296 14.1223 7.10602 14.0456C6.98908 13.9689 6.85034 13.9274 6.70804 13.9266H6.70451C6.51828 13.9266 6.33961 13.9964 6.20759 14.1207C6.07557 14.245 6.00094 14.4137 6.00001 14.5899C5.99789 15.1312 6.57066 15.4811 6.80526 15.5998C7.07935 15.8611 7.29983 16.1682 7.45552 16.5057C7.71196 17.1876 8.46226 18.2241 10.6019 18.0895L10.6033 18.1548L10.6061 18.3334C10.6061 18.5102 10.6803 18.6798 10.8124 18.8048C10.9445 18.9298 11.1237 19 11.3106 19H14.6316C14.8185 19 14.9977 18.9298 15.1298 18.8048C15.2619 18.6798 15.3361 18.5102 15.3361 18.3334C15.3361 18.3334 15.3418 16.227 15.3418 15.8737C15.3465 15.6287 15.3157 15.3843 15.2502 15.1472L15.2488 15.1432L15.2516 15.1472C15.2453 15.1238 15.2361 15.1052 15.2291 15.0825C15.1506 14.7522 14.9689 14.4519 14.7077 14.2206L14.7162 14.2346L14.7021 14.2213C16.6818 14.008 18.746 13.3081 18.9714 10.3684C18.9919 10.1802 19.0013 9.99105 18.9996 9.80184C19.0121 9.00562 18.7361 8.22934 18.2176 7.60212V7.60145Z" fill="#102B3E"/>
</svg>
