<svg width="24" height="25" viewBox="0 0 24 25" fill="none" xmlns="http://www.w3.org/2000/svg">
<rect x="0.33844" width="23.6615" height="24.6429" rx="3" fill="#1DC89F"/>
<path d="M13.1 9.82501V10.325H13.6H15C15.4004 10.325 15.725 10.6496 15.725 11.05C15.725 11.5471 15.3221 11.95 14.825 11.95H13.6H13.1V12.45V17.575C13.1 17.8512 12.8762 18.075 12.6 18.075H11.975C11.6989 18.075 11.475 17.8512 11.475 17.575V12.45V11.95H10.975H9.66254C9.21381 11.95 8.85004 11.5862 8.85004 11.1375C8.85004 10.6888 9.21381 10.325 9.66254 10.325H10.975H11.475V9.82501V8.72689C11.475 8.25491 11.5499 7.71429 11.6993 7.21224C11.8502 6.70509 12.0662 6.27387 12.3238 5.98964L12.3242 5.98919C12.8797 5.37473 13.5574 5.07501 14.391 5.07501H14.9125C15.3613 5.07501 15.725 5.43878 15.725 5.88751C15.725 6.33624 15.3613 6.70001 14.9125 6.70001H14.3875C13.676 6.70001 13.1 7.27526 13.1 7.98664V9.82501Z" fill="#102B3E" stroke="#102B3E" stroke-linecap="round"/>
</svg>
