<svg width="24" height="24" viewBox="0 0 24 24" fill="none" xmlns="http://www.w3.org/2000/svg">
<path d="M7.61333 2.28659C6.87749 1.70218 5.95318 1.40732 5.01484 1.45768C4.07651 1.50803 3.18906 1.90012 2.51999 2.55993C1.85645 3.22787 1.46345 4.11767 1.41668 5.05802C1.36991 5.99836 1.67267 6.92277 2.26666 7.65326C3.33635 5.27328 5.23736 3.36516 7.61333 2.28659Z" fill="#1DC89F"/>
<path d="M12.5733 6.3334C12.5733 6.17427 12.5101 6.02166 12.3976 5.90913C12.2851 5.79661 12.1325 5.7334 11.9733 5.7334C11.8142 5.7334 11.6616 5.79661 11.5491 5.90913C11.4365 6.02166 11.3733 6.17427 11.3733 6.3334V12.3334L16.08 14.6667C16.2232 14.7366 16.3883 14.7467 16.539 14.6948C16.6896 14.6429 16.8135 14.5333 16.8833 14.3901C16.9532 14.2468 16.9633 14.0818 16.9114 13.9311C16.8595 13.7804 16.7499 13.6566 16.6067 13.5867L12.5667 11.5867L12.5733 6.3334Z" fill="#1DC89F"/>
<path d="M18.6667 18.5201C19.8878 17.283 20.7361 15.7273 21.1146 14.0308C21.493 12.3342 21.3863 10.5654 20.8067 8.92672C20.3422 9.00886 19.8679 9.0201 19.4 8.96005C20.1025 10.6702 20.1911 12.5709 19.6505 14.339C19.11 16.107 17.9737 17.6333 16.4349 18.6582C14.8962 19.6831 13.0499 20.1434 11.2101 19.9609C9.37033 19.7783 7.65055 18.9642 6.34322 17.6568C5.03589 16.3495 4.22173 14.6297 4.03917 12.7899C3.85661 10.9501 4.31693 9.10386 5.34185 7.56511C6.36677 6.02636 7.89302 4.8901 9.66108 4.34955C11.4291 3.80899 13.3298 3.89751 15.04 4.60005C15.0147 4.40103 15.0013 4.20067 15 4.00005C15.0026 3.72963 15.0272 3.45986 15.0733 3.19339C13.0817 2.50862 10.9169 2.51759 8.93101 3.21886C6.94508 3.92013 5.25472 5.27246 4.13467 7.05604C3.01462 8.83963 2.53073 10.9496 2.76167 13.043C2.9926 15.1364 3.92477 17.0902 5.40666 18.5867L3.70666 20.2867C3.58201 20.414 3.51304 20.5856 3.51491 20.7638C3.51679 20.942 3.58936 21.1121 3.71666 21.2367C3.84397 21.3614 4.01557 21.4303 4.19373 21.4285C4.37189 21.4266 4.54201 21.354 4.66666 21.2267L6.44 19.4534C8.06168 20.6806 10.042 21.3402 12.0757 21.3306C14.1093 21.3209 16.0833 20.6425 17.6933 19.4001L19.52 21.2267C19.6475 21.3359 19.8116 21.393 19.9794 21.3865C20.1472 21.38 20.3063 21.3105 20.425 21.1918C20.5438 21.073 20.6133 20.9139 20.6198 20.7461C20.6263 20.5783 20.5692 20.4143 20.46 20.2867L18.6667 18.5201Z" fill="#1DC89F"/>
<path d="M20 7.33329C21.841 7.33329 23.3333 5.84091 23.3333 3.99996C23.3333 2.15901 21.841 0.666626 20 0.666626C18.1591 0.666626 16.6667 2.15901 16.6667 3.99996C16.6667 5.84091 18.1591 7.33329 20 7.33329Z" fill="#1DC89F"/>
</svg>
