<svg width="25" height="25" viewBox="0 0 25 25" fill="none" xmlns="http://www.w3.org/2000/svg">
<rect width="25" height="25" rx="3" fill="#1DC89F"/>
<path d="M7.04536 7.14269C6.80935 6.84933 6.42668 6.84933 6.19074 7.14269L2.55905 11.6583C2.44568 11.7993 2.38202 11.9903 2.38202 12.1897C2.38202 12.3891 2.44568 12.5801 2.55905 12.7211L6.14272 17.177C6.26069 17.3237 6.4154 17.3971 6.57003 17.3971C6.72466 17.3971 6.87937 17.3237 6.99734 17.177C7.23335 16.8835 7.23335 16.4078 6.99734 16.1143L3.84098 12.1898L7.04536 8.20552C7.28146 7.91196 7.28146 7.43625 7.04536 7.14269Z" fill="#102B3E"/>
<path fill-rule="evenodd" clip-rule="evenodd" d="M5.90373 6.86733C6.29183 6.38477 6.94416 6.38485 7.33229 6.86727C7.69507 7.31835 7.69511 8.02985 7.33233 8.48093L4.34944 12.1898L7.2843 15.839C7.64702 16.29 7.64697 17.0014 7.28435 17.4524C7.09658 17.6859 6.83859 17.8143 6.57 17.8143C6.30142 17.8143 6.04347 17.6859 5.8557 17.4525L2.27204 12.9965C2.09353 12.7744 2 12.4837 2 12.1897C2 11.8959 2.0934 11.6051 2.27204 11.3829L5.90373 6.86733ZM6.75839 7.41815C6.86776 7.55421 6.86775 7.79413 6.75835 7.93016L3.33249 12.1899L6.71033 16.3897C6.81962 16.5256 6.81969 16.7656 6.71032 16.9017C6.66216 16.9616 6.61068 16.9798 6.57 16.9798C6.52933 16.9798 6.47785 16.9616 6.42969 16.9017L2.84611 12.4459" fill="#102B3E"/>
<path d="M7.33229 6.86727C6.94416 6.38485 6.29183 6.38477 5.90373 6.86733L2.27204 11.3829C2.0934 11.6051 2 11.8959 2 12.1897C2 12.4837 2.09353 12.7744 2.27204 12.9965L5.8557 17.4525C6.04347 17.6859 6.30142 17.8143 6.57 17.8143C6.83859 17.8143 7.09658 17.6859 7.28435 17.4524C7.64697 17.0014 7.64702 16.29 7.2843 15.8389M7.33229 6.86727L7.04532 7.14273M7.33229 6.86727C7.69506 7.31835 7.69511 8.02985 7.33233 8.48093L4.34944 12.1898L7.2843 15.8389M7.2843 15.8389L7.01626 16.0962M6.75839 7.41815C6.86776 7.55421 6.86775 7.79413 6.75835 7.93016L3.33249 12.1899L6.71033 16.3897C6.81962 16.5256 6.81969 16.7656 6.71032 16.9017C6.66216 16.9616 6.61068 16.9798 6.57 16.9798C6.52933 16.9798 6.47785 16.9616 6.42969 16.9017L2.84611 12.4459L6.75839 7.41815Z" stroke="#102B3E"/>
<path d="M18.3237 17.4553C18.4417 17.602 18.5964 17.6753 18.751 17.6753C18.9057 17.6753 19.0604 17.602 19.1783 17.4553L22.7621 12.9994C22.8754 12.8584 22.939 12.6674 22.939 12.468C22.939 12.2686 22.8754 12.0776 22.7621 11.9366L19.1303 7.42095C18.8943 7.12759 18.5116 7.12759 18.2757 7.42095C18.0397 7.71451 18.0397 8.19022 18.2757 8.48368L21.4802 12.468L18.3238 16.3925C18.0877 16.6861 18.0877 17.1618 18.3237 17.4553Z" fill="#102B3E"/>
<path fill-rule="evenodd" clip-rule="evenodd" d="M17.9887 7.14546C18.3768 6.66291 19.0291 6.66299 19.4172 7.14541L23.0492 11.6613C23.2276 11.8834 23.321 12.174 23.321 12.4679C23.321 12.7617 23.2276 13.0525 23.0491 13.2746L19.4653 17.7306C19.2775 17.9641 19.0196 18.0925 18.751 18.0925C18.4824 18.0925 18.2245 17.9641 18.0367 17.7306C17.674 17.2796 17.6741 16.5681 18.0367 16.117L20.9717 12.4679L17.9887 8.75897C17.626 8.30797 17.6261 7.5965 17.9887 7.14546ZM18.5627 7.69624C18.4533 7.83233 18.4534 8.07229 18.5627 8.20819L21.9886 12.4679L18.6108 16.6677C18.5013 16.8039 18.5014 17.044 18.6107 17.1798C18.6588 17.2397 18.7103 17.258 18.751 17.258C18.7917 17.258 18.8432 17.2397 18.8913 17.1798L22.475 12.724C22.5231 12.6642 22.557 12.5728 22.557 12.4679C22.557 12.3631 22.5231 12.2717 22.4749 12.2116L18.8433 7.69629C18.7594 7.59206 18.6464 7.59215 18.5627 7.69624Z" fill="#102B3E"/>
<path d="M18.8913 17.1798C18.8432 17.2397 18.7917 17.258 18.751 17.258C18.7103 17.258 18.6588 17.2397 18.6107 17.1798C18.5014 17.044 18.5013 16.8039 18.6108 16.6677L21.9886 12.4679L18.5627 8.20819C18.4534 8.07229 18.4533 7.83233 18.5627 7.69624C18.6464 7.59215 18.7594 7.59206 18.8433 7.69629L22.4749 12.2116C22.5231 12.2717 22.557 12.3631 22.557 12.4679C22.557 12.5728 22.5231 12.6642 22.475 12.724L18.8913 17.1798ZM18.8913 17.1798L19.1783 17.4552M19.4172 7.14541C19.0291 6.66299 18.3768 6.66291 17.9887 7.14546C17.6261 7.5965 17.626 8.30797 17.9887 8.75897L20.9717 12.4679L18.0367 16.117C17.6741 16.5681 17.674 17.2796 18.0367 17.7306C18.2245 17.9641 18.4824 18.0925 18.751 18.0925C19.0196 18.0925 19.2775 17.9641 19.4653 17.7306L23.0491 13.2746C23.2276 13.0525 23.321 12.7617 23.321 12.4679C23.321 12.174 23.2276 11.8834 23.0492 11.6613L19.4172 7.14541Z" stroke="#102B3E"/>
<path d="M9.70897 19.5701C9.95272 19.5701 10.1825 19.3853 10.2741 19.0851L14.5684 5.0184C14.6869 4.63036 14.5299 4.19643 14.2179 4.04915C13.9059 3.90177 13.5568 4.09704 13.4385 4.48498L9.14411 18.5518C9.02566 18.9398 9.18263 19.3737 9.49463 19.521C9.56522 19.5543 9.63766 19.5701 9.70897 19.5701Z" fill="#102B3E" stroke="#102B3E"/>
</svg>
