<svg width="1762" height="1474" viewBox="0 0 1762 1474" fill="none" xmlns="http://www.w3.org/2000/svg">
<path d="M777.093 157.025C749.469 157.025 727.077 179.418 727.077 207.04L727.075 663.541H1427.32L1427.32 207.04C1427.32 179.417 1404.93 157.025 1377.31 157.025H777.093V157.025Z" fill="#CFD7E6"/>
<path d="M777.091 663.542V232.053C777.091 218.242 788.288 207.043 802.1 207.043H1352.3C1366.11 207.043 1377.31 218.24 1377.31 232.053V663.542H777.091Z" fill="#8DB5FF"/>
<path d="M1427.32 207.04C1427.32 179.417 1404.93 157.025 1377.31 157.025H1342.58C1370.21 157.025 1392.6 179.418 1392.6 207.04L1392.6 663.542H1427.32L1427.32 207.04Z" fill="#B4C2DB"/>
<path d="M1352.3 207.043H1317.57C1331.39 207.043 1342.58 218.24 1342.58 232.053V663.542H1377.31V232.053C1377.31 218.24 1366.11 207.043 1352.3 207.043V207.043Z" fill="#7784FF"/>
<path d="M702.069 657.199V682.213C702.069 709.836 724.462 732.228 752.085 732.228H1402.31C1429.93 732.228 1452.33 709.835 1452.33 682.213V657.199C1452.33 643.386 1441.13 632.189 1427.32 632.189H727.077C713.266 632.189 702.069 643.386 702.069 657.199V657.199Z" fill="#F3F5F9"/>
<path d="M1427.32 632.189H1392.48C1406.29 632.189 1417.48 643.386 1417.48 657.199V682.213C1417.48 709.836 1395.09 732.228 1367.47 732.228H1402.31C1429.94 732.228 1452.33 709.835 1452.33 682.213V657.199C1452.33 643.386 1441.13 632.189 1427.32 632.189Z" fill="#CFD7E6"/>
<path d="M1227.25 407.111V269.563C1227.25 262.657 1221.65 257.06 1214.75 257.06H1014.68C1007.77 257.06 1002.17 262.659 1002.17 269.563V394.607C1002.17 401.513 1007.77 407.111 1014.68 407.111H1227.25Z" fill="#F3F5F9"/>
<path d="M902.136 432.121C929.76 432.121 952.153 409.727 952.153 382.104C952.153 354.48 929.76 332.086 902.136 332.086C874.513 332.086 852.119 354.48 852.119 382.104C852.119 409.727 874.513 432.121 902.136 432.121Z" fill="#FFD9B3"/>
<path d="M902.136 332.085C896.031 332.085 890.185 333.183 884.776 335.185C903.842 342.242 917.433 360.583 917.433 382.103C917.433 403.622 903.842 421.963 884.776 429.02C890.185 431.022 896.031 432.12 902.136 432.12C929.76 432.12 952.153 409.726 952.153 382.103C952.153 354.479 929.762 332.085 902.136 332.085V332.085Z" fill="#FFBB99"/>
<path d="M857.815 446.605C839.197 460.258 827.11 482.29 827.11 507.147V569.669C827.11 576.576 832.707 582.173 839.614 582.173H964.657C971.564 582.173 977.161 576.576 977.161 569.669V508.382C977.161 483.321 965.063 460.753 946.308 446.785L857.815 446.605Z" fill="#68D9C0"/>
<path d="M946.282 446.793L911.446 446.718C930.276 460.674 942.442 483.265 942.442 508.383V569.671C942.442 576.577 936.844 582.174 929.938 582.174H964.659C971.565 582.174 977.162 576.575 977.162 569.671V508.383C977.162 483.315 965.045 460.76 946.282 446.793V446.793Z" fill="#4FC6B9"/>
<path d="M1214.75 257.059H1180.03C1186.93 257.059 1192.53 262.658 1192.53 269.563V407.11H1227.25V269.564C1227.25 262.658 1221.65 257.059 1214.75 257.059V257.059Z" fill="#CFD7E6"/>
<path d="M917.76 469.64L946.302 446.806C934.266 437.841 919.501 432.4 903.419 432.131C886.329 431.846 870.519 437.277 857.774 446.637L857.772 446.647L886.513 469.64C895.648 476.946 908.626 476.946 917.76 469.64V469.64Z" fill="#F3F5F9"/>
<path d="M884.694 434.162C884.69 434.163 884.685 434.168 884.679 434.169C901.87 438.296 916.699 448.459 927.032 462.222L946.301 446.806C934.265 437.84 919.499 432.4 903.418 432.131C896.963 432.024 890.689 432.734 884.694 434.162V434.162Z" fill="#CFD7E6"/>
<path d="M1164.73 647.265H1289.77V692.145H1164.73V647.265Z" fill="#FFD9B3"/>
<path d="M1255.05 647.263H1289.77V692.146H1255.05V647.263Z" fill="#FFBB99"/>
<path d="M1342.95 604.68C1332.41 630.341 1313.57 651.722 1289.78 665.486L1164.54 665.371C1140.83 651.601 1122.07 630.264 1111.55 604.669L1227.25 483.35L1342.95 604.68Z" fill="#FFD9B3"/>
<path d="M1227.25 483.348L1209.71 501.746L1307.86 604.681C1297.32 630.324 1278.5 651.689 1254.74 665.453L1289.78 665.485C1313.57 651.721 1332.41 630.342 1342.95 604.679L1227.25 483.348Z" fill="#FFBB99"/>
<path d="M1402.31 557.166C1416.12 557.166 1427.32 545.969 1427.32 532.157V482.14C1427.32 468.328 1416.12 457.13 1402.31 457.13H1052.19C1038.38 457.13 1027.18 468.327 1027.18 482.14V532.157C1027.18 545.968 1038.38 557.166 1052.19 557.166H1402.31Z" fill="#FFBB99"/>
<path d="M1402.31 457.13H1368.4C1382.21 457.13 1393.41 468.327 1393.41 482.14V532.157C1393.41 545.968 1382.21 557.166 1368.4 557.166H1402.31C1416.12 557.166 1427.32 545.969 1427.32 532.157V482.14C1427.32 468.327 1416.12 457.13 1402.31 457.13V457.13Z" fill="#FFA27D"/>
<path d="M1139.72 742.745V732.231L1149.86 691.682C1151.25 686.114 1156.25 682.21 1161.99 682.21H1292.52C1298.25 682.21 1303.25 686.116 1304.65 691.682L1314.78 732.228V742.745H1139.72Z" fill="#CFD7E6"/>
<path d="M1304.64 691.682C1303.25 686.114 1298.25 682.21 1292.51 682.21H1257.79C1263.53 682.21 1268.53 686.116 1269.92 691.682L1280.06 732.228V742.745H1314.78V732.228L1304.64 691.682Z" fill="#B4C2DB"/>
<path d="M1339.8 732.23C1395.04 732.23 1439.83 777.015 1439.83 832.26V882.28C1439.83 896.092 1428.63 907.29 1414.82 907.29H1039.69C1025.87 907.29 1014.68 896.093 1014.68 882.28V832.26C1014.68 777.015 1059.46 732.23 1114.71 732.23H1339.8Z" fill="#68D9C0"/>
<path d="M1377.31 557.167V407.114C1377.31 351.866 1332.52 307.078 1277.27 307.078H1177.23C1121.99 307.078 1077.2 351.866 1077.2 407.114V557.167C1077.2 584.791 1099.59 607.184 1127.22 607.184H1327.29C1354.91 607.184 1377.31 584.791 1377.31 557.167V557.167Z" fill="#595353"/>
<path d="M1339.8 732.23H1305.07C1360.32 732.23 1405.1 777.015 1405.1 832.26V882.28C1405.1 896.091 1393.91 907.288 1380.1 907.288H1414.82C1428.63 907.288 1439.82 896.091 1439.82 882.28V832.26C1439.82 777.015 1395.04 732.23 1339.8 732.23V732.23Z" fill="#4FC6B9"/>
<path d="M1277.27 307.078H1242.55C1297.8 307.078 1342.59 351.866 1342.59 407.114V557.167C1342.59 584.791 1320.19 607.184 1292.57 607.184H1327.29C1354.91 607.184 1377.31 584.791 1377.31 557.167V407.114C1377.31 351.866 1332.52 307.078 1277.27 307.078Z" fill="#403939"/>
<path d="M1463.65 682.211V657.199C1463.65 641.121 1453.15 627.456 1438.65 622.685L1438.64 207.041C1438.64 173.22 1411.13 145.703 1377.31 145.703H777.093C743.27 145.703 715.754 173.22 715.754 207.041L715.752 622.684C701.25 627.456 690.747 641.119 690.747 657.199V682.211C690.747 716.034 718.263 743.55 752.085 743.55H804.467C810.722 743.55 815.789 738.483 815.789 732.229C815.789 725.974 810.722 720.907 804.467 720.907H752.085C730.748 720.907 713.391 703.548 713.391 682.211V657.199C713.391 649.651 719.531 643.512 727.077 643.512H993.332L998.955 666.012C1003.01 682.214 1017.5 693.532 1034.2 693.532H1120.19C1127.06 693.532 1133.54 691.595 1139.09 688.217C1139.02 688.458 1138.93 688.691 1138.87 688.935L1130.88 720.908H849.755C843.501 720.908 838.433 725.976 838.433 732.23C838.433 738.484 843.501 743.552 849.755 743.552H1047.5C1020.7 763.904 1003.36 796.09 1003.36 832.261V882.281C1003.36 902.315 1019.65 918.613 1039.69 918.613H1313.6C1319.85 918.613 1324.92 913.545 1324.92 907.291C1324.92 901.036 1319.85 895.969 1313.6 895.969H1039.69C1032.14 895.969 1026 889.829 1026 882.281V832.261C1026 783.349 1065.79 743.553 1114.71 743.553H1339.79C1388.71 743.553 1428.5 783.348 1428.5 832.261V882.281C1428.5 889.829 1422.36 895.969 1414.82 895.969H1358.89C1352.63 895.969 1347.57 901.036 1347.57 907.291C1347.57 913.545 1352.63 918.613 1358.89 918.613H1414.82C1434.85 918.613 1451.15 902.314 1451.15 882.281V832.261C1451.15 795.986 1433.71 763.715 1406.77 743.372C1438.52 741.076 1463.65 714.533 1463.65 682.211V682.211ZM1347.82 620.868C1349.09 618.463 1350.31 616.025 1351.44 613.543C1356.71 611.278 1361.6 608.293 1365.98 604.717V620.869H1347.82V620.868ZM1296 647.751C1294.21 646.57 1292.08 645.879 1289.77 645.879C1283.52 645.879 1278.45 650.946 1278.45 657.201V670.887H1176.05V657.199C1176.05 650.946 1170.98 645.877 1164.73 645.877C1162.43 645.877 1160.29 646.569 1158.5 647.749C1147.88 639.655 1138.73 629.713 1131.52 618.505H1322.99C1315.78 629.716 1306.63 639.655 1296 647.751V647.751ZM788.413 620.868V232.053C788.413 224.505 794.552 218.366 802.099 218.366H1352.3C1359.84 218.366 1365.98 224.505 1365.98 232.053V339.905C1345.63 313.104 1313.44 295.756 1277.27 295.756H1238.57V269.565C1238.57 256.427 1227.88 245.739 1214.75 245.739H1014.68C1001.54 245.739 990.85 256.427 990.85 269.565V394.607C990.85 407.745 1001.54 418.434 1014.68 418.434L1065.88 418.432V445.809H1052.19C1032.16 445.809 1015.86 462.108 1015.86 482.14V532.157C1015.86 552.191 1032.16 568.487 1052.19 568.487H1066.94C1070.75 588.782 1084.57 605.586 1103.07 613.542C1104.2 616.024 1105.42 618.46 1106.69 620.866H788.413V620.868ZM1327.29 595.862H1127.22C1105.88 595.862 1088.52 578.503 1088.52 557.165V407.114C1088.52 358.197 1128.32 318.4 1177.24 318.4H1277.27C1326.19 318.4 1365.99 358.195 1365.99 407.114V557.136C1365.99 557.147 1365.98 557.156 1365.98 557.165C1365.98 557.171 1365.99 557.179 1365.99 557.185C1365.97 578.513 1348.62 595.862 1327.29 595.862V595.862ZM1052.19 545.843C1044.64 545.843 1038.5 539.704 1038.5 532.157V482.14C1038.5 474.592 1044.64 468.453 1052.19 468.453H1065.88V545.844H1052.19V545.843ZM1215.93 295.756H1177.23C1119.65 295.756 1072.14 339.685 1066.45 395.789L1014.68 395.79C1014.02 395.79 1013.49 395.259 1013.49 394.607V269.565C1013.49 268.913 1014.03 268.383 1014.68 268.383H1214.75C1215.4 268.383 1215.93 268.914 1215.93 269.565V295.756ZM1388.63 468.453H1402.31C1409.86 468.453 1416 474.592 1416 482.14V532.157C1416 539.704 1409.86 545.843 1402.31 545.843H1388.63V468.453ZM1153.41 672.499C1153.29 672.544 1153.18 672.589 1153.06 672.636C1153.17 672.398 1153.3 672.171 1153.41 671.93V672.499ZM1388.63 568.487H1402.31C1407.15 568.487 1411.77 567.527 1416 565.801V620.866H1388.63V568.487H1388.63ZM777.093 168.347H1377.31C1398.64 168.347 1416 185.704 1416 207.041L1416 448.494C1411.77 446.767 1407.15 445.809 1402.31 445.809H1388.63V232.053C1388.63 212.019 1372.33 195.722 1352.3 195.722H802.1C782.067 195.722 765.771 212.021 765.771 232.053V620.866H738.396L738.397 207.039C738.397 185.704 755.756 168.347 777.093 168.347V168.347ZM1120.19 670.887H1034.2C1027.91 670.887 1022.45 666.623 1020.92 660.52L1016.67 643.51H1121.76C1125.66 648.261 1129.87 652.744 1134.37 656.936L1133.47 660.517C1131.95 666.623 1126.49 670.887 1120.19 670.887V670.887ZM1160.84 694.427C1160.97 693.899 1161.44 693.53 1161.99 693.53H1292.51C1293.06 693.53 1293.53 693.899 1293.66 694.427L1300.28 720.907H1154.22L1160.84 694.427ZM1441.01 682.211C1441.01 703.548 1423.65 720.907 1402.31 720.907H1323.62L1315.63 688.934C1313.7 681.227 1308.16 675.225 1301.09 672.497V671.806C1313.07 664.069 1323.75 654.483 1332.75 643.51H1427.32C1434.86 643.51 1441 649.65 1441 657.198V682.211H1441.01Z" fill="black"/>
<path d="M1239.76 345.773H1214.75C1208.49 345.773 1203.43 350.841 1203.43 357.095C1203.43 363.35 1208.49 368.417 1214.75 368.417H1239.76C1246.01 368.417 1251.08 363.35 1251.08 357.095C1251.08 350.843 1246.01 345.773 1239.76 345.773Z" fill="black"/>
<path d="M940.434 429.967C954.467 418.716 963.477 401.448 963.477 382.104C963.477 348.281 935.958 320.763 902.136 320.763C868.314 320.763 840.797 348.28 840.797 382.104C840.797 401.36 849.723 418.563 863.648 429.817C855.623 433.827 848.182 439.101 841.594 445.58C824.954 461.946 815.788 483.811 815.788 507.147V569.67C815.788 582.808 826.476 593.496 839.614 593.496H964.657C977.795 593.496 988.483 582.808 988.483 569.67V508.382C988.484 474.262 968.843 444.385 940.434 429.967V429.967ZM926.265 448.337L910.686 460.8C905.652 464.827 898.619 464.826 893.587 460.8L877.857 448.214C885.457 445.084 893.666 443.443 902.133 443.443C902.497 443.443 902.864 443.446 903.231 443.452C911.363 443.588 919.13 445.325 926.265 448.337ZM902.136 343.407C923.474 343.407 940.833 360.766 940.833 382.104C940.833 403.44 923.474 420.799 902.136 420.799C880.8 420.799 863.441 403.44 863.441 382.104C863.441 360.766 880.8 343.407 902.136 343.407V343.407ZM965.841 569.67C965.841 570.322 965.309 570.852 964.659 570.852H839.615C838.963 570.852 838.433 570.32 838.433 569.67V507.147C838.433 489.93 845.195 473.799 857.472 461.724C857.626 461.573 857.788 461.432 857.943 461.283L879.441 478.482C886.124 483.827 894.128 486.499 902.138 486.499C910.143 486.499 918.151 483.827 924.833 478.482L946.05 461.508C958.219 473.373 965.841 490.045 965.841 508.384V569.67Z" fill="black"/>
<path d="M673.065 972.387C671.154 952.141 654.981 936.172 634.705 934.605C547.736 927.883 460.768 927.883 373.798 934.605C353.523 936.172 337.351 952.14 335.438 972.387C328.394 1046.99 328.391 1121.59 335.433 1196.19C337.345 1216.45 353.51 1232.46 373.798 1234.03C394.229 1235.61 414.66 1236.81 435.091 1237.65C446.631 1238.12 457.176 1244.3 463.216 1254.15L488.373 1295.15C495.642 1307 512.859 1307 520.129 1295.15L545.286 1254.15C551.326 1244.3 561.872 1238.12 573.411 1237.65C593.843 1236.81 614.275 1235.61 634.705 1234.03C654.993 1232.46 671.158 1216.45 673.07 1196.19C680.111 1121.59 680.109 1046.99 673.065 972.387V972.387Z" fill="#DD636E"/>
<path d="M516.031 1299.86C507.684 1306.69 494.499 1305.12 488.371 1295.15L463.216 1254.14C457.172 1244.29 446.63 1238.12 435.084 1237.64C414.662 1236.81 394.227 1235.6 373.793 1234.02C353.511 1232.45 337.339 1216.44 335.426 1196.19C328.39 1121.58 328.39 1046.98 335.438 972.386C337.351 952.141 353.523 936.169 373.793 934.599C421.202 930.939 468.623 929.274 516.031 929.606C476.473 929.877 436.925 931.542 397.356 934.599C377.074 936.169 360.902 952.141 358.989 972.386C351.941 1046.98 351.941 1121.58 358.989 1196.19C360.902 1216.44 377.062 1232.45 397.356 1234.02C417.778 1235.6 438.213 1236.81 458.647 1237.64C470.181 1238.12 480.723 1244.29 486.767 1254.14L511.922 1295.15C513.068 1297.01 514.462 1298.58 516.031 1299.86Z" fill="#C63D4F"/>
<path d="M528.305 1091.51C528.305 1124.54 489.149 1156.84 455.151 1174.22C445.343 1169.22 435.124 1162.97 425.536 1155.82C401.827 1138.18 381.997 1115.02 381.997 1091.51C381.997 1065.32 399.87 1044.05 422.028 1043.67C422.227 1043.67 422.432 1043.67 422.637 1043.67C440.594 1043.67 455.15 1060.81 455.15 1081.94C455.15 1060.81 469.706 1043.67 487.656 1043.67C500.781 1043.67 512.439 1050.98 519.866 1062.33C525.172 1070.41 528.305 1080.53 528.305 1091.51V1091.51Z" fill="#DFEAEF"/>
<path d="M590.686 684.93C588.774 664.684 572.602 648.715 552.326 647.148C465.356 640.426 378.388 640.426 291.419 647.148C271.144 648.715 254.971 664.683 253.059 684.93C246.015 759.53 246.012 834.13 253.053 908.73C254.966 928.989 271.131 945.004 291.419 946.572C311.849 948.152 332.281 949.354 352.711 950.189C364.252 950.661 374.796 956.845 380.836 966.688L405.993 1007.69C413.262 1019.54 430.479 1019.54 437.75 1007.69L462.907 966.688C468.947 956.845 479.492 950.661 491.032 950.189C511.463 949.354 531.895 948.15 552.326 946.572C572.614 945.004 588.778 928.989 590.691 908.73C597.731 834.13 597.73 759.529 590.686 684.93V684.93Z" fill="#F4DD45"/>
<path d="M433.653 1012.4C425.307 1019.24 412.121 1017.67 405.994 1007.69L380.838 966.68C374.794 956.834 364.252 950.661 352.706 950.188C332.284 949.35 311.849 948.146 291.415 946.564C271.134 944.994 254.961 928.986 253.048 908.729C246.012 834.121 246.012 759.525 253.06 684.929C254.972 664.684 271.146 648.713 291.414 647.142C338.823 643.482 386.244 641.818 433.652 642.149C394.094 642.421 354.546 644.086 314.977 647.142C294.695 648.713 278.523 664.684 276.611 684.929C269.563 759.525 269.563 834.121 276.611 908.729C278.524 928.986 294.685 944.994 314.978 946.564C335.4 948.146 355.835 949.35 376.269 950.188C387.803 950.659 398.345 956.834 404.389 966.68L429.545 1007.69C430.69 1009.56 432.083 1011.13 433.653 1012.4Z" fill="#EAB14D"/>
<path d="M350.053 803.698C375.419 803.698 395.983 783.135 395.983 757.768C395.983 732.402 375.419 711.838 350.053 711.838C324.686 711.838 304.123 732.402 304.123 757.768C304.123 783.135 324.686 803.698 350.053 803.698Z" fill="white"/>
<path d="M350.053 803.699C385.176 803.699 413.648 832.171 413.648 867.294H286.457C286.457 832.172 314.929 803.699 350.053 803.699" fill="white"/>
<path d="M899.896 837.839C897.985 817.594 881.813 801.625 861.537 800.057C774.567 793.336 687.599 793.336 600.629 800.057C580.355 801.625 564.182 817.593 562.27 837.839C555.225 912.44 555.223 987.039 562.264 1061.64C564.177 1081.9 580.341 1097.91 600.629 1099.48C621.06 1101.06 641.492 1102.26 661.922 1103.1C673.463 1103.57 684.007 1109.75 690.047 1119.6L715.204 1160.6C722.473 1172.45 739.69 1172.45 746.961 1160.6L772.118 1119.6C778.158 1109.75 788.703 1103.57 800.242 1103.1C820.674 1102.26 841.106 1101.06 861.537 1099.48C881.825 1097.91 897.989 1081.9 899.902 1061.64C906.942 987.039 906.941 912.44 899.896 837.839V837.839Z" fill="#6BBEF6"/>
<path d="M742.863 1165.31C734.517 1172.15 721.33 1170.58 715.203 1160.6L690.048 1119.59C684.004 1109.74 673.462 1103.57 661.916 1103.1C641.494 1102.26 621.059 1101.06 600.625 1099.47C580.343 1097.9 564.171 1081.9 562.258 1061.64C555.222 987.031 555.222 912.434 562.27 837.839C564.183 817.594 580.355 801.622 600.625 800.052C648.034 796.392 695.455 794.727 742.863 795.059C703.305 795.331 663.757 796.995 624.188 800.052C603.906 801.622 587.734 817.594 585.821 837.839C578.773 912.434 578.773 987.031 585.821 1061.64C587.734 1081.9 603.894 1097.9 624.188 1099.47C644.61 1101.06 665.045 1102.26 685.479 1103.1C697.013 1103.57 707.555 1109.74 713.599 1119.59L738.754 1160.6C739.9 1162.47 741.294 1164.04 742.863 1165.31V1165.31Z" fill="#528ECB"/>
<path d="M742.048 1014.86L727 974.923C735.349 963.195 740.277 948.862 740.277 933.368C740.277 893.742 708.154 861.619 668.528 861.619C628.902 861.619 596.778 893.742 596.778 933.368C596.778 972.993 628.901 1005.12 668.528 1005.12C679.272 1005.12 689.456 1002.74 698.606 998.506L742.048 1014.86Z" fill="white"/>
<path d="M419.568 1163.82C429.162 1170.98 439.898 1177.66 450.615 1183.12C452.04 1183.85 453.596 1184.21 455.153 1184.21C456.712 1184.21 458.272 1183.85 459.698 1183.12C495.956 1164.58 538.294 1129.47 538.294 1091.51C538.294 1078.88 534.812 1066.9 528.231 1056.87C518.592 1042.13 503.805 1033.67 487.662 1033.67C474.633 1033.67 462.955 1040.37 455.153 1050.89C447.351 1040.37 435.672 1033.67 422.644 1033.67C394.724 1033.67 372.011 1059.62 372.011 1091.51C372.011 1105.3 378.192 1133.03 419.568 1163.82V1163.82ZM422.642 1053.65C435.06 1053.65 445.162 1066.34 445.162 1081.94C445.162 1087.46 449.633 1091.93 455.151 1091.93C460.669 1091.93 465.14 1087.46 465.14 1081.94C465.14 1066.34 475.242 1053.65 487.66 1053.65C496.937 1053.65 505.629 1058.81 511.516 1067.81C515.965 1074.59 518.314 1082.79 518.314 1091.52C518.314 1110.38 498.737 1139.42 455.159 1162.94C446.96 1158.47 438.868 1153.3 431.516 1147.81C431.511 1147.81 431.507 1147.8 431.502 1147.8C406.39 1129.12 391.986 1108.6 391.986 1091.52C391.988 1070.64 405.74 1053.65 422.642 1053.65Z" fill="black"/>
<path d="M384.092 802.089C397.382 791.856 405.97 775.801 405.97 757.769C405.97 726.935 380.885 701.85 350.051 701.85C319.219 701.85 294.134 726.935 294.134 757.769C294.134 775.801 302.721 791.856 316.012 802.089C292.533 814.396 276.468 838.997 276.468 867.295C276.468 872.811 280.939 877.283 286.457 877.283H413.648C419.166 877.283 423.637 872.811 423.637 867.295C423.636 838.998 407.571 814.396 384.092 802.089ZM314.111 757.769C314.111 737.951 330.233 721.828 350.051 721.828C369.869 721.828 385.992 737.951 385.992 757.769C385.992 777.587 369.869 793.71 350.051 793.71C330.233 793.71 314.111 777.587 314.111 757.769ZM297.378 857.306C302.072 832.504 323.907 813.688 350.053 813.688C376.198 813.688 398.032 832.504 402.727 857.306H297.378Z" fill="black"/>
<path d="M525.333 856.984C525.29 856.984 525.248 856.984 525.205 856.984C506.138 857.224 485.693 857.35 471.906 857.287C479.603 847.173 492.35 830.196 512.046 802.053C520.543 789.911 526.061 778.538 528.447 768.25C528.524 767.923 528.583 767.592 528.625 767.259L529.316 761.854C529.37 761.435 529.398 761.011 529.398 760.587C529.398 735.365 508.878 714.845 483.655 714.845C461.846 714.845 442.97 730.357 438.772 751.732C437.708 757.145 441.236 762.395 446.649 763.459C452.063 764.522 457.313 760.996 458.376 755.582C460.737 743.554 471.37 734.824 483.655 734.824C497.668 734.824 509.102 746.065 509.413 760.004L508.878 764.201C507.004 771.882 502.565 780.76 495.681 790.598C473.48 822.317 460.226 839.674 453.104 848.998C444.714 859.984 442.182 863.299 443.997 869.202C445.021 872.53 447.562 875.092 450.971 876.228C452.341 876.684 454.21 877.308 480.569 877.308C491.106 877.308 505.562 877.208 525.455 876.959C530.973 876.89 535.388 872.361 535.318 866.845C535.25 861.374 530.791 856.984 525.333 856.984V856.984Z" fill="black"/>
<path d="M909.842 836.9C907.465 811.727 887.474 792.044 862.308 790.099C777.253 783.525 691.032 783.391 605.921 789.66C605.712 754.532 603.949 719.04 600.634 683.983C598.25 658.806 578.258 639.128 553.103 637.195C466.028 630.46 377.728 630.462 290.659 637.195C265.48 639.129 245.489 658.81 243.12 683.987C236.052 758.846 236.048 834.775 243.108 909.67C245.495 934.888 265.492 954.594 290.65 956.525C303.032 957.486 315.622 958.301 328.273 958.997C326.86 962.99 325.904 967.159 325.495 971.453C319.563 1034.3 318.596 1098.07 322.622 1160.98C322.96 1166.27 327.354 1170.33 332.581 1170.33C332.795 1170.33 333.012 1170.32 333.227 1170.31C338.733 1169.95 342.911 1165.21 342.558 1159.7C338.6 1097.84 339.551 1035.13 345.383 973.336C345.836 968.591 347.314 964.072 349.706 960.048C350.575 960.084 351.443 960.131 352.311 960.167C360.532 960.5 368.017 964.892 372.329 971.912L397.482 1012.9C402.72 1021.45 411.832 1026.56 421.86 1026.56H421.872C431.901 1026.56 441.022 1021.46 446.266 1012.91L471.429 971.907C475.731 964.888 483.209 960.5 491.436 960.167C510.094 959.401 528.766 958.314 547.065 956.964C547.275 992.255 549.014 1027.53 552.321 1062.57C554.402 1084.62 569.947 1102.45 590.641 1107.89V1174.22C590.641 1179.74 595.112 1184.21 600.63 1184.21C606.148 1184.21 610.619 1179.74 610.619 1174.22V1110.22C627.529 1111.42 644.596 1112.38 661.515 1113.08C663.737 1113.17 665.9 1113.56 667.964 1114.22C667.29 1141 665.675 1168.22 663.132 1195.24C661.663 1210.75 649.384 1222.87 633.939 1224.07C613.494 1225.64 592.996 1226.85 573.001 1227.66C558.112 1228.28 544.57 1236.22 536.772 1248.92L511.616 1289.92C509.332 1293.64 505.705 1294.04 504.252 1294.04C502.798 1294.04 499.171 1293.64 496.89 1289.92L471.729 1248.91C463.932 1236.22 450.391 1228.28 435.492 1227.66C415.507 1226.85 395.009 1225.64 374.567 1224.07C361.301 1223.04 349.986 1213.71 346.41 1200.83C344.934 1195.51 339.426 1192.4 334.113 1193.88C328.798 1195.35 325.685 1200.86 327.161 1206.17C332.978 1227.12 351.411 1242.32 373.031 1243.99C393.716 1245.58 414.459 1246.8 434.674 1247.62C442.908 1247.96 450.395 1252.35 454.702 1259.36L479.864 1300.37C485.108 1308.91 494.226 1314.01 504.252 1314.01C514.276 1314.01 523.394 1308.91 528.642 1300.37L553.798 1259.37C558.108 1252.35 565.596 1247.96 573.819 1247.62C594.044 1246.8 614.788 1245.58 635.478 1243.99C660.64 1242.04 680.634 1222.32 683.022 1197.11C684.994 1176.16 686.413 1155.09 687.285 1134.19L706.692 1165.82C711.936 1174.37 721.053 1179.47 731.082 1179.47H731.083C741.11 1179.47 750.23 1174.37 755.474 1165.82L780.632 1124.82C784.936 1117.8 792.421 1113.41 800.651 1113.07C821.165 1112.24 841.91 1111.01 862.307 1109.43C887.474 1107.49 907.467 1087.78 909.846 1062.57C916.913 987.703 916.911 911.773 909.842 836.9V836.9ZM490.622 940.209C475.728 940.811 462.185 948.759 454.397 961.467L429.237 1002.46C426.953 1006.18 423.327 1006.59 421.871 1006.59C421.87 1006.59 421.868 1006.59 421.868 1006.59C420.415 1006.59 416.794 1006.18 414.515 1002.46L389.354 961.463C381.548 948.755 368.002 940.811 353.124 940.209C332.665 939.369 312.166 938.157 292.187 936.608C276.74 935.422 264.465 923.301 262.996 907.792C256.054 834.146 256.058 759.479 263.01 685.861C264.465 670.392 276.736 658.301 292.192 657.114C378.245 650.461 465.512 650.461 551.565 657.114C567.008 658.301 579.279 670.394 580.743 685.866C584.108 721.455 585.844 757.497 585.952 793.129C567.632 799.858 554.243 816.588 552.325 836.9C549.19 870.098 547.452 903.503 547.096 936.933C528.528 938.322 509.562 939.431 490.622 940.209V940.209ZM889.958 1060.7C888.494 1076.21 876.218 1088.33 860.767 1089.52C840.61 1091.08 820.11 1092.29 799.834 1093.12C784.94 1093.73 771.397 1101.67 763.604 1114.37L738.447 1155.38C736.164 1159.1 732.536 1159.5 731.083 1159.5H731.082C729.629 1159.5 726.002 1159.1 723.719 1155.38L698.561 1114.38C690.769 1101.67 677.224 1093.73 662.332 1093.12C642.057 1092.29 621.557 1091.08 601.4 1089.52C585.949 1088.33 573.673 1076.21 572.21 1060.7C565.26 987.07 565.263 912.405 572.215 838.778C573.676 823.308 585.95 811.212 601.4 810.017C644.426 806.691 687.755 805.028 731.084 805.028C774.412 805.028 817.741 806.691 860.767 810.017C876.218 811.21 888.491 823.308 889.952 838.778C896.904 912.405 896.907 987.071 889.958 1060.7V1060.7Z" fill="black"/>
<path d="M738.15 976.178C746.096 963.303 750.271 948.613 750.271 933.367C750.271 916.965 745.42 901.134 736.247 887.585C733.153 883.015 726.941 881.822 722.376 884.915C717.807 888.008 716.613 894.219 719.705 898.787C726.632 909.017 730.293 920.976 730.293 933.368C730.293 946.259 726.342 958.626 718.865 969.13C716.936 971.84 716.483 975.332 717.656 978.445L724.929 997.745L702.129 989.162C699.622 988.218 696.843 988.32 694.413 989.446C686.268 993.216 677.562 995.127 668.536 995.127C634.475 995.127 606.765 967.422 606.765 933.37C606.765 899.317 634.475 871.612 668.536 871.612C675.918 871.612 683.127 872.899 689.966 875.437C695.137 877.355 700.885 874.719 702.807 869.549C704.726 864.378 702.09 858.628 696.917 856.709C687.847 853.343 678.299 851.636 668.536 851.636C623.459 851.636 586.787 888.303 586.787 933.371C586.787 978.441 623.459 1015.11 668.536 1015.11C679.037 1015.11 689.217 1013.15 698.86 1009.28L738.535 1024.21C739.68 1024.65 740.872 1024.86 742.054 1024.86C744.656 1024.86 747.212 1023.84 749.119 1021.93C751.892 1019.15 752.786 1015.01 751.403 1011.34L738.15 976.178Z" fill="black"/>
<path d="M869.094 902.486C869.094 877.264 848.574 856.745 823.352 856.745C801.543 856.745 782.667 872.257 778.469 893.632C777.406 899.045 780.933 904.295 786.345 905.359C791.763 906.42 797.009 902.896 798.072 897.482C800.434 885.454 811.067 876.724 823.352 876.724C837.559 876.724 849.117 888.282 849.117 902.487C849.117 916.693 837.559 928.252 823.352 928.252C817.834 928.252 813.363 932.724 813.363 938.241C813.363 943.757 817.834 948.23 823.352 948.23C837.559 948.23 849.117 959.787 849.117 973.994C849.117 988.201 837.559 999.757 823.352 999.757C810.569 999.757 799.6 990.232 797.838 977.598C797.673 976.41 797.587 975.198 797.587 973.993C797.587 968.476 793.116 964.004 787.599 964.004C782.081 964.004 777.61 968.476 777.61 973.993C777.61 976.118 777.758 978.261 778.052 980.36C781.184 1002.81 800.659 1019.73 823.352 1019.73C848.574 1019.73 869.094 999.214 869.094 973.993C869.094 959.533 862.342 946.629 851.835 938.239C862.343 929.851 869.094 916.946 869.094 902.486V902.486Z" fill="black"/>
<g clip-path="url(#clip0)">
<path d="M1157.19 1380.18C1273.91 1380.18 1368.52 1285.57 1368.52 1168.85C1368.52 1052.14 1273.91 957.521 1157.19 957.521C1040.48 957.521 945.859 1052.14 945.859 1168.85C945.859 1285.57 1040.48 1380.18 1157.19 1380.18Z" fill="#65B2FF"/>
<path d="M1368.52 1168.85C1368.52 1285.56 1273.9 1380.18 1157.19 1380.18C1040.48 1380.18 945.859 1285.56 945.859 1168.85C945.859 1130.7 955.971 1094.91 973.662 1064.01C1010.08 1127.63 1078.63 1170.5 1157.19 1170.5C1235.75 1170.5 1304.31 1127.63 1340.72 1064.01C1358.41 1094.91 1368.52 1130.7 1368.52 1168.85Z" fill="#0F9BE8"/>
<path d="M1074.11 1116.04V1329.87C1074.11 1334.97 1069.97 1339.09 1064.88 1339.09C1059.79 1339.09 1055.66 1334.97 1055.66 1329.87V1116.04C1055.66 1110.95 1059.79 1106.82 1064.88 1106.82C1069.97 1106.82 1074.11 1110.95 1074.11 1116.04Z" fill="white"/>
<path d="M1074.11 1116.04V1329.87C1074.11 1334.97 1069.97 1339.09 1064.89 1339.09V1106.82C1069.97 1106.82 1074.11 1110.95 1074.11 1116.04Z" fill="#D0F6FF"/>
<path d="M1256.6 1116.04V1329.87C1256.6 1334.97 1252.47 1339.09 1247.38 1339.09C1242.29 1339.09 1238.16 1334.97 1238.16 1329.87V1116.04C1238.16 1110.95 1242.29 1106.82 1247.38 1106.82C1252.47 1106.82 1256.6 1110.95 1256.6 1116.04Z" fill="white"/>
<path d="M1256.6 1116.04V1329.87C1256.6 1334.97 1252.47 1339.09 1247.38 1339.09V1106.82C1252.47 1106.82 1256.6 1110.95 1256.6 1116.04Z" fill="#D0F6FF"/>
<path d="M1311.54 1313.21C1308.38 1316.59 1305.11 1319.85 1301.74 1323.02C1263.94 1358.46 1213.1 1380.18 1157.19 1380.18C1101.28 1380.18 1050.44 1358.46 1012.64 1323.02C1009.28 1319.85 1006.01 1316.59 1002.84 1313.21C1004.89 1301.35 1010.59 1290.74 1018.74 1282.58C1029.1 1272.24 1043.39 1265.84 1059.18 1265.84H1255.2C1283.44 1265.84 1306.89 1286.31 1311.54 1313.21Z" fill="#545D7A"/>
<path d="M1311.54 1313.21C1308.38 1316.59 1305.11 1319.85 1301.74 1323.02C1263.94 1358.46 1213.1 1380.18 1157.19 1380.18V1265.84H1255.2C1283.44 1265.84 1306.89 1286.31 1311.54 1313.21Z" fill="#474F6F"/>
<path d="M1301.74 1323.02C1263.94 1358.46 1213.1 1380.18 1157.19 1380.18C1101.28 1380.18 1050.44 1358.46 1012.64 1323.02H1301.74Z" fill="#474F6F"/>
<path d="M1301.74 1323.02C1263.94 1358.46 1213.1 1380.18 1157.19 1380.18V1323.02H1301.74Z" fill="#323B5A"/>
<path d="M1208.72 1329.88C1212.51 1329.88 1215.58 1326.8 1215.58 1323.01C1215.58 1319.22 1212.51 1316.15 1208.72 1316.15C1204.93 1316.15 1201.86 1319.22 1201.86 1323.01C1201.86 1326.8 1204.93 1329.88 1208.72 1329.88Z" fill="#DD1265"/>
<path d="M1215.58 1323.01C1215.58 1326.8 1212.51 1329.88 1208.72 1329.88V1316.15C1212.51 1316.15 1215.58 1319.23 1215.58 1323.01Z" fill="#BA0D5C"/>
<path d="M1227.79 1329.88C1231.58 1329.88 1234.65 1326.8 1234.65 1323.01C1234.65 1319.22 1231.58 1316.15 1227.79 1316.15C1224 1316.15 1220.93 1319.22 1220.93 1323.01C1220.93 1326.8 1224 1329.88 1227.79 1329.88Z" fill="#FFD112"/>
<path d="M1234.65 1323.01C1234.65 1326.8 1231.58 1329.88 1227.79 1329.88V1316.15C1231.58 1316.15 1234.65 1319.23 1234.65 1323.01Z" fill="#FF9F00"/>
<path d="M1247.38 1329.88C1251.17 1329.88 1254.24 1326.8 1254.24 1323.01C1254.24 1319.22 1251.17 1316.15 1247.38 1316.15C1243.59 1316.15 1240.52 1319.22 1240.52 1323.01C1240.52 1326.8 1243.59 1329.88 1247.38 1329.88Z" fill="#95D600"/>
<path d="M1254.24 1323.01C1254.24 1326.8 1251.17 1329.88 1247.38 1329.88V1316.15C1251.17 1316.15 1254.24 1319.23 1254.24 1323.01Z" fill="#85AF12"/>
<path d="M1079.93 1323.01C1079.93 1331.32 1073.2 1338.07 1064.88 1338.07C1056.57 1338.07 1049.84 1331.32 1049.84 1323.01C1049.84 1314.71 1056.57 1307.96 1064.88 1307.96C1073.2 1307.96 1079.93 1314.71 1079.93 1323.01Z" fill="#95D600"/>
<path d="M1079.93 1323.01C1079.93 1331.32 1073.2 1338.07 1064.88 1338.07V1307.96C1073.2 1307.96 1079.93 1314.7 1079.93 1323.01Z" fill="#85AF12"/>
<path d="M1074.11 1158.59H1055.66V1184.41H1074.11V1158.59Z" fill="#474F6F"/>
<path d="M1256.6 1158.59H1238.16V1184.41H1256.6V1158.59Z" fill="#474F6F"/>
<path d="M1074.11 1158.59H1064.89V1184.41H1074.11V1158.59Z" fill="#323B5A"/>
<path d="M1256.6 1158.59H1247.38V1184.41H1256.6V1158.59Z" fill="#323B5A"/>
<path d="M1230.25 1059.92L1217.94 1072.24C1217.85 1072.32 1217.73 1072.31 1217.65 1072.22C1215.86 1069.99 1213.92 1067.84 1211.86 1065.78C1209.75 1063.67 1207.55 1061.7 1205.26 1059.86C1191.08 1048.47 1173.58 1042.29 1155.14 1042.29H1155.13C1136.69 1042.29 1119.2 1048.47 1105.02 1059.86C1102.73 1061.7 1100.53 1063.67 1098.42 1065.78C1096.35 1067.85 1094.42 1070 1092.63 1072.23C1092.56 1072.32 1092.43 1072.33 1092.35 1072.25L1080.02 1059.91C1079.95 1059.85 1079.95 1059.74 1080.01 1059.66C1081.86 1057.45 1083.82 1055.31 1085.89 1053.25C1087.99 1051.15 1090.17 1049.15 1092.42 1047.26C1110.01 1032.56 1131.95 1024.56 1155.13 1024.56H1155.14C1178.32 1024.56 1200.27 1032.56 1217.84 1047.27C1220.1 1049.15 1222.29 1051.15 1224.39 1053.25C1226.45 1055.31 1228.41 1057.45 1230.27 1059.67C1230.33 1059.74 1230.33 1059.86 1230.25 1059.92Z" fill="white"/>
<path d="M1206.03 1084.13L1193.62 1096.56C1193.53 1096.64 1193.4 1096.63 1193.34 1096.53C1191.72 1094.16 1189.87 1091.93 1187.79 1089.85C1185.66 1087.72 1183.36 1085.83 1180.93 1084.18C1173.37 1079.07 1164.46 1076.32 1155.14 1076.32H1155.13C1145.81 1076.32 1136.91 1079.07 1129.35 1084.18C1126.91 1085.83 1124.62 1087.72 1122.49 1089.85C1120.4 1091.94 1118.55 1094.18 1116.95 1096.53C1116.88 1096.63 1116.75 1096.65 1116.67 1096.57L1104.25 1084.13C1104.17 1084.07 1104.16 1083.96 1104.22 1083.89C1105.95 1081.6 1107.87 1079.4 1109.96 1077.32C1112.07 1075.21 1114.31 1073.26 1116.65 1071.49C1127.68 1063.12 1141.06 1058.6 1155.13 1058.6H1155.14C1169.21 1058.6 1182.6 1063.12 1193.62 1071.49C1195.97 1073.26 1198.21 1075.21 1200.32 1077.32C1202.4 1079.4 1204.31 1081.59 1206.06 1083.89C1206.11 1083.96 1206.11 1084.07 1206.03 1084.13Z" fill="white"/>
<path d="M1182.07 1108.11L1176.6 1113.57C1173.21 1116.97 1167.74 1116.85 1164.36 1113.42C1164.33 1113.4 1164.31 1113.37 1164.29 1113.35C1161.87 1110.92 1158.72 1109.67 1155.54 1109.57C1155.41 1109.56 1155.27 1109.56 1155.14 1109.56H1155.13C1155 1109.56 1154.87 1109.56 1154.73 1109.57C1151.56 1109.67 1148.41 1110.92 1145.98 1113.35C1145.98 1113.36 1145.97 1113.36 1145.96 1113.37C1142.53 1116.82 1136.97 1116.86 1133.53 1113.43L1128.2 1108.1C1128.14 1108.04 1128.13 1107.94 1128.17 1107.87C1129.57 1105.31 1131.34 1102.93 1133.45 1100.82C1135.63 1098.64 1138.06 1096.85 1140.64 1095.48C1145.15 1093.07 1150.14 1091.85 1155.13 1091.85C1160.12 1091.85 1165.12 1093.06 1169.63 1095.48C1172.22 1096.85 1174.65 1098.64 1176.82 1100.82C1178.97 1102.96 1180.73 1105.34 1182.1 1107.88C1182.14 1107.96 1182.12 1108.05 1182.07 1108.11Z" fill="white"/>
</g>
<g clip-path="url(#clip1)">
<path d="M285.008 201.258C283.134 201.258 281.261 200.537 279.833 199.101C276.997 196.25 277.011 191.629 279.869 188.794C338.182 130.933 430.054 112.164 508.471 142.078C512.232 143.514 514.12 147.727 512.684 151.489C511.248 155.25 507.043 157.145 503.273 155.702C430.112 127.792 344.458 145.234 290.139 199.145C288.718 200.552 286.859 201.258 285.008 201.258Z" fill="#EBBA16"/>
<path d="M222.591 330.721C222.299 330.721 222.007 330.706 221.716 330.67C217.714 330.196 214.864 326.566 215.338 322.571C219.959 283.873 234.304 246.932 256.82 215.742C259.175 212.469 263.73 211.74 266.995 214.095C270.261 216.45 270.997 221.005 268.635 224.27C247.563 253.464 234.136 288.058 229.806 324.299C229.377 328.003 226.235 330.721 222.591 330.721Z" fill="#61B872"/>
<path d="M244.196 453.557C241.564 453.557 239.021 452.128 237.723 449.628C226.614 428.257 219.267 405.245 215.878 381.227C215.317 377.24 218.094 373.552 222.081 372.991C226.061 372.408 229.749 375.207 230.317 379.194C233.473 401.564 240.318 423.009 250.661 442.909C252.52 446.48 251.127 450.883 247.556 452.742C246.477 453.295 245.332 453.557 244.196 453.557Z" fill="#FC3952"/>
<path d="M368.301 555.373C367.615 555.373 366.923 555.278 366.231 555.074C345.631 548.988 326.25 539.905 308.61 528.075C305.271 525.83 304.375 521.303 306.619 517.965C308.864 514.613 313.383 513.723 316.737 515.975C333.145 526.982 351.185 535.43 370.363 541.094C374.227 542.231 376.428 546.291 375.29 550.147C374.35 553.325 371.442 555.373 368.301 555.373Z" fill="#C5411E"/>
<path d="M427.955 564.003C425.361 564.003 422.765 563.952 420.178 563.857C416.154 563.712 413.013 560.344 413.151 556.313C413.296 552.29 416.693 549.046 420.695 549.294C449.662 550.336 479.125 545.147 505.898 534.307C509.63 532.806 513.88 534.592 515.389 538.331C516.898 542.063 515.097 546.313 511.365 547.822C485.102 558.456 456.426 564.003 427.955 564.003Z" fill="#EA6248"/>
<path d="M549.538 526.355C547.213 526.355 544.931 525.247 543.518 523.184C541.243 519.867 542.089 515.326 545.406 513.044C569.846 496.294 590.686 474.003 605.679 448.579C607.727 445.102 612.189 443.965 615.658 445.999C619.127 448.04 620.279 452.515 618.231 455.977C602.159 483.224 579.825 507.118 553.642 525.072C552.395 525.939 550.959 526.355 549.538 526.355Z" fill="#478EEC"/>
<path d="M632.371 413.35C631.665 413.35 630.95 413.248 630.243 413.029C626.394 411.856 624.223 407.781 625.396 403.932C633.531 377.283 636.046 348.615 632.686 321.04C632.197 317.045 635.04 313.408 639.042 312.927C643.043 312.352 646.673 315.282 647.162 319.277C650.77 348.856 648.073 379.601 639.348 408.19C638.378 411.325 635.492 413.35 632.371 413.35Z" fill="#ED8A19"/>
<path d="M629.15 282.175C626.162 282.175 623.355 280.324 622.29 277.349C615.541 258.543 606.05 240.845 594.096 224.743C591.698 221.514 592.368 216.951 595.605 214.553C598.842 212.155 603.404 212.826 605.802 216.062C618.609 233.308 628.771 252.275 636.009 272.422C637.373 276.212 635.405 280.389 631.613 281.745C630.798 282.036 629.966 282.175 629.15 282.175Z" fill="#61B872"/>
<path d="M554.451 433.599C553.132 433.599 551.797 433.243 550.595 432.492C547.176 430.356 546.141 425.866 548.277 422.447C586.02 362.086 573.213 280.82 519.128 237.456C515.987 234.934 515.483 230.349 517.998 227.208C520.513 224.073 525.097 223.571 528.246 226.085C588.01 273.997 602.239 363.654 560.639 430.181C559.254 432.389 556.878 433.599 554.451 433.599Z" fill="#F76363"/>
<path d="M465.385 495.937C462.039 495.937 459.029 493.627 458.278 490.222C457.41 486.293 459.889 482.4 463.817 481.533C484.183 477.029 503.171 468.078 518.741 455.657C521.89 453.135 526.475 453.667 528.982 456.802C531.49 459.951 530.979 464.542 527.831 467.042C510.534 480.856 489.482 490.783 466.959 495.761C466.434 495.879 465.902 495.937 465.385 495.937Z" fill="#25AE88"/>
<path d="M296.116 396.623C292.989 396.623 290.096 394.596 289.14 391.448C282.777 370.433 280.823 347.836 283.491 326.093C283.98 322.098 287.602 319.153 291.618 319.751C295.613 320.232 298.455 323.869 297.968 327.872C295.547 347.611 297.319 368.129 303.099 387.22C304.266 391.075 302.086 395.143 298.237 396.309C297.53 396.52 296.815 396.623 296.116 396.623Z" fill="#ED8A19"/>
<path d="M304.462 287.795C303.391 287.795 302.298 287.561 301.27 287.051C297.654 285.288 296.153 280.921 297.917 277.306C310.418 251.685 330.019 230.255 354.597 215.305C358.038 213.22 362.52 214.306 364.613 217.747C366.705 221.187 365.612 225.67 362.171 227.762C339.983 241.254 322.292 260.6 311.016 283.699C309.754 286.293 307.159 287.795 304.462 287.795Z" fill="#478EEC"/>
<path d="M433.917 455.614C494.302 455.614 543.254 406.662 543.254 346.276C543.254 285.891 494.302 236.939 433.917 236.939C373.532 236.939 324.58 285.891 324.58 346.276C324.58 406.662 373.532 455.614 433.917 455.614Z" fill="#7383BF"/>
<path d="M543.254 353.565H324.58C320.556 353.565 317.29 350.307 317.29 346.276C317.29 342.244 320.556 338.986 324.58 338.986H543.254C547.278 338.986 550.544 342.244 550.544 346.276C550.544 350.306 547.278 353.565 543.254 353.565Z" fill="#556080"/>
<path d="M433.917 462.902C402.764 462.902 373.476 450.773 351.447 428.738C329.42 406.718 317.29 377.423 317.29 346.276C317.29 315.129 329.419 285.835 351.447 263.814C373.475 241.787 402.763 229.65 433.917 229.65C465.072 229.65 494.359 241.779 516.387 263.814C538.414 285.835 550.544 315.129 550.544 346.276C550.544 377.423 538.415 406.718 516.387 428.738C494.359 450.773 465.072 462.902 433.917 462.902ZM433.917 244.228C406.656 244.228 381.034 254.841 361.755 274.121C342.475 293.4 331.869 319.022 331.869 346.276C331.869 373.531 342.482 399.159 361.755 418.432C381.027 437.704 406.656 448.324 433.917 448.324C461.178 448.324 486.8 437.711 506.079 418.432C525.352 399.152 535.965 373.531 535.965 346.276C535.965 319.022 525.352 293.393 506.079 274.121C486.808 254.841 461.179 244.228 433.917 244.228Z" fill="#556080"/>
<path d="M433.917 462.902C402.763 462.902 373.476 450.773 351.447 428.738C349.494 426.785 347.657 424.773 345.878 422.724C344.281 420.895 343.706 418.38 344.34 416.033C344.975 413.693 346.738 411.812 349.042 411.032C364.225 405.901 395.43 397.292 433.916 397.292C472.403 397.292 503.608 405.901 518.791 411.032C521.094 411.805 522.858 413.686 523.492 416.033C524.127 418.38 523.55 420.894 521.954 422.724C520.169 424.772 518.332 426.791 516.385 428.738C494.359 450.773 465.072 462.902 433.917 462.902ZM364.867 421.412C383.746 438.797 408.099 448.316 433.925 448.316C459.75 448.316 484.103 438.789 502.982 421.412C486.917 416.907 462.564 411.87 433.925 411.87C405.286 411.87 380.925 416.908 364.867 421.412Z" fill="#556080"/>
<path d="M433.917 295.252C395.431 295.252 364.225 286.644 349.043 281.512C346.739 280.74 344.976 278.859 344.341 276.512C343.707 274.165 344.283 271.65 345.879 269.82C347.665 267.772 349.502 265.753 351.448 263.806C373.476 241.779 402.764 229.643 433.918 229.643C465.072 229.643 494.359 241.771 516.388 263.806C518.341 265.76 520.178 267.771 521.957 269.82C523.554 271.649 524.129 274.165 523.495 276.512C522.86 278.852 521.097 280.732 518.793 281.512C503.616 286.644 472.404 295.252 433.917 295.252ZM364.867 271.132C380.933 275.637 405.286 280.674 433.925 280.674C462.564 280.674 486.917 275.645 502.982 271.132C484.103 253.748 459.75 244.228 433.925 244.228C408.099 244.228 383.746 253.748 364.867 271.132Z" fill="#556080"/>
<path d="M433.917 462.902C432.707 462.902 431.497 462.603 430.397 461.998C428.071 460.715 426.629 458.266 426.629 455.613V236.975C426.629 234.322 428.072 231.873 430.397 230.59C432.715 229.3 435.557 229.395 437.81 230.809C445.536 235.685 452.643 241.531 460.865 249.754C487.091 275.987 501.531 310.261 501.531 346.277C501.531 382.293 487.091 416.581 460.865 442.8C452.577 451.095 445.47 456.941 437.81 461.781C436.622 462.523 435.273 462.902 433.917 462.902ZM441.206 251.385V441.173C444.18 438.644 447.257 435.786 450.552 432.492C474.022 409.013 486.953 378.399 486.953 346.276C486.953 314.153 474.03 283.538 450.558 260.06C447.271 256.765 444.195 253.915 441.206 251.385Z" fill="#556080"/>
<path d="M433.917 462.866C432.561 462.866 431.213 462.487 430.025 461.744C422.298 456.868 415.191 451.022 406.969 442.799C380.743 416.573 366.303 382.292 366.303 346.276C366.303 310.26 380.743 275.98 406.969 249.753C415.191 241.531 422.298 235.685 430.025 230.808C432.269 229.402 435.113 229.307 437.437 230.589C439.763 231.873 441.206 234.322 441.206 236.974V455.576C441.206 458.229 439.762 460.678 437.437 461.961C436.345 462.567 435.127 462.866 433.917 462.866ZM426.629 251.386C423.64 253.915 420.564 256.765 417.284 260.053C393.813 283.531 380.889 314.146 380.889 346.268C380.889 378.391 393.812 409.006 417.284 432.484C420.571 435.771 423.64 438.629 426.629 441.15V251.386ZM412.13 254.899H412.203H412.13Z" fill="#556080"/>
<path d="M575.888 229.65C596.017 229.65 612.334 213.333 612.334 193.204C612.334 173.076 596.017 156.758 575.888 156.758C555.759 156.758 539.442 173.076 539.442 193.204C539.442 213.333 555.759 229.65 575.888 229.65Z" fill="#DD352E"/>
<path d="M284.344 535.794C304.473 535.794 320.79 519.477 320.79 499.348C320.79 479.219 304.473 462.902 284.344 462.902C264.216 462.902 247.898 479.219 247.898 499.348C247.898 519.477 264.216 535.794 284.344 535.794Z" fill="#EBBA16"/>
</g>
<defs>
<clipPath id="clip0">
<rect width="422.664" height="422.664" fill="white" transform="translate(945.859 957.521)"/>
</clipPath>
<clipPath id="clip1">
<rect width="436.003" height="436.003" fill="white" transform="translate(214 128)"/>
</clipPath>
</defs>
</svg>
