<svg id="Layer_5" enable-background="new 0 0 64 64" height="512" viewBox="0 0 64 64" width="512" xmlns="http://www.w3.org/2000/svg"><g><g><g><path d="m58 48h-18c-2.21 0-4 1.79-4 4v6c0 2.21 1.79 4 4 4h18c2.21 0 4-1.79 4-4v-6c0-2.21-1.79-4-4-4z" fill="#ccd1d9"/></g><g><path d="m54 48v2h-10v-2-1c0-2.76 2.24-5 5-5 1.38 0 2.63.56 3.54 1.46.9.91 1.46 2.16 1.46 3.54z" fill="#969faa"/></g><g><path d="m54 52v2h-10v-2-2h10z" fill="#b4dd7f"/></g><g><path d="m58 53v4c0 .55-.45 1-1 1h-16c-.55 0-1-.45-1-1v-4c0-.55.45-1 1-1h3v2h10v-2h3c.55 0 1 .45 1 1z" fill="#e6e9ed"/></g><g><circle cx="23" cy="23" fill="#69d6f4" r="21"/></g><g><path d="m35 32.21-.76.79-1.91 2c-5.15-5.4-13.51-5.4-18.66 0l-1.91-2-.76-.79c1.56-1.63 3.34-2.87 5.24-3.74 4.3-1.96 9.22-1.96 13.52 0 1.9.87 3.68 2.11 5.24 3.74z" fill="#ff826e"/></g><g><path d="m30 38.05-2.8 2.95c-2.32-2.44-6.08-2.44-8.4 0l-2.8-2.95c3.87-4.07 10.13-4.07 14 0z" fill="#ff826e"/></g><g><path d="m24.69 43.93c.2.31.31.68.31 1.07 0 1.1-.9 2-2 2s-2-.9-2-2c0-.39.11-.75.31-1.06.35-.56.98-.94 1.69-.94s1.33.37 1.69.93z" fill="#ff826e"/></g></g><g><path d="m53 27h5c2.757 0 5-2.243 5-5s-2.243-5-5-5h-6c-1.654 0-3-1.346-3-3s1.346-3 3-3h6c2.757 0 5-2.243 5-5s-2.243-5-5-5h-35c-12.131 0-22 9.869-22 22 0 10.991 8.263 20.307 19.023 21.774-.006.076-.023.149-.023.226 0 1.654 1.346 3 3 3s3-1.346 3-3c0-.077-.017-.15-.023-.226 10.757-1.468 19.023-10.791 19.023-21.774 0-8.867-5.276-16.521-12.852-20h25.852c1.654 0 3 1.346 3 3s-1.346 3-3 3h-6c-2.757 0-5 2.243-5 5s2.243 5 5 5h6c1.654 0 3 1.346 3 3s-1.346 3-3 3h-5c-2.757 0-5 2.243-5 5v11.09c-2.833.478-5 2.942-5 5.91h-3c-2.757 0-5 2.243-5 5v6c0 2.757 2.243 5 5 5h18c2.757 0 5-2.243 5-5v-6c0-2.757-2.243-5-5-5h-3c0-2.967-2.167-5.431-5-5.91v-11.09c0-1.654 1.346-3 3-3zm-25.08-15h-9.84c1.17-5.502 3.112-9 4.92-9s3.75 3.498 4.92 9zm15.029 10h-11.957c-.044-2.713-.269-5.445-.666-8h10.51c1.23 2.427 1.971 5.133 2.113 8zm-6.764 10-.462-.483c-1.454-1.523-3.122-2.733-4.922-3.642.099-1.27.156-2.565.177-3.875h11.973c-.144 2.851-.878 5.565-2.118 8zm-25.908-.483-.462.483h-4.65c-1.239-2.434-1.972-5.149-2.116-8h11.973c.02 1.31.078 2.605.177 3.875-1.801.909-3.469 2.119-4.922 3.642zm12.723-5.517c-2.026 0-3.993.367-5.853 1.036-.066-1.001-.109-2.012-.125-3.036h11.957c-.016 1.024-.059 2.035-.125 3.036-1.861-.669-3.828-1.036-5.854-1.036zm-19.949-4c.143-2.867.884-5.573 2.113-8h10.51c-.397 2.555-.622 5.287-.666 8zm19.949 6c3.945 0 7.674 1.494 10.599 4.227l-1.291 1.352c-2.582-2.347-5.85-3.628-9.308-3.628s-6.726 1.281-9.308 3.628l-1.291-1.352c2.925-2.733 6.654-4.227 10.599-4.227zm5.983-6h-11.966c.048-2.903.296-5.6.69-8h10.586c.394 2.4.642 5.097.69 8zm-9.749-18.633c-1.418 1.986-2.493 5.066-3.205 8.633h-9.715c2.92-4.414 7.539-7.602 12.92-8.633zm3.766 42.633c-.551 0-1-.448-1-1s.449-1 1-1 1 .448 1 1-.449 1-1 1zm2.11-3.129c-.542-.538-1.288-.871-2.11-.871s-1.567.333-2.11.871c-6.081-.641-11.332-4.032-14.544-8.871h4.983l2.337 2.448.723-.758c2.303-2.412 5.36-3.74 8.61-3.74s6.308 1.328 8.61 3.74l.723.758 2.339-2.448h4.981c-3.213 4.837-8.463 8.231-14.542 8.871zm14.576-30.871h-9.714c-.712-3.567-1.787-6.647-3.206-8.633 5.381 1.031 10 4.219 12.92 8.633zm15.314 43v-2h2v4h-16v-4h2v2zm-2-2h-8v-2h8zm5-4c1.654 0 3 1.346 3 3v6c0 1.654-1.346 3-3 3h-18c-1.654 0-3-1.346-3-3v-6c0-1.654 1.346-3 3-3h3v2h-2c-1.103 0-2 .897-2 2v4c0 1.103.897 2 2 2h16c1.103 0 2-.897 2-2v-4c0-1.103-.897-2-2-2h-2v-2zm-5-2v2h-8v-2c0-2.206 1.794-4 4-4s4 1.794 4 4z"/><path d="m23 34c-2.921 0-5.665 1.194-7.726 3.364l-.654.688 4.179 4.399.725-.764c.931-.979 2.166-1.52 3.475-1.52s2.544.54 3.475 1.52l.725.764 4.179-4.399-.654-.688c-2.059-2.17-4.803-3.364-7.724-3.364zm4.147 5.604c-1.191-.931-2.631-1.435-4.147-1.435s-2.956.504-4.147 1.435l-1.44-1.516c1.578-1.353 3.53-2.088 5.587-2.088s4.009.735 5.587 2.088z"/></g></g></svg>