<svg width="225" height="78" viewBox="0 0 225 78" fill="none" xmlns="http://www.w3.org/2000/svg">
<path d="M78 39C78 60.5391 60.5391 78 39 78C17.4609 78 0 60.5391 0 39C0 17.4609 17.4609 0 39 0C60.5391 0 78 17.4609 78 39Z" fill="#8BA6B9"/>
<path fill-rule="evenodd" clip-rule="evenodd" d="M39 72.8382C57.6883 72.8382 72.8382 57.6883 72.8382 39C72.8382 20.3117 57.6883 5.16176 39 5.16176C20.3117 5.16176 5.16176 20.3117 5.16176 39C5.16176 57.6883 20.3117 72.8382 39 72.8382ZM39 78C60.5391 78 78 60.5391 78 39C78 17.4609 60.5391 0 39 0C17.4609 0 0 17.4609 0 39C0 60.5391 17.4609 78 39 78Z" fill="#102B3E"/>
<path d="M58.4835 20.4133H56.1008C49.087 20.4133 54.9335 20.7667 54.9335 21.2029C54.9335 21.639 51.7133 21.9925 52.0892 21.9925H58.4835C59.6092 21.9925 60.5251 23.0552 60.5251 24.3613V27.9934H16.7912V24.3613C16.7912 23.0552 17.707 21.9925 18.8327 21.9925H53.1129C53.4888 21.9925 53.7934 21.639 53.7934 21.2029C53.7934 20.7667 53.4888 20.4634 53.1129 20.4634L18.8327 20.4133C16.9565 20.4133 15.4302 22.1843 15.4302 24.3613V33.0659C15.4302 33.502 15.7349 33.8555 16.1107 33.8555C16.4865 33.8555 16.7912 33.502 16.7912 33.0659V29.5726H60.5251V49.9301C60.5251 50.3662 60.8296 50.7197 61.2056 50.7197C61.5815 50.7197 61.8861 50.3662 61.8861 49.9301V24.3613C61.8861 22.1843 60.3597 20.4133 58.4835 20.4133Z" fill="#102B3E"/>
<path fill-rule="evenodd" clip-rule="evenodd" d="M15 24.3613C15 22.0325 16.6465 20 18.8327 20H18.8333L53.099 20.0502C53.615 20.017 54.5537 20 56.1007 20H58.4835C60.6697 20 62.3162 22.0325 62.3162 24.3613V49.9301C62.3162 50.5181 61.8914 51.1329 61.2055 51.1329C60.5196 51.1329 60.0949 50.5181 60.0949 49.9301V29.9859H17.2213V33.0659C17.2213 33.6539 16.7964 34.2687 16.1107 34.2687C15.4249 34.2687 15 33.6539 15 33.0659V24.3613ZM52.3754 20.8756L18.8327 20.8265C18.8326 20.8265 18.8325 20.8265 18.8324 20.8265C17.2663 20.8267 15.8603 22.3362 15.8603 24.3613V33.0659C15.8603 33.193 15.9049 33.2959 15.9608 33.3606C16.0158 33.4245 16.0708 33.4422 16.1107 33.4422C16.1505 33.4422 16.2055 33.4245 16.2605 33.3606C16.3164 33.2959 16.361 33.193 16.361 33.0659V29.1593H60.9552V49.9301C60.9552 50.0572 60.9998 50.1601 61.0556 50.2249C61.1106 50.2887 61.1656 50.3064 61.2055 50.3064C61.2454 50.3064 61.3004 50.2887 61.3554 50.2249C61.4112 50.1601 61.4559 50.0572 61.4559 49.9301V24.3613C61.4559 22.3361 60.0497 20.8265 58.4835 20.8265H56.1007C55.7631 20.8265 55.4561 20.8274 55.1775 20.829C55.2563 20.8948 55.3636 21.0171 55.3636 21.2029C55.3636 21.3592 55.2903 21.4776 55.2251 21.5513C55.2166 21.5609 55.2078 21.5702 55.1989 21.5792H58.4835C59.9191 21.5792 60.9552 22.9033 60.9552 24.3613V28.4067H16.361V24.3613C16.361 22.9033 17.397 21.5792 18.8327 21.5792H51.9816C51.9938 21.5764 52.0053 21.5739 52.015 21.572C52.078 21.5593 52.1838 21.5421 52.3042 21.5228C52.3249 21.5195 52.3464 21.516 52.3686 21.5125C52.6147 21.4731 52.9465 21.42 53.2876 21.3557C53.3062 21.3522 53.3247 21.3487 53.3433 21.3451C53.3558 21.3023 53.3632 21.2546 53.3632 21.2029C53.3632 21.1899 53.3627 21.1773 53.3619 21.1652C53.1482 21.1243 52.9384 21.0835 52.7809 21.045C52.7037 21.0262 52.6208 21.0036 52.5511 20.9763C52.5188 20.9637 52.4655 20.9411 52.4132 20.9046L52.4128 20.9043C52.4064 20.8999 52.3927 20.8903 52.3754 20.8756ZM52.8272 20.9093C52.8272 20.9093 52.8273 20.9093 52.8272 20.9093C52.823 20.9103 52.8232 20.9105 52.8272 20.9093ZM52.0892 22.4057C52.0891 22.4057 52.0886 22.4057 52.0884 22.4057H18.8327C18.0169 22.4057 17.2213 23.207 17.2213 24.3613V27.5801H60.0949V24.3613C60.0949 23.207 59.2992 22.4057 58.4835 22.4057H52.0892Z" fill="#102B3E"/>
<path d="M61.2056 49.1688C60.8296 49.1688 60.5251 49.5649 60.5251 50.0538V52.3557C60.5251 53.8197 59.6092 55.0108 58.4835 55.0108H18.8327C17.707 55.0108 16.7912 53.8197 16.7912 52.3557V31.2168C16.7912 30.7279 16.4865 30.3317 16.1107 30.3317C15.7349 30.3317 15.4302 30.7279 15.4302 31.2168V52.3557C15.4302 54.7958 16.9565 56.7809 18.8327 56.7809H58.4835C60.3597 56.7809 61.8861 54.7958 61.8861 52.3557V50.0538C61.8861 49.5651 61.5815 49.1688 61.2056 49.1688Z" fill="#102B3E"/>
<path fill-rule="evenodd" clip-rule="evenodd" d="M15.2835 30.3453C15.4666 30.1072 15.7542 29.9185 16.1107 29.9185C16.4671 29.9185 16.7547 30.1072 16.9378 30.3453C17.121 30.5836 17.2213 30.893 17.2213 31.2168V52.3557C17.2213 53.0081 17.426 53.5838 17.7358 53.9867C18.0458 54.39 18.4388 54.5976 18.8327 54.5976H58.4835C58.8773 54.5976 59.2704 54.39 59.5804 53.9867C59.8902 53.5838 60.0949 53.0081 60.0949 52.3557V50.0538C60.0949 49.7301 60.1952 49.4207 60.3783 49.1824C60.5614 48.9443 60.8491 48.7555 61.2055 48.7555C61.5621 48.7555 61.8497 48.9444 62.0328 49.1825C62.2159 49.4207 62.3162 49.7302 62.3162 50.0538V52.3557C62.3162 53.6554 61.9103 54.8498 61.2343 55.7289C60.5586 56.6078 59.5906 57.1942 58.4835 57.1942H18.8327C17.7256 57.1942 16.7576 56.6078 16.0819 55.7289C15.4059 54.8498 15 53.6554 15 52.3557V31.2168C15 30.893 15.1003 30.5836 15.2835 30.3453ZM15.9755 30.8365C15.9124 30.9186 15.8603 31.0516 15.8603 31.2168V52.3557C15.8603 53.4961 16.2176 54.5144 16.7738 55.2378C17.3303 55.9616 18.0636 56.3677 18.8327 56.3677H58.4835C59.2526 56.3677 59.9859 55.9616 60.5424 55.2378C61.0986 54.5144 61.4559 53.4961 61.4559 52.3557V50.0538C61.4559 49.8888 61.4039 49.7557 61.3408 49.6736C61.2776 49.5914 61.2249 49.5821 61.2055 49.5821C61.1861 49.5821 61.1335 49.5914 61.0703 49.6735C61.0072 49.7556 60.9552 49.8887 60.9552 50.0538V52.3557C60.9552 53.1673 60.7019 53.9192 60.2724 54.4778C59.8431 55.0361 59.2154 55.4241 58.4835 55.4241H18.8327C18.1008 55.4241 17.4731 55.0361 17.0438 54.4778C16.6143 53.9192 16.361 53.1673 16.361 52.3557V31.2168C16.361 31.0516 16.309 30.9186 16.2459 30.8365C16.1827 30.7543 16.1301 30.745 16.1107 30.745C16.0913 30.745 16.0387 30.7543 15.9755 30.8365Z" fill="#102B3E"/>
<path d="M33.0063 36.0599C32.7405 35.7693 32.3096 35.7693 32.0439 36.0599L27.9545 40.5323C27.8269 40.6719 27.7552 40.8612 27.7552 41.0586C27.7552 41.2561 27.8269 41.4452 27.9545 41.585L31.9899 45.9982C32.1227 46.1435 32.2969 46.2161 32.471 46.2161C32.6451 46.2161 32.8194 46.1435 32.9522 45.9982C33.218 45.7075 33.218 45.2363 32.9522 44.9457L29.398 41.0587L33.0063 37.1126C33.2721 36.8218 33.2721 36.3506 33.0063 36.0599Z" fill="#102B3E"/>
<path fill-rule="evenodd" clip-rule="evenodd" d="M31.7208 35.7871C32.1578 35.3092 32.8923 35.3093 33.3294 35.7871C33.7379 36.2339 33.7379 36.9385 33.3294 37.3853L29.9706 41.0587L33.2753 44.6729C33.6838 45.1196 33.6837 45.8242 33.2754 46.2709C33.064 46.5022 32.7735 46.6294 32.471 46.6294C32.1686 46.6294 31.8781 46.5022 31.6667 46.271L27.6314 41.8577C27.4304 41.6377 27.3251 41.3498 27.3251 41.0586C27.3251 40.7676 27.4302 40.4796 27.6314 40.2595L31.7208 35.7871ZM32.6831 36.3327C32.8063 36.4674 32.8063 36.7051 32.6831 36.8398L28.8255 41.0587L32.629 45.2184C32.7521 45.353 32.7522 45.5907 32.629 45.7255C32.5748 45.7848 32.5168 45.8029 32.471 45.8029C32.4252 45.8029 32.3673 45.7848 32.313 45.7255L28.2778 41.3123" fill="#102B3E"/>
<path d="M45.7061 46.2737C45.8389 46.419 46.0131 46.4917 46.1872 46.4917C46.3613 46.4917 46.5356 46.419 46.6684 46.2737L50.7038 41.8605C50.8314 41.7209 50.903 41.5316 50.903 41.3341C50.903 41.1367 50.8314 40.9475 50.7038 40.8078L46.6143 36.3354C46.3486 36.0449 45.9177 36.0449 45.652 36.3354C45.3862 36.6262 45.3862 37.0973 45.652 37.388L49.2603 41.3341L45.7062 45.2211C45.4403 45.5119 45.4403 45.9831 45.7061 46.2737Z" fill="#102B3E"/>
<path fill-rule="evenodd" clip-rule="evenodd" d="M45.3288 36.0627C45.7658 35.5847 46.5004 35.5848 46.9374 36.0626L51.0272 40.5353C51.228 40.7552 51.3332 41.043 51.3332 41.3341C51.3332 41.6252 51.228 41.9132 51.0271 42.1331L46.9916 46.5465C46.7801 46.7777 46.4897 46.9049 46.1872 46.9049C45.8848 46.9049 45.5943 46.7777 45.3829 46.5465C44.9744 46.0998 44.9746 45.3952 45.383 44.9484L48.6878 41.3341L45.3288 37.6607C44.9204 37.214 44.9205 36.5094 45.3288 36.0627ZM45.9752 36.6082C45.852 36.743 45.8521 36.9806 45.9752 37.1152L49.8329 41.3341L46.0294 45.4938C45.9061 45.6287 45.9062 45.8664 46.0292 46.001C46.0835 46.0603 46.1414 46.0784 46.1872 46.0784C46.233 46.0784 46.291 46.0603 46.3452 46.001L50.3805 41.5878C50.4347 41.5285 50.4729 41.4381 50.4729 41.3341C50.4729 41.2303 50.4348 41.1398 50.3804 41.0803L46.2912 36.6082C46.1967 36.505 46.0695 36.5051 45.9752 36.6082Z" fill="#102B3E"/>
<path d="M36.0204 48.7834C36.2948 48.7834 36.5535 48.6005 36.6567 48.3031L41.4923 34.371C41.6256 33.9867 41.4489 33.5569 41.0976 33.411C40.7463 33.2651 40.3532 33.4585 40.2199 33.8427L35.3843 47.7749C35.2509 48.1592 35.4277 48.5889 35.779 48.7348C35.8585 48.7679 35.9401 48.7834 36.0204 48.7834Z" fill="#102B3E"/>
<path fill-rule="evenodd" clip-rule="evenodd" d="M41.2682 33.0317C40.6454 32.773 40.0104 33.1397 39.8118 33.712L41.2682 33.0317ZM39.8118 33.712C39.8118 33.712 39.8118 33.712 39.8118 33.712L39.8118 33.712ZM39.8118 33.712L34.9763 47.6442L39.8118 33.712ZM40.2199 33.8427L40.2197 33.8427L40.2199 33.8427C40.6612 33.8776 40.7205 33.8217 40.773 33.7959L40.628 33.9734L40.6279 33.9735L35.7924 47.9057C35.8341 48.3075 35.7185 48.1186 35.7924 47.9057L35.9496 48.3555C35.9987 48.3702 35.9753 48.3661 35.9498 48.3555C36.1965 48.3225 36.0872 48.3702 36.0204 48.3702L36.2486 48.1724L36.2486 48.1723C41.0842 34.2403 41.0842 34.2403 41.0842 34.2403C41.0425 33.8384 41.1581 34.0273 41.0842 34.2403L40.9269 33.7904C40.8232 33.7712 40.8748 33.7688 40.9268 33.7904M41.4913 34.3707L41.4922 34.371L41.4913 34.3707C42.0931 33.9462 41.8553 33.2755 41.2683 33.0317L41.9003 34.5018L41.9003 34.5018C37.0647 48.4338 37.0647 48.4338 37.0648 48.4337C36.5024 49.1967 36.9104 48.8785 37.0647 48.4338C35.7417 49.1696 35.8814 49.1967 36.0204 49.1967" fill="#102B3E"/>
<path d="M18.9064 24.8501C18.9064 26.0812 19.8222 27.0828 20.948 27.0828C22.0737 27.0828 22.9895 26.0812 22.9895 24.8501C22.9895 23.619 22.0737 22.6174 20.948 22.6174C19.8222 22.6174 18.9064 23.619 18.9064 24.8501ZM21.6285 24.8501C21.6285 25.2605 21.3232 25.5943 20.948 25.5943C20.5727 25.5943 20.2674 25.2605 20.2674 24.8501C20.2674 24.4397 20.5727 24.1059 20.948 24.1059C21.3232 24.1059 21.6285 24.4397 21.6285 24.8501Z" fill="#102B3E"/>
<path d="M23.6469 24.8501C23.6469 26.0812 24.5626 27.0828 25.6884 27.0828C26.8141 27.0828 27.7299 26.0812 27.7299 24.8501C27.7299 23.619 26.8141 22.6174 25.6884 22.6174C24.5626 22.6174 23.6469 23.619 23.6469 24.8501ZM26.3689 24.8501C26.3689 25.2605 26.0636 25.5943 25.6884 25.5943C25.3131 25.5943 25.0079 25.2605 25.0079 24.8501C25.0079 24.4397 25.3131 24.1059 25.6884 24.1059C26.0636 24.1059 26.3689 24.4397 26.3689 24.8501Z" fill="#102B3E"/>
<path d="M29.0193 24.8501C29.0193 26.0812 29.9351 27.0828 31.0608 27.0828C32.1866 27.0828 33.1023 26.0812 33.1023 24.8501C33.1023 23.619 32.1866 22.6174 31.0608 22.6174C29.9351 22.6174 29.0193 23.619 29.0193 24.8501ZM31.7413 24.8501C31.7413 25.2605 31.4361 25.5943 31.0608 25.5943C30.6855 25.5943 30.3803 25.2605 30.3803 24.8501C30.3803 24.4397 30.6855 24.1059 31.0608 24.1059C31.4361 24.1059 31.7413 24.4397 31.7413 24.8501Z" fill="#102B3E"/>
<path d="M101.192 38.8315H91.3486V49H86.2217V24.1172H102.423V28.27H91.3486V34.6958H101.192V38.8315ZM115.018 35.1401C114.346 35.049 113.753 35.0034 113.241 35.0034C111.372 35.0034 110.147 35.6357 109.566 36.9004V49H104.627V30.5088H109.293L109.43 32.7134C110.421 31.0158 111.794 30.167 113.548 30.167C114.095 30.167 114.608 30.241 115.086 30.3892L115.018 35.1401ZM116.026 39.5835C116.026 37.7492 116.38 36.1143 117.086 34.6787C117.792 33.2432 118.806 32.1323 120.128 31.3462C121.461 30.5601 123.005 30.167 124.759 30.167C127.254 30.167 129.288 30.9303 130.86 32.457C132.444 33.9837 133.327 36.0573 133.509 38.6777L133.543 39.9424C133.543 42.7793 132.752 45.0579 131.168 46.7783C129.584 48.4873 127.459 49.3418 124.793 49.3418C122.127 49.3418 119.997 48.4873 118.402 46.7783C116.818 45.0693 116.026 42.7451 116.026 39.8057V39.5835ZM120.965 39.9424C120.965 41.6969 121.296 43.0413 121.957 43.9756C122.617 44.8984 123.563 45.3599 124.793 45.3599C125.99 45.3599 126.924 44.9041 127.596 43.9927C128.268 43.0698 128.604 41.6001 128.604 39.5835C128.604 37.8631 128.268 36.5301 127.596 35.5845C126.924 34.6388 125.978 34.166 124.759 34.166C123.552 34.166 122.617 34.6388 121.957 35.5845C121.296 36.5187 120.965 37.9714 120.965 39.9424ZM141.131 30.5088L141.285 32.645C142.607 30.993 144.378 30.167 146.6 30.167C148.56 30.167 150.018 30.7424 150.975 31.8931C151.932 33.0438 152.422 34.7642 152.445 37.0542V49H147.506V37.1738C147.506 36.1257 147.278 35.368 146.822 34.9009C146.367 34.4224 145.609 34.1831 144.549 34.1831C143.159 34.1831 142.117 34.7756 141.422 35.9604V49H136.483V30.5088H141.131ZM162.118 25.9629V30.5088H165.279V34.1318H162.118V43.3604C162.118 44.0439 162.249 44.5339 162.511 44.8301C162.773 45.1263 163.274 45.2744 164.015 45.2744C164.562 45.2744 165.046 45.2345 165.467 45.1548V48.8975C164.499 49.1937 163.502 49.3418 162.477 49.3418C159.013 49.3418 157.247 47.5929 157.179 44.0952V34.1318H154.479V30.5088H157.179V25.9629H162.118ZM176.542 49.3418C173.83 49.3418 171.62 48.5101 169.911 46.8467C168.213 45.1833 167.364 42.9673 167.364 40.1987V39.7202C167.364 37.8631 167.723 36.2054 168.441 34.7471C169.159 33.2773 170.173 32.1494 171.483 31.3633C172.805 30.5658 174.308 30.167 175.995 30.167C178.524 30.167 180.512 30.9645 181.959 32.5596C183.417 34.1546 184.146 36.4162 184.146 39.3442V41.3608H172.372C172.531 42.5685 173.01 43.5369 173.807 44.2661C174.616 44.9953 175.636 45.3599 176.866 45.3599C178.769 45.3599 180.256 44.6706 181.327 43.292L183.753 46.0093C183.013 47.0575 182.01 47.8778 180.746 48.4702C179.481 49.0513 178.08 49.3418 176.542 49.3418ZM175.978 34.166C174.998 34.166 174.2 34.4964 173.585 35.1572C172.981 35.818 172.594 36.7637 172.423 37.9941H179.293V37.6011C179.27 36.5073 178.974 35.6642 178.404 35.0718C177.835 34.4679 177.026 34.166 175.978 34.166ZM191.512 30.5088L191.666 32.645C192.988 30.993 194.759 30.167 196.981 30.167C198.941 30.167 200.399 30.7424 201.356 31.8931C202.313 33.0438 202.803 34.7642 202.826 37.0542V49H197.887V37.1738C197.887 36.1257 197.659 35.368 197.203 34.9009C196.747 34.4224 195.99 34.1831 194.93 34.1831C193.54 34.1831 192.498 34.7756 191.803 35.9604V49H186.864V30.5088H191.512ZM205.816 39.6177C205.816 36.7352 206.46 34.4395 207.748 32.7305C209.046 31.0215 210.818 30.167 213.062 30.167C214.863 30.167 216.349 30.8392 217.523 32.1836V22.75H222.479V49H218.019L217.779 47.0347C216.549 48.5728 214.965 49.3418 213.028 49.3418C210.852 49.3418 209.103 48.4873 207.782 46.7783C206.472 45.0579 205.816 42.6711 205.816 39.6177ZM210.755 39.9766C210.755 41.7083 211.057 43.0356 211.661 43.9585C212.265 44.8813 213.142 45.3428 214.293 45.3428C215.82 45.3428 216.896 44.6991 217.523 43.4116V36.1143C216.908 34.8268 215.842 34.1831 214.327 34.1831C211.946 34.1831 210.755 36.1143 210.755 39.9766Z" fill="#102B3E"/>
</svg>
