<svg width="128" height="50" viewBox="0 0 128 50" fill="none" xmlns="http://www.w3.org/2000/svg">
<g clip-path="url(#clip0)">
<rect width="128" height="50" fill="#E9E9E9"/>
<path d="M61.86 17.3C60.9533 17.62 60.26 18.1267 59.78 18.82C59.3133 19.5 59.08 20.3267 59.08 21.3C59.08 21.7267 59.1267 22.12 59.22 22.48C59.3133 22.8267 59.4467 23.1133 59.62 23.34C58.7667 23.34 58.1333 23.1667 57.72 22.82C57.32 22.46 57.12 21.9133 57.12 21.18C57.12 20.2467 57.3933 19.38 57.94 18.58C58.4867 17.7667 59.2267 17.12 60.16 16.64C61.0933 16.16 62.1067 15.92 63.2 15.92C63.5067 15.92 63.7733 15.94 64 15.98C64.2267 16.02 64.4867 16.0933 64.78 16.2L67.18 26.9L69.42 16.04H71.36L68.1 31H65.34L63.02 21.08L60.74 31H58.84L61.86 17.3ZM73.2194 31.12C72.2327 31.12 71.466 30.8667 70.9194 30.36C70.3727 29.84 70.0994 29.0333 70.0994 27.94C70.0994 27.02 70.2794 26.0067 70.6394 24.9C70.9994 23.7933 71.586 22.84 72.3994 22.04C73.2127 21.2267 74.246 20.82 75.4994 20.82C76.966 20.82 77.6994 21.46 77.6994 22.74C77.6994 23.4867 77.486 24.1733 77.0594 24.8C76.6327 25.4267 76.066 25.9333 75.3594 26.32C74.6527 26.6933 73.8994 26.9067 73.0994 26.96C73.0727 27.36 73.0594 27.6267 73.0594 27.76C73.0594 28.4133 73.1727 28.86 73.3994 29.1C73.626 29.3267 73.9927 29.44 74.4994 29.44C75.2194 29.44 75.8327 29.2733 76.3394 28.94C76.8594 28.6067 77.426 28.1 78.0394 27.42H78.7194C77.2394 29.8867 75.406 31.12 73.2194 31.12ZM73.2594 26C73.7527 25.9733 74.2194 25.8 74.6594 25.48C75.1127 25.16 75.4727 24.7533 75.7394 24.26C76.0194 23.7667 76.1594 23.2467 76.1594 22.7C76.1594 22.1533 75.9927 21.88 75.6594 21.88C75.1794 21.88 74.706 22.3 74.2394 23.14C73.786 23.98 73.4594 24.9333 73.2594 26ZM79.9152 31.12C79.2352 31.12 78.7285 30.9133 78.3952 30.5C78.0752 30.0867 77.9152 29.54 77.9152 28.86C77.9152 28.5133 77.9552 28.16 78.0352 27.8L79.3152 21.8H78.6552L78.8152 21H79.4752L80.0752 18.24L83.0352 17.84C82.9152 18.3467 82.8485 18.6467 82.8352 18.74C82.7418 19.1133 82.5818 19.8667 82.3552 21H83.5552L83.3952 21.8H82.1952L80.9152 27.8C80.8485 28.0933 80.8152 28.3267 80.8152 28.5C80.8152 28.98 81.0485 29.22 81.5152 29.22C81.7552 29.22 81.9285 29.2 82.0352 29.16C81.7685 29.9333 81.4552 30.4533 81.0952 30.72C80.7352 30.9867 80.3418 31.12 79.9152 31.12ZM88.2025 17.64C87.3625 17.6667 86.7158 17.9867 86.2625 18.6C85.8225 19.2133 85.6025 20.2733 85.6025 21.78C85.6025 22.2733 85.6492 22.62 85.7425 22.82C85.8358 23.0067 85.8825 23.1133 85.8825 23.14C85.1625 23.14 84.6225 22.9933 84.2625 22.7C83.9158 22.3933 83.7425 21.8933 83.7425 21.2C83.7425 20.2533 83.9758 19.3933 84.4425 18.62C84.9092 17.8333 85.6492 17.2 86.6625 16.72C87.6892 16.24 88.9892 16 90.5625 16C90.8825 16 91.3092 16.0333 91.8425 16.1C92.8025 16.1933 93.4825 16.24 93.8825 16.24C94.5892 16.24 95.1892 16.16 95.6825 16C95.6425 16.12 95.5692 16.3867 95.4625 16.8C95.3558 17.2 95.1625 17.5467 94.8825 17.84C94.6158 18.12 94.2492 18.3067 93.7825 18.4C92.9958 18.4 92.0625 18.2733 90.9825 18.02L90.1425 22H93.0625L92.7425 23.48H89.8225L88.2025 31H85.3225L88.2025 17.64ZM95.1422 31.12C94.3822 31.12 93.7489 30.86 93.2422 30.34C92.7355 29.82 92.4822 29.0067 92.4822 27.9C92.4822 26.9133 92.6755 25.88 93.0622 24.8C93.4622 23.7067 94.0489 22.7867 94.8222 22.04C95.6089 21.28 96.5422 20.9 97.6222 20.9C98.1689 20.9 98.5755 20.9933 98.8422 21.18C99.1089 21.3667 99.2422 21.6133 99.2422 21.92V22.06L99.4622 21H102.342L100.902 27.8C100.849 28 100.822 28.2133 100.822 28.44C100.822 29.0133 101.096 29.3 101.642 29.3C102.016 29.3 102.336 29.1267 102.602 28.78C102.882 28.4333 103.102 27.98 103.262 27.42H104.102C103.609 28.86 102.996 29.84 102.262 30.36C101.542 30.8667 100.816 31.12 100.082 31.12C99.5222 31.12 99.0689 30.9667 98.7222 30.66C98.3889 30.34 98.1889 29.88 98.1222 29.28C97.7355 29.8267 97.3022 30.2733 96.8222 30.62C96.3555 30.9533 95.7955 31.12 95.1422 31.12ZM96.4422 29.18C96.7755 29.18 97.1022 29.0267 97.4222 28.72C97.7555 28.4 97.9822 27.9667 98.1022 27.42L99.0622 22.9C99.0622 22.7267 98.9955 22.56 98.8622 22.4C98.7289 22.2267 98.5222 22.14 98.2422 22.14C97.7089 22.14 97.2289 22.4533 96.8022 23.08C96.3755 23.6933 96.0422 24.44 95.8022 25.32C95.5622 26.1867 95.4422 26.9533 95.4422 27.62C95.4422 28.2867 95.5355 28.7133 95.7222 28.9C95.9222 29.0867 96.1622 29.18 96.4422 29.18ZM105.55 31.12C104.91 31.12 104.37 31 103.93 30.76C103.49 30.5067 103.163 30.1867 102.95 29.8C102.736 29.4 102.63 28.9867 102.63 28.56C102.63 28.12 102.736 27.74 102.95 27.42C103.15 27.0867 103.396 26.8467 103.69 26.7C104.21 25.7667 104.663 24.8267 105.05 23.88C105.436 22.92 105.803 21.8867 106.15 20.78L109.11 20.38C109.176 22.0867 109.29 23.9333 109.45 25.92C109.516 26.72 109.55 27.3 109.55 27.66C109.55 27.9667 109.523 28.22 109.47 28.42C110.096 28.06 110.576 27.7267 110.91 27.42H111.75C110.896 28.4067 109.876 29.24 108.69 29.92C108.303 30.3333 107.823 30.64 107.25 30.84C106.69 31.0267 106.123 31.12 105.55 31.12ZM104.91 29.54C105.403 29.54 105.816 29.3933 106.15 29.1C106.483 28.8067 106.65 28.3333 106.65 27.68C106.65 27.28 106.61 26.72 106.53 26C106.396 24.48 106.31 23.46 106.27 22.94C105.95 23.9933 105.41 25.2533 104.65 26.72C104.956 26.88 105.11 27.1133 105.11 27.42C105.11 27.6733 105.023 27.9 104.85 28.1C104.69 28.3 104.483 28.4 104.23 28.4C103.95 28.4 103.77 28.3133 103.69 28.14C103.69 28.62 103.783 28.9733 103.97 29.2C104.17 29.4267 104.483 29.54 104.91 29.54ZM112.786 31.12C112.106 31.12 111.6 30.9133 111.266 30.5C110.946 30.0867 110.786 29.54 110.786 28.86C110.786 28.5133 110.826 28.16 110.906 27.8L112.186 21.8H111.526L111.686 21H112.346L112.946 18.24L115.906 17.84C115.786 18.3467 115.72 18.6467 115.706 18.74C115.613 19.1133 115.453 19.8667 115.226 21H116.426L116.266 21.8H115.066L113.786 27.8C113.72 28.0933 113.686 28.3267 113.686 28.5C113.686 28.98 113.92 29.22 114.386 29.22C114.626 29.22 114.8 29.2 114.906 29.16C114.64 29.9333 114.326 30.4533 113.966 30.72C113.606 30.9867 113.213 31.12 112.786 31.12Z" fill="#3C6BB1"/>
<rect x="1" y="1" width="48" height="48" rx="4" fill="#C4C4C4" stroke="#3C6BB1" stroke-width="2"/>
<path d="M13.72 10.6C11.9067 11.24 10.52 12.2533 9.56 13.64C8.62667 15 8.16 16.6533 8.16 18.6C8.16 19.4533 8.25333 20.24 8.44 20.96C8.62667 21.6533 8.89333 22.2267 9.24 22.68C7.53333 22.68 6.26667 22.3333 5.44 21.64C4.64 20.92 4.24 19.8267 4.24 18.36C4.24 16.4933 4.78667 14.76 5.88 13.16C6.97333 11.5333 8.45333 10.24 10.32 9.28C12.1867 8.32 14.2133 7.84 16.4 7.84C17.0133 7.84 17.5467 7.88 18 7.96C18.4533 8.04 18.9733 8.18667 19.56 8.4L24.36 29.8L28.84 8.08H32.72L26.2 38H20.68L16.04 18.16L11.48 38H7.68L13.72 10.6Z" fill="#3C6BB1"/>
<path d="M33.28 19.28C31.6 19.3333 30.3067 19.9733 29.4 21.2C28.52 22.4267 28.08 24.5467 28.08 27.56C28.08 28.5467 28.1733 29.24 28.36 29.64C28.5467 30.0133 28.64 30.2267 28.64 30.28C27.2 30.28 26.12 29.9867 25.4 29.4C24.7067 28.7867 24.36 27.7867 24.36 26.4C24.36 24.5067 24.8267 22.7867 25.76 21.24C26.6933 19.6667 28.1733 18.4 30.2 17.44C32.2533 16.48 34.8533 16 38 16C38.64 16 39.4933 16.0667 40.56 16.2C42.48 16.3867 43.84 16.48 44.64 16.48C46.0533 16.48 47.2533 16.32 48.24 16C48.16 16.24 48.0133 16.7733 47.8 17.6C47.5867 18.4 47.2 19.0933 46.64 19.68C46.1067 20.24 45.3733 20.6133 44.44 20.8C42.8667 20.8 41 20.5467 38.84 20.04L37.16 28H43L42.36 30.96H36.52L33.28 46H27.52L33.28 19.28Z" fill="#3C6BB1"/>
</g>
<defs>
<clipPath id="clip0">
<rect width="128" height="50" fill="white"/>
</clipPath>
</defs>
</svg>
