<svg width="128" height="50" viewBox="0 0 128 50" fill="none" xmlns="http://www.w3.org/2000/svg">
<g clip-path="url(#clip0)">
<path d="M62.86 17.3C61.9533 17.62 61.26 18.1267 60.78 18.82C60.3133 19.5 60.08 20.3267 60.08 21.3C60.08 21.7267 60.1267 22.12 60.22 22.48C60.3133 22.8267 60.4467 23.1133 60.62 23.34C59.7667 23.34 59.1333 23.1667 58.72 22.82C58.32 22.46 58.12 21.9133 58.12 21.18C58.12 20.2467 58.3933 19.38 58.94 18.58C59.4867 17.7667 60.2267 17.12 61.16 16.64C62.0933 16.16 63.1067 15.92 64.2 15.92C64.5067 15.92 64.7733 15.94 65 15.98C65.2267 16.02 65.4867 16.0933 65.78 16.2L68.18 26.9L70.42 16.04H72.36L69.1 31H66.34L64.02 21.08L61.74 31H59.84L62.86 17.3ZM74.2194 31.12C73.2327 31.12 72.466 30.8667 71.9194 30.36C71.3727 29.84 71.0994 29.0333 71.0994 27.94C71.0994 27.02 71.2794 26.0067 71.6394 24.9C71.9994 23.7933 72.586 22.84 73.3994 22.04C74.2127 21.2267 75.246 20.82 76.4994 20.82C77.966 20.82 78.6994 21.46 78.6994 22.74C78.6994 23.4867 78.486 24.1733 78.0594 24.8C77.6327 25.4267 77.066 25.9333 76.3594 26.32C75.6527 26.6933 74.8994 26.9067 74.0994 26.96C74.0727 27.36 74.0594 27.6267 74.0594 27.76C74.0594 28.4133 74.1727 28.86 74.3994 29.1C74.626 29.3267 74.9927 29.44 75.4994 29.44C76.2194 29.44 76.8327 29.2733 77.3394 28.94C77.8594 28.6067 78.426 28.1 79.0394 27.42H79.7194C78.2394 29.8867 76.406 31.12 74.2194 31.12ZM74.2594 26C74.7527 25.9733 75.2194 25.8 75.6594 25.48C76.1127 25.16 76.4727 24.7533 76.7394 24.26C77.0194 23.7667 77.1594 23.2467 77.1594 22.7C77.1594 22.1533 76.9927 21.88 76.6594 21.88C76.1794 21.88 75.706 22.3 75.2394 23.14C74.786 23.98 74.4594 24.9333 74.2594 26ZM80.9152 31.12C80.2352 31.12 79.7285 30.9133 79.3952 30.5C79.0752 30.0867 78.9152 29.54 78.9152 28.86C78.9152 28.5133 78.9552 28.16 79.0352 27.8L80.3152 21.8H79.6552L79.8152 21H80.4752L81.0752 18.24L84.0352 17.84C83.9152 18.3467 83.8485 18.6467 83.8352 18.74C83.7418 19.1133 83.5818 19.8667 83.3552 21H84.5552L84.3952 21.8H83.1952L81.9152 27.8C81.8485 28.0933 81.8152 28.3267 81.8152 28.5C81.8152 28.98 82.0485 29.22 82.5152 29.22C82.7552 29.22 82.9285 29.2 83.0352 29.16C82.7685 29.9333 82.4552 30.4533 82.0952 30.72C81.7352 30.9867 81.3418 31.12 80.9152 31.12ZM89.2025 17.64C88.3625 17.6667 87.7158 17.9867 87.2625 18.6C86.8225 19.2133 86.6025 20.2733 86.6025 21.78C86.6025 22.2733 86.6492 22.62 86.7425 22.82C86.8358 23.0067 86.8825 23.1133 86.8825 23.14C86.1625 23.14 85.6225 22.9933 85.2625 22.7C84.9158 22.3933 84.7425 21.8933 84.7425 21.2C84.7425 20.2533 84.9758 19.3933 85.4425 18.62C85.9092 17.8333 86.6492 17.2 87.6625 16.72C88.6892 16.24 89.9892 16 91.5625 16C91.8825 16 92.3092 16.0333 92.8425 16.1C93.8025 16.1933 94.4825 16.24 94.8825 16.24C95.5892 16.24 96.1892 16.16 96.6825 16C96.6425 16.12 96.5692 16.3867 96.4625 16.8C96.3558 17.2 96.1625 17.5467 95.8825 17.84C95.6158 18.12 95.2492 18.3067 94.7825 18.4C93.9958 18.4 93.0625 18.2733 91.9825 18.02L91.1425 22H94.0625L93.7425 23.48H90.8225L89.2025 31H86.3225L89.2025 17.64ZM96.1422 31.12C95.3822 31.12 94.7489 30.86 94.2422 30.34C93.7355 29.82 93.4822 29.0067 93.4822 27.9C93.4822 26.9133 93.6755 25.88 94.0622 24.8C94.4622 23.7067 95.0489 22.7867 95.8222 22.04C96.6089 21.28 97.5422 20.9 98.6222 20.9C99.1689 20.9 99.5755 20.9933 99.8422 21.18C100.109 21.3667 100.242 21.6133 100.242 21.92V22.06L100.462 21H103.342L101.902 27.8C101.849 28 101.822 28.2133 101.822 28.44C101.822 29.0133 102.096 29.3 102.642 29.3C103.016 29.3 103.336 29.1267 103.602 28.78C103.882 28.4333 104.102 27.98 104.262 27.42H105.102C104.609 28.86 103.996 29.84 103.262 30.36C102.542 30.8667 101.816 31.12 101.082 31.12C100.522 31.12 100.069 30.9667 99.7222 30.66C99.3889 30.34 99.1889 29.88 99.1222 29.28C98.7355 29.8267 98.3022 30.2733 97.8222 30.62C97.3555 30.9533 96.7955 31.12 96.1422 31.12ZM97.4422 29.18C97.7755 29.18 98.1022 29.0267 98.4222 28.72C98.7555 28.4 98.9822 27.9667 99.1022 27.42L100.062 22.9C100.062 22.7267 99.9955 22.56 99.8622 22.4C99.7289 22.2267 99.5222 22.14 99.2422 22.14C98.7089 22.14 98.2289 22.4533 97.8022 23.08C97.3755 23.6933 97.0422 24.44 96.8022 25.32C96.5622 26.1867 96.4422 26.9533 96.4422 27.62C96.4422 28.2867 96.5355 28.7133 96.7222 28.9C96.9222 29.0867 97.1622 29.18 97.4422 29.18ZM106.55 31.12C105.91 31.12 105.37 31 104.93 30.76C104.49 30.5067 104.163 30.1867 103.95 29.8C103.736 29.4 103.63 28.9867 103.63 28.56C103.63 28.12 103.736 27.74 103.95 27.42C104.15 27.0867 104.396 26.8467 104.69 26.7C105.21 25.7667 105.663 24.8267 106.05 23.88C106.436 22.92 106.803 21.8867 107.15 20.78L110.11 20.38C110.176 22.0867 110.29 23.9333 110.45 25.92C110.516 26.72 110.55 27.3 110.55 27.66C110.55 27.9667 110.523 28.22 110.47 28.42C111.096 28.06 111.576 27.7267 111.91 27.42H112.75C111.896 28.4067 110.876 29.24 109.69 29.92C109.303 30.3333 108.823 30.64 108.25 30.84C107.69 31.0267 107.123 31.12 106.55 31.12ZM105.91 29.54C106.403 29.54 106.816 29.3933 107.15 29.1C107.483 28.8067 107.65 28.3333 107.65 27.68C107.65 27.28 107.61 26.72 107.53 26C107.396 24.48 107.31 23.46 107.27 22.94C106.95 23.9933 106.41 25.2533 105.65 26.72C105.956 26.88 106.11 27.1133 106.11 27.42C106.11 27.6733 106.023 27.9 105.85 28.1C105.69 28.3 105.483 28.4 105.23 28.4C104.95 28.4 104.77 28.3133 104.69 28.14C104.69 28.62 104.783 28.9733 104.97 29.2C105.17 29.4267 105.483 29.54 105.91 29.54ZM113.786 31.12C113.106 31.12 112.6 30.9133 112.266 30.5C111.946 30.0867 111.786 29.54 111.786 28.86C111.786 28.5133 111.826 28.16 111.906 27.8L113.186 21.8H112.526L112.686 21H113.346L113.946 18.24L116.906 17.84C116.786 18.3467 116.72 18.6467 116.706 18.74C116.613 19.1133 116.453 19.8667 116.226 21H117.426L117.266 21.8H116.066L114.786 27.8C114.72 28.0933 114.686 28.3267 114.686 28.5C114.686 28.98 114.92 29.22 115.386 29.22C115.626 29.22 115.8 29.2 115.906 29.16C115.64 29.9333 115.326 30.4533 114.966 30.72C114.606 30.9867 114.213 31.12 113.786 31.12Z" fill="white"/>
<rect x="1" y="1" width="48" height="48" rx="4" fill="#3D6EB6" stroke="#FDFDFD" stroke-width="2"/>
<path d="M12.72 9.6C10.9067 10.24 9.52 11.2533 8.56 12.64C7.62667 14 7.16 15.6533 7.16 17.6C7.16 18.4533 7.25333 19.24 7.44 19.96C7.62667 20.6533 7.89333 21.2267 8.24 21.68C6.53333 21.68 5.26667 21.3333 4.44 20.64C3.64 19.92 3.24 18.8267 3.24 17.36C3.24 15.4933 3.78667 13.76 4.88 12.16C5.97333 10.5333 7.45333 9.24 9.32 8.28C11.1867 7.32 13.2133 6.84 15.4 6.84C16.0133 6.84 16.5467 6.88 17 6.96C17.4533 7.04 17.9733 7.18667 18.56 7.4L23.36 28.8L27.84 7.08H31.72L25.2 37H19.68L15.04 17.16L10.48 37H6.68L12.72 9.6Z" fill="white"/>
<path d="M32.28 17.28C30.6 17.3333 29.3067 17.9733 28.4 19.2C27.52 20.4267 27.08 22.5467 27.08 25.56C27.08 26.5467 27.1733 27.24 27.36 27.64C27.5467 28.0133 27.64 28.2267 27.64 28.28C26.2 28.28 25.12 27.9867 24.4 27.4C23.7067 26.7867 23.36 25.7867 23.36 24.4C23.36 22.5067 23.8267 20.7867 24.76 19.24C25.6933 17.6667 27.1733 16.4 29.2 15.44C31.2533 14.48 33.8533 14 37 14C37.64 14 38.4933 14.0667 39.56 14.2C41.48 14.3867 42.84 14.48 43.64 14.48C45.0533 14.48 46.2533 14.32 47.24 14C47.16 14.24 47.0133 14.7733 46.8 15.6C46.5867 16.4 46.2 17.0933 45.64 17.68C45.1067 18.24 44.3733 18.6133 43.44 18.8C41.8667 18.8 40 18.5467 37.84 18.04L36.16 26H42L41.36 28.96H35.52L32.28 44H26.52L32.28 17.28Z" fill="white"/>
</g>
<defs>
<clipPath id="clip0">
<rect width="128" height="50" fill="white"/>
</clipPath>
</defs>
</svg>
