<svg width="1762" height="1473" viewBox="0 0 1762 1473" fill="none" xmlns="http://www.w3.org/2000/svg">
<path d="M276.704 87.0229C227.851 87.0229 188.25 126.626 188.25 175.477L188.247 982.813H1426.66L1426.65 175.477C1426.65 126.623 1387.05 87.0229 1338.2 87.0229H276.704V87.0229Z" fill="#CFD7E6"/>
<path d="M276.702 982.815V219.712C276.702 195.287 296.503 175.482 320.932 175.482H1293.98C1318.4 175.482 1338.21 195.284 1338.21 219.712V982.815H276.702Z" fill="#8DB5FF"/>
<path d="M1426.65 175.477C1426.65 126.623 1387.05 87.0229 1338.2 87.0229H1276.8C1325.65 87.0229 1365.25 126.626 1365.25 175.477L1365.26 982.815H1426.66L1426.65 175.477Z" fill="#B4C2DB"/>
<path d="M1293.97 175.482H1232.56C1256.99 175.482 1276.79 195.284 1276.79 219.712V982.815H1338.2V219.712C1338.2 195.284 1318.4 175.482 1293.97 175.482V175.482Z" fill="#7784FF"/>
<path d="M144.023 971.596V1015.83C144.023 1064.69 183.626 1104.29 232.477 1104.29H1382.42C1431.28 1104.29 1470.88 1064.69 1470.88 1015.83V971.596C1470.88 947.168 1451.08 927.367 1426.65 927.367H188.25C163.825 927.367 144.023 947.168 144.023 971.596V971.596Z" fill="#F3F5F9"/>
<path d="M1426.65 927.367H1365.03C1389.46 927.367 1409.26 947.168 1409.26 971.596V1015.83C1409.26 1064.69 1369.66 1104.29 1320.8 1104.29H1382.43C1431.28 1104.29 1470.88 1064.69 1470.88 1015.83V971.596C1470.88 947.168 1451.08 927.367 1426.65 927.367Z" fill="#CFD7E6"/>
<path d="M1072.82 529.309V286.052C1072.82 273.837 1062.92 263.938 1050.71 263.938H696.878C684.664 263.938 674.764 273.84 674.764 286.052V507.195C674.764 519.409 684.666 529.309 696.878 529.309H1072.82Z" fill="#F3F5F9"/>
<path d="M497.848 573.539C546.701 573.539 586.305 533.935 586.305 485.082C586.305 436.228 546.701 396.625 497.848 396.625C448.995 396.625 409.391 436.228 409.391 485.082C409.391 533.935 448.995 573.539 497.848 573.539Z" fill="#FFD9B3"/>
<path d="M497.848 396.624C487.051 396.624 476.711 398.564 467.146 402.105C500.865 414.586 524.9 447.023 524.9 485.08C524.9 523.138 500.865 555.575 467.146 568.056C476.711 571.596 487.051 573.537 497.848 573.537C546.702 573.537 586.305 533.934 586.305 485.08C586.305 436.227 546.704 396.624 497.848 396.624V396.624Z" fill="#FFBB99"/>
<path d="M419.464 599.155C386.538 623.3 365.161 662.265 365.161 706.225V816.798C365.161 829.012 375.061 838.912 387.275 838.912H608.418C620.633 838.912 630.532 829.012 630.532 816.798V708.409C630.532 664.088 609.137 624.176 575.968 599.472L419.464 599.155Z" fill="#68D9C0"/>
<path d="M575.922 599.488L514.312 599.354C547.615 624.036 569.13 663.989 569.13 708.411V816.8C569.13 829.015 559.231 838.914 547.017 838.914H608.421C620.635 838.914 630.535 829.012 630.535 816.8V708.411C630.535 664.077 609.104 624.189 575.922 599.488V599.488Z" fill="#4FC6B9"/>
<path d="M1050.71 263.936H989.306C1001.52 263.936 1011.42 273.838 1011.42 286.05V529.307H1072.82V286.052C1072.82 273.838 1062.92 263.936 1050.71 263.936V263.936Z" fill="#CFD7E6"/>
<path d="M525.48 639.893L575.957 599.511C554.671 583.655 528.558 574.033 500.117 573.558C469.893 573.053 441.933 582.659 419.392 599.212L419.389 599.23L470.219 639.893C486.373 652.815 509.325 652.815 525.48 639.893V639.893Z" fill="#F3F5F9"/>
<path d="M467.002 577.149C466.994 577.151 466.986 577.159 466.975 577.162C497.378 584.461 523.603 602.434 541.878 626.774L575.954 599.51C554.668 583.655 528.556 574.033 500.115 573.558C488.699 573.368 477.603 574.623 467.002 577.149V577.149Z" fill="#CFD7E6"/>
<path d="M962.251 954.028H1183.39V1033.4H962.251V954.028Z" fill="#FFD9B3"/>
<path d="M1121.99 954.025H1183.39V1033.4H1121.99V954.025Z" fill="#FFBB99"/>
<path d="M1277.45 878.716C1258.79 924.099 1225.48 961.91 1183.4 986.253L961.909 986.05C919.986 961.697 886.801 923.962 868.198 878.697L1072.83 664.14L1277.45 878.716Z" fill="#FFD9B3"/>
<path d="M1072.83 664.135L1041.79 696.674L1215.39 878.716C1196.75 924.068 1163.47 961.852 1121.43 986.195L1183.4 986.251C1225.48 961.909 1258.8 924.1 1277.45 878.714L1072.83 664.135Z" fill="#FFBB99"/>
<path d="M1382.42 794.685C1406.85 794.685 1426.65 774.884 1426.65 750.456V661.999C1426.65 637.573 1406.85 617.769 1382.42 617.769H763.221C738.796 617.769 718.991 637.571 718.991 661.999V750.456C718.991 774.881 738.793 794.685 763.221 794.685H1382.42Z" fill="#FFBB99"/>
<path d="M1382.42 617.769H1322.45C1346.87 617.769 1366.68 637.571 1366.68 661.999V750.456C1366.68 774.881 1346.87 794.685 1322.45 794.685H1382.42C1406.85 794.685 1426.65 774.884 1426.65 750.456V661.999C1426.65 637.571 1406.85 617.769 1382.42 617.769V617.769Z" fill="#FFA27D"/>
<path d="M918.024 1122.89V1104.29L935.951 1032.58C938.413 1022.73 947.258 1015.83 957.405 1015.83H1188.25C1198.39 1015.83 1207.24 1022.74 1209.7 1032.58L1227.63 1104.29V1122.89H918.024Z" fill="#CFD7E6"/>
<path d="M1209.7 1032.58C1207.24 1022.73 1198.39 1015.83 1188.24 1015.83H1126.84C1136.99 1015.83 1145.83 1022.74 1148.29 1032.58L1166.22 1104.29V1122.89H1227.62V1104.29L1209.7 1032.58Z" fill="#B4C2DB"/>
<path d="M1271.86 1104.29C1369.56 1104.29 1448.77 1183.5 1448.77 1281.2V1369.66C1448.77 1394.09 1428.97 1413.89 1404.54 1413.89H741.11C716.682 1413.89 696.88 1394.09 696.88 1369.66V1281.2C696.88 1183.5 776.084 1104.29 873.786 1104.29H1271.86Z" fill="#68D9C0"/>
<path d="M1338.2 794.687V529.313C1338.2 431.606 1258.99 352.397 1161.28 352.397H984.367C886.66 352.397 807.451 431.606 807.451 529.313V794.687C807.451 843.54 847.054 883.144 895.908 883.144H1249.74C1298.59 883.144 1338.2 843.54 1338.2 794.687V794.687Z" fill="#595353"/>
<path d="M1271.86 1104.29H1210.46C1308.16 1104.29 1387.36 1183.5 1387.36 1281.2V1369.66C1387.36 1394.09 1367.56 1413.89 1343.13 1413.89H1404.54C1428.97 1413.89 1448.77 1394.09 1448.77 1369.66V1281.2C1448.77 1183.5 1369.56 1104.29 1271.86 1104.29V1104.29Z" fill="#4FC6B9"/>
<path d="M1161.28 352.397H1099.88C1197.59 352.397 1276.8 431.606 1276.8 529.313V794.687C1276.8 843.54 1237.19 883.144 1188.34 883.144H1249.74C1298.6 883.144 1338.2 843.54 1338.2 794.687V529.313C1338.2 431.606 1258.99 352.397 1161.28 352.397Z" fill="#403939"/>
<path d="M1490.9 1015.83V971.597C1490.9 943.162 1472.33 918.995 1446.68 910.559L1446.68 175.477C1446.68 115.664 1398.01 67 1338.2 67H276.704C216.889 67 168.224 115.664 168.224 175.477L168.222 910.556C142.573 918.995 124 943.159 124 971.597V1015.83C124 1075.65 172.662 1124.31 232.477 1124.31H325.118C336.178 1124.31 345.141 1115.35 345.141 1104.29C345.141 1093.23 336.178 1084.27 325.118 1084.27H232.477C194.743 1084.27 164.046 1053.57 164.046 1015.83V971.597C164.046 958.248 174.904 947.391 188.25 947.391H659.13L669.075 987.183C676.241 1015.84 701.873 1035.85 731.411 1035.85H883.491C895.633 1035.85 907.089 1032.43 916.9 1026.45C916.78 1026.88 916.633 1027.29 916.524 1027.72L902.39 1084.27H405.21C394.149 1084.27 385.187 1093.23 385.187 1104.29C385.187 1115.35 394.149 1124.32 405.21 1124.32H754.929C707.536 1160.31 676.857 1217.23 676.857 1281.2V1369.66C676.857 1405.09 705.683 1433.92 741.11 1433.92H1225.53C1236.59 1433.92 1245.56 1424.95 1245.56 1413.89C1245.56 1402.83 1236.59 1393.87 1225.53 1393.87H741.11C727.762 1393.87 716.904 1383.01 716.904 1369.66V1281.2C716.904 1194.7 787.278 1124.32 873.786 1124.32H1271.86C1358.36 1124.32 1428.74 1194.7 1428.74 1281.2V1369.66C1428.74 1383.01 1417.89 1393.87 1404.54 1393.87H1305.63C1294.57 1393.87 1285.61 1402.83 1285.61 1413.89C1285.61 1424.95 1294.57 1433.92 1305.63 1433.92H1404.54C1439.97 1433.92 1468.79 1405.09 1468.79 1369.66V1281.2C1468.79 1217.05 1437.94 1159.97 1390.31 1124C1446.46 1119.94 1490.9 1072.99 1490.9 1015.83V1015.83ZM1286.05 907.344C1288.31 903.091 1290.46 898.78 1292.45 894.391C1301.77 890.383 1310.42 885.105 1318.18 878.781V907.347H1286.05V907.344ZM1194.41 954.887C1191.25 952.799 1187.47 951.577 1183.4 951.577C1172.34 951.577 1163.37 960.539 1163.37 971.6V995.804H982.277V971.597C982.277 960.539 973.315 951.574 962.254 951.574C958.182 951.574 954.399 952.797 951.238 954.885C932.446 940.569 916.273 922.986 903.519 903.166H1242.14C1229.39 922.992 1213.21 940.569 1194.41 954.887V954.887ZM296.725 907.344V219.712C296.725 206.364 307.583 195.506 320.929 195.506H1293.97C1307.32 195.506 1318.18 206.364 1318.18 219.712V410.453C1282.18 363.054 1225.26 332.373 1161.28 332.373H1092.84V286.053C1092.84 262.818 1073.94 243.916 1050.71 243.916H696.878C673.643 243.916 654.741 262.818 654.741 286.053V507.194C654.741 530.429 673.643 549.333 696.878 549.333L787.431 549.331V597.747H763.224C727.796 597.747 698.974 626.572 698.974 661.999V750.456C698.974 785.887 727.796 814.707 763.224 814.707H789.315C796.043 850.599 820.482 880.318 853.202 894.388C855.199 898.777 857.354 903.086 859.61 907.342H296.725V907.344ZM1249.74 863.12H895.91C858.176 863.12 827.477 832.42 827.477 794.683V529.313C827.477 442.802 897.857 372.42 984.37 372.42H1161.29C1247.8 372.42 1318.18 442.8 1318.18 529.313V794.633C1318.18 794.651 1318.18 794.667 1318.18 794.683C1318.18 794.694 1318.18 794.708 1318.18 794.718C1318.16 832.439 1287.46 863.12 1249.74 863.12V863.12ZM763.224 774.66C749.878 774.66 739.02 763.802 739.02 750.456V661.999C739.02 648.651 749.878 637.793 763.224 637.793H787.431V774.663H763.224V774.66ZM1052.8 332.373H984.367C882.535 332.373 798.51 410.063 788.442 509.284L696.878 509.287C695.725 509.287 694.787 508.347 694.787 507.194V286.053C694.787 284.9 695.727 283.963 696.878 283.963H1050.71C1051.86 283.963 1052.8 284.902 1052.8 286.053V332.373ZM1358.23 637.793H1382.42C1395.77 637.793 1406.63 648.651 1406.63 661.999V750.456C1406.63 763.802 1395.77 774.66 1382.42 774.66H1358.23V637.793ZM942.228 998.655C942.022 998.735 941.819 998.815 941.617 998.898C941.814 998.476 942.041 998.076 942.228 997.649V998.655ZM1358.23 814.707H1382.42C1390.99 814.707 1399.16 813.009 1406.63 809.957V907.342H1358.22V814.707H1358.23ZM276.704 107.046H1338.2C1375.93 107.046 1406.63 137.743 1406.63 175.477L1406.63 602.496C1399.16 599.442 1390.99 597.747 1382.43 597.747H1358.23V219.712C1358.23 184.282 1329.41 155.46 1293.98 155.46H320.932C285.501 155.46 256.681 184.285 256.681 219.712V907.342H208.268L208.271 175.475C208.271 137.743 238.97 107.046 276.704 107.046V107.046ZM883.491 995.804H731.411C720.284 995.804 710.627 988.265 707.928 977.471L700.41 947.388H886.265C893.15 955.79 900.604 963.719 908.554 971.133L906.971 977.465C904.275 988.264 894.618 995.804 883.491 995.804V995.804ZM955.376 1037.44C955.609 1036.5 956.442 1035.85 957.406 1035.85H1188.24C1189.2 1035.85 1190.04 1036.5 1190.27 1037.44L1201.98 1084.27H943.67L955.376 1037.44ZM1450.86 1015.83C1450.86 1053.57 1420.16 1084.27 1382.42 1084.27H1243.26L1229.12 1027.72C1225.72 1014.09 1215.92 1003.48 1203.42 998.652V997.43C1224.59 983.747 1243.49 966.794 1259.4 947.388H1426.65C1440 947.388 1450.85 958.246 1450.85 971.595V1015.83H1450.86Z" fill="black"/>
<path d="M1094.94 420.831H1050.71C1039.65 420.831 1030.69 429.793 1030.69 440.854C1030.69 451.915 1039.65 460.877 1050.71 460.877H1094.94C1106 460.877 1114.96 451.915 1114.96 440.854C1114.96 429.796 1106 420.831 1094.94 420.831Z" fill="black"/>
<path d="M565.58 569.729C590.398 549.832 606.331 519.292 606.331 485.082C606.331 425.267 557.664 376.6 497.848 376.6C438.032 376.6 389.368 425.264 389.368 485.082C389.368 519.138 405.154 549.562 429.78 569.465C415.588 576.556 402.428 585.884 390.778 597.343C361.349 626.285 345.138 664.954 345.138 706.226V816.799C345.138 840.034 364.04 858.936 387.275 858.936H608.418C631.653 858.936 650.555 840.034 650.555 816.799V708.41C650.558 648.068 615.822 595.228 565.58 569.729V569.729ZM540.521 602.218L512.969 624.259C504.066 631.382 491.627 631.379 482.729 624.259L454.91 602.001C468.35 596.464 482.868 593.562 497.843 593.562C498.486 593.562 499.135 593.568 499.784 593.578C514.165 593.819 527.901 596.891 540.521 602.218ZM497.848 416.646C535.585 416.646 566.284 447.345 566.284 485.082C566.284 522.817 535.585 553.516 497.848 553.516C460.114 553.516 429.414 522.817 429.414 485.082C429.414 447.345 460.114 416.646 497.848 416.646V416.646ZM610.511 816.799C610.511 817.952 609.572 818.889 608.421 818.889H387.278C386.124 818.889 385.187 817.95 385.187 816.799V706.226C385.187 675.777 397.145 647.248 418.858 625.893C419.13 625.626 419.416 625.378 419.691 625.113L457.711 655.53C469.53 664.983 483.685 669.709 497.851 669.709C512.008 669.709 526.171 664.983 537.988 655.53L575.511 625.511C597.032 646.495 610.511 675.98 610.511 708.412V816.799Z" fill="black"/>
</svg>
