<svg id="Capa_1" enable-background="new 0 0 512 512" height="512" viewBox="0 0 512 512" width="512" xmlns="http://www.w3.org/2000/svg"><g><g><g><circle cx="256" cy="350.404" fill="#31a7fb" r="154.096"/><path d="m203.79 374.851v20.334c0 1.305-.34 2.587-.985 3.721l-41.579 73.002c-36.107-28.198-59.321-72.139-59.321-121.507 0-27.943 7.435-54.142 20.433-76.732l46.641 21.956c2.26 1.064 3.844 3.181 4.227 5.649l1.75 11.277c.479 3.085-.999 6.145-3.714 7.688l-19.823 11.267c-2.235 1.27-3.666 3.595-3.794 6.162l-.811 16.327c-.168 3.378 1.941 6.453 5.154 7.512l22.267 7.344c1 .33 2.057.446 3.105.341l18.184-1.823c4.425-.442 8.266 3.033 8.266 7.482z" fill="#27e19d"/><path d="m410.095 350.402c0 85.106-68.989 154.095-154.095 154.095-16.832 0-33.04-2.699-48.203-7.698 5.097.511 10.262.774 15.486.774 85.106 0 154.095-68.989 154.095-154.095 0-68.267-44.391-126.167-105.893-146.397 77.838 7.758 138.61 73.439 138.61 153.321z" fill="#1c96f9"/><path d="m410.095 350.401c0 54.254-28.041 101.961-70.417 129.415l-38.858-21.139c-.812-.444-1.691-.729-2.609-.849l-16.689-2.203c-3.526-.466-6.247-3.345-6.51-6.894l-1.872-25.116c-.225-3.014 1.383-5.871 4.067-7.247l58.855-30.153c1.849-.947 3.225-2.624 3.804-4.616l13.426-46.774c.579-2.022.286-4.202-.819-5.999l-8.006-13.073c-1.436-2.338-4.037-3.714-6.781-3.578l-15.501.759c-3.548.173-6.488 2.797-7.051 6.307l-5.458 33.679c-.451 2.774-2.398 5.059-5.067 5.939l-25.83 8.517c-3.473 1.143-7.262-.376-8.983-3.601l-16.328-30.589c-.955-1.797-1.143-3.902-.519-5.841l5.939-18.493c.782-2.421 2.721-4.285 5.172-4.954l24.545-6.721c2.496-.684 4.458-2.601 5.21-5.074l13.02-43.008c1.173-3.887-.955-8.014-4.804-9.307l-20.606-6.909c-1.797-.601-3.744-.504-5.473.271l-17.584 7.901c-1.534.684-3.255.842-4.886.436l-24.304-6.037c-2.428-.601-4.39-2.368-5.255-4.714l-10.419-28.492c13.494-3.872 27.755-5.939 42.497-5.939 85.105.001 154.094 68.997 154.094 154.096z" fill="#27e19d"/><path d="m410.095 350.401c0 54.254-28.041 101.961-70.417 129.415l-23.958-13.035c37.445-28.116 61.659-72.883 61.659-123.303 0-68.267-44.391-126.16-105.885-146.397 77.829 7.765 138.601 73.453 138.601 153.32z" fill="#26d192"/></g></g><g><g><path d="m309.855 175.743c-3.891 0-7.779-1.495-10.728-4.48-11.489-11.623-26.804-18.024-43.126-18.024s-31.638 6.401-43.126 18.024c-5.856 5.924-15.407 5.98-21.331.125-5.924-5.856-5.98-15.407-.124-21.331 17.199-17.401 40.135-26.985 64.581-26.985s47.382 9.583 64.581 26.985c5.857 5.924 5.801 15.475-.124 21.331-2.941 2.905-6.774 4.355-10.603 4.355z" fill="#fee265"/></g><g><path d="m341.068 131.986c-3.891 0-7.778-1.495-10.728-4.48-19.804-20.034-46.204-31.068-74.34-31.068s-54.536 11.033-74.339 31.067c-5.856 5.924-15.406 5.98-21.331.124-5.924-5.856-5.98-15.406-.124-21.331 25.513-25.812 59.534-40.027 95.794-40.027s70.281 14.215 95.794 40.027c5.857 5.925 5.801 15.475-.124 21.331-2.939 2.906-6.772 4.357-10.602 4.357z" fill="#fee265"/></g><g><path d="m381.711 90.199c-3.891 0-7.779-1.495-10.729-4.48-30.626-30.987-71.461-48.052-114.982-48.052s-84.356 17.065-114.983 48.051c-5.856 5.924-15.406 5.98-21.331.125-5.924-5.856-5.98-15.407-.124-21.331 36.338-36.765 84.793-57.012 136.438-57.012s100.1 20.247 136.438 57.012c5.857 5.924 5.801 15.475-.124 21.331-2.94 2.905-6.773 4.356-10.603 4.356z" fill="#fee265"/></g><g><path d="m235.55 283.096 5.529-5.529c2.93-2.929 2.93-7.678.001-10.607-2.93-2.928-7.679-2.929-10.606 0l-.227.227-.227-.227c-2.928-2.929-7.677-2.928-10.606 0-2.929 2.929-2.929 7.678.001 10.607l5.529 5.529c1.464 1.464 3.384 2.196 5.303 2.196s3.839-.732 5.303-2.196z"/><path d="m208.023 292.049-.227.226-.225-.226c-2.929-2.928-7.678-2.929-10.606 0-2.93 2.929-2.93 7.678-.001 10.607l5.528 5.529c1.406 1.406 3.314 2.197 5.304 2.197s3.896-.79 5.303-2.196l5.529-5.529c2.93-2.929 2.93-7.678.001-10.607-2.928-2.928-7.677-2.93-10.606-.001z"/><path d="m240.59 428.368-.227.226-.225-.226c-2.929-2.928-7.678-2.929-10.606 0-2.93 2.929-2.93 7.678-.001 10.607l5.528 5.529c1.406 1.406 3.314 2.197 5.304 2.197s3.896-.79 5.303-2.196l5.529-5.529c2.93-2.929 2.93-7.678.001-10.607-2.928-2.928-7.677-2.93-10.606-.001z"/><path d="m345.012 263.239-.227.226-.225-.226c-2.93-2.928-7.679-2.929-10.606 0-2.93 2.929-2.93 7.678-.001 10.607l5.528 5.529c1.406 1.406 3.314 2.197 5.304 2.197s3.896-.79 5.303-2.196l5.529-5.529c2.93-2.929 2.93-7.678.001-10.607-2.93-2.928-7.679-2.929-10.606-.001z"/><path d="m326.752 417.727-.225.226-.227-.226c-2.928-2.929-7.677-2.928-10.606 0-2.929 2.929-2.929 7.678.001 10.607l5.529 5.529c1.406 1.406 3.313 2.196 5.303 2.196s3.897-.791 5.304-2.197l5.528-5.529c2.929-2.929 2.929-7.678-.001-10.607-2.927-2.928-7.676-2.928-10.606.001z"/><path d="m153.072 385.699-.225.226-.227-.226c-2.928-2.929-7.677-2.928-10.606 0-2.929 2.929-2.929 7.678.001 10.607l5.529 5.529c1.406 1.406 3.313 2.196 5.303 2.196s3.897-.791 5.304-2.197l5.528-5.529c2.929-2.929 2.929-7.678-.001-10.607-2.927-2.928-7.676-2.928-10.606.001z"/><path d="m380.012 246.804c-2.658-3.178-7.389-3.6-10.564-.942-3.178 2.657-3.599 7.387-.941 10.565 21.983 26.289 34.091 59.663 34.091 93.976 0 49.953-25.12 94.142-63.386 120.621l-34.81-18.94c-1.625-.883-3.379-1.454-5.212-1.695l-16.7-2.215-1.858-25.136 58.853-30.152c3.682-1.885 6.447-5.247 7.588-9.222l13.427-46.769c1.159-4.037.565-8.408-1.631-11.991l-8.009-13.071c-2.869-4.679-8.066-7.416-13.536-7.152l-15.504.756c-7.039.344-12.966 5.643-14.092 12.6l-5.466 33.699-25.85 8.504-16.326-30.603 5.956-18.507 24.545-6.722c5.012-1.373 8.901-5.161 10.407-10.133l13.018-43.008c2.368-7.825-1.849-15.99-9.6-18.589l-20.604-6.909c-3.588-1.203-7.47-1.013-10.927.539l-17.595 7.896-24.316-6.045-7.57-20.695c10.488-2.391 21.399-3.659 32.601-3.659 31.891 0 62.209 10.062 87.678 29.099 3.316 2.48 8.017 1.8 10.497-1.517 2.48-3.318 1.801-8.018-1.517-10.498-28.081-20.99-61.505-32.084-96.658-32.084-89.104 0-161.597 72.492-161.597 161.596s72.492 161.599 161.596 161.599 161.597-72.492 161.597-161.597c0-37.824-13.348-74.616-37.585-103.599zm-208.961 223.01 14.857-26.086c2.05-3.6.794-8.179-2.806-10.229s-8.179-.794-10.229 2.805l-13.705 24.063c-30.493-26.884-49.765-66.213-49.765-109.964 0-24.091 5.844-46.842 16.184-66.914l40.206 18.935 1.74 11.295-19.823 11.268c-4.489 2.553-7.322 7.155-7.577 12.31l-.812 16.327c-.334 6.726 3.899 12.897 10.295 15.007l22.269 7.345c2.009.662 4.094.89 6.2.68l18.205-1.806-.003 20.343-5.644 9.909c-2.051 3.599-.795 8.179 2.805 10.229 1.172.667 2.446.984 3.705.984 2.607 0 5.142-1.362 6.523-3.79l5.643-9.906c1.289-2.261 1.971-4.833 1.971-7.436v-20.334c0-4.235-1.802-8.294-4.942-11.136-3.14-2.841-7.355-4.232-11.574-3.807l-18.191 1.823-22.278-7.361.819-16.342 19.821-11.267c5.389-3.062 8.371-9.234 7.421-15.359l-1.75-11.277c-.766-4.938-3.922-9.156-8.443-11.285l-39.005-18.362c17.796-27.256 44.404-48.26 75.756-58.918l7.959 21.755c1.717 4.69 5.636 8.21 10.484 9.414l24.304 6.034c3.246.807 6.717.496 9.771-.875l17.596-7.896 20.615 6.931-13.029 43.02-24.544 6.721c-4.911 1.344-8.773 5.041-10.332 9.889l-5.944 18.498c-1.235 3.848-.854 8.099 1.049 11.664l16.324 30.588c3.446 6.46 10.996 9.485 17.95 7.193l25.829-8.513c5.346-1.762 9.225-6.308 10.123-11.863l5.471-33.699 15.52-.749 8.011 13.084-13.436 46.78-58.854 30.152c-5.388 2.76-8.578 8.444-8.129 14.479l1.868 25.118c.524 7.058 5.997 12.852 13.015 13.776l16.692 2.201 27.152 14.773c-20.43 10.825-43.704 16.967-68.389 16.967-31.639 0-60.968-10.076-84.949-27.186z"/><path d="m186.085 144.784c-4.24 4.29-6.557 9.975-6.521 16.007s2.417 11.69 6.707 15.931 9.938 6.55 16.008 6.521c6.032-.035 11.689-2.417 15.93-6.707 10.068-10.187 23.49-15.796 37.792-15.796s27.724 5.61 37.791 15.796c4.275 4.326 9.98 6.708 16.063 6.708 5.981 0 11.62-2.316 15.875-6.522 4.29-4.241 6.672-9.898 6.707-15.931s-2.281-11.717-6.521-16.006c-18.619-18.838-43.448-29.213-69.915-29.213s-51.297 10.374-69.916 29.212zm131.353 15.92c-.012 2.025-.813 3.925-2.253 5.349-1.429 1.413-3.321 2.19-5.33 2.19-2.043 0-3.959-.8-5.395-2.253-12.908-13.059-30.118-20.251-48.46-20.251s-35.552 7.192-48.46 20.251c-1.424 1.44-3.324 2.24-5.35 2.252-2.036-.036-3.935-.766-5.375-2.189-1.44-1.424-2.241-3.324-2.253-5.35s.767-3.935 2.19-5.375c15.779-15.965 36.82-24.757 59.247-24.757s43.468 8.792 59.247 24.757c1.425 1.442 2.203 3.351 2.192 5.376z"/><path d="m357.129 101.026c-22.487-22.75-51.008-36.942-82.478-41.042-4.103-.535-7.871 2.36-8.406 6.468s2.361 7.871 6.469 8.406c28.127 3.665 53.629 16.36 73.747 36.713 1.424 1.441 2.202 3.35 2.19 5.375s-.813 3.925-2.252 5.349c-1.43 1.413-3.323 2.19-5.331 2.19-2.043 0-3.959-.8-5.395-2.252-21.223-21.47-49.518-33.295-79.673-33.295s-58.45 11.824-79.674 33.295c-2.941 2.974-7.752 3.001-10.725.063-1.44-1.424-2.241-3.324-2.253-5.35s.767-3.935 2.19-5.375c19.98-20.214 45.298-32.884 73.217-36.64 4.105-.552 6.985-4.328 6.433-8.433-.552-4.106-4.334-6.988-8.433-6.433-31.236 4.203-59.552 18.367-81.885 40.961-8.754 8.856-8.671 23.184.186 31.938 8.859 8.753 23.184 8.67 31.938-.186 18.384-18.598 42.891-28.84 69.006-28.84s50.622 10.242 69.006 28.84c4.275 4.325 9.979 6.708 16.063 6.708 5.981 0 11.619-2.316 15.875-6.522 8.856-8.755 8.939-23.082.185-31.938z"/><path d="m146.351 90.991c29.208-29.55 68.149-45.824 109.649-45.824s80.441 16.273 109.647 45.822c4.274 4.327 9.979 6.709 16.064 6.709 5.98 0 11.618-2.315 15.875-6.522 4.29-4.241 6.672-9.898 6.707-15.93.035-6.033-2.281-11.718-6.522-16.007-37.757-38.201-88.106-59.239-141.771-59.239s-104.014 21.038-141.771 59.239c-4.242 4.29-6.559 9.975-6.523 16.008.035 6.032 2.417 11.689 6.708 15.932 8.858 8.752 23.184 8.666 31.937-.188zm-21.455-21.207c34.918-35.328 81.479-54.784 131.104-54.784s96.186 19.456 131.104 54.785c1.424 1.44 2.201 3.349 2.189 5.375s-.812 3.926-2.251 5.349c-1.43 1.413-3.323 2.19-5.331 2.19-2.044 0-3.959-.799-5.395-2.253-32.046-32.423-74.776-50.279-120.316-50.279s-88.27 17.856-120.317 50.278c-2.94 2.973-7.75 3.001-10.725.064-1.44-1.424-2.24-3.325-2.252-5.351-.012-2.024.766-3.933 2.19-5.374z"/></g></g></g></svg>