<svg width="833" height="722" viewBox="0 0 833 722" fill="none" xmlns="http://www.w3.org/2000/svg">
<g clip-path="url(#clip0)">
<path d="M790 276C790 417.385 675.385 532 534 532C392.615 532 278 417.385 278 276C278 134.615 392.615 20 534 20C675.385 20 790 134.615 790 276Z" fill="#203E76"/>
<path d="M762.085 276C762.085 390.875 668.96 484 554.085 484C439.21 484 346.085 390.875 346.085 276C346.085 161.125 439.21 68 554.085 68C668.96 68 762.085 161.125 762.085 276Z" fill="#0A4499"/>
<path d="M292.163 232.938C292.163 230.177 294.401 227.938 297.163 227.938H442.211C444.973 227.938 447.211 230.177 447.211 232.938C447.211 235.699 444.973 237.938 442.211 237.938H297.163C294.401 237.938 292.163 235.699 292.163 232.938V232.938ZM324.154 146.25H382.344C385.106 146.25 387.344 144.011 387.344 141.25C387.344 138.489 385.106 136.25 382.344 136.25H324.154C321.392 136.25 319.154 138.489 319.154 141.25C319.154 144.011 321.392 146.25 324.154 146.25ZM405.217 324C405.217 321.239 402.979 319 400.217 319H297.163C294.401 319 292.163 321.239 292.163 324C292.163 326.761 294.401 329 297.163 329H400.217C402.978 329 405.217 326.761 405.217 324ZM403.886 146.25H428.921C431.683 146.25 433.921 144.011 433.921 141.25C433.921 138.489 431.683 136.25 428.921 136.25H403.886C401.124 136.25 398.886 138.489 398.886 141.25C398.886 144.011 401.124 146.25 403.886 146.25ZM382.344 406H324.154C321.392 406 319.154 408.239 319.154 411C319.154 413.761 321.392 416 324.154 416H382.344C385.106 416 387.344 413.761 387.344 411C387.344 408.239 385.105 406 382.344 406ZM488.789 227.938H463.754C460.992 227.938 458.754 230.177 458.754 232.938C458.754 235.699 460.992 237.938 463.754 237.938H488.789C491.551 237.938 493.789 235.699 493.789 232.938C493.789 230.176 491.55 227.938 488.789 227.938ZM446.794 319H421.759C418.997 319 416.759 321.239 416.759 324C416.759 326.761 418.997 329 421.759 329H446.794C449.556 329 451.794 326.761 451.794 324C451.794 321.239 449.556 319 446.794 319ZM428.921 406H403.886C401.124 406 398.886 408.239 398.886 411C398.886 413.761 401.124 416 403.886 416H428.921C431.683 416 433.921 413.761 433.921 411C433.921 408.239 431.683 406 428.921 406Z" fill="#0956C6"/>
<path d="M306.203 331.124C303.535 336.058 298.183 339.327 292.105 338.974C284.569 338.536 278.464 332.431 278.026 324.895C277.673 318.816 280.942 313.464 285.876 310.797C286.628 310.39 287.5 311.052 287.323 311.889C287.054 313.166 286.947 314.502 287.025 315.875C287.454 323.423 293.577 329.545 301.124 329.975C302.498 330.053 303.834 329.946 305.11 329.677C305.948 329.5 306.61 330.372 306.203 331.124V331.124ZM292.105 247.911C298.184 248.264 303.536 244.995 306.203 240.061C306.61 239.309 305.948 238.437 305.111 238.613C303.835 238.882 302.498 238.989 301.125 238.911C293.577 238.482 287.455 232.359 287.026 224.811C286.948 223.437 287.055 222.101 287.324 220.825C287.501 219.988 286.629 219.326 285.877 219.733C280.943 222.4 277.674 227.753 278.027 233.831C278.464 241.368 284.569 247.474 292.105 247.911V247.911ZM332.102 416.677C330.826 416.947 329.489 417.053 328.116 416.975C320.568 416.546 314.446 410.423 314.017 402.875C313.939 401.501 314.046 400.165 314.315 398.889C314.492 398.052 313.62 397.39 312.868 397.797C307.934 400.464 304.665 405.817 305.018 411.895C305.456 419.431 311.561 425.536 319.097 425.974C325.176 426.327 330.528 423.058 333.195 418.124C333.601 417.372 332.938 416.5 332.102 416.677V416.677ZM319.096 156.224C325.175 156.577 330.527 153.308 333.194 148.374C333.601 147.622 332.939 146.75 332.102 146.927C330.826 147.196 329.489 147.303 328.116 147.225C320.568 146.796 314.446 140.673 314.017 133.125C313.939 131.751 314.046 130.415 314.315 129.139C314.492 128.302 313.62 127.64 312.868 128.047C307.934 130.714 304.665 136.067 305.018 142.145C305.455 149.681 311.56 155.786 319.096 156.224V156.224Z" fill="#0956C6"/>
<path d="M308 324C308 326.599 307.339 329.044 306.175 331.176C304.044 332.339 301.599 333 299 333C290.716 333 284 326.284 284 318C284 315.401 284.661 312.956 285.825 310.824C287.956 309.661 290.401 309 293 309C301.284 309 308 315.716 308 324ZM293 217.938C290.401 217.938 287.956 218.599 285.825 219.762C284.661 221.893 284 224.338 284 226.938C284 235.222 290.716 241.938 299 241.938C301.599 241.938 304.044 241.277 306.175 240.113C307.338 237.982 308 235.537 308 232.938C308 224.653 301.284 217.938 293 217.938ZM319.991 396C317.392 396 314.947 396.661 312.816 397.824C311.653 399.956 310.991 402.4 310.991 405C310.991 413.284 317.707 420 325.991 420C328.59 420 331.035 419.339 333.166 418.176C334.329 416.044 334.991 413.6 334.991 411C334.991 402.716 328.275 396 319.991 396ZM325.991 150.25C328.59 150.25 331.035 149.589 333.166 148.426C334.329 146.294 334.991 143.85 334.991 141.25C334.991 132.966 328.275 126.25 319.991 126.25C317.392 126.25 314.947 126.911 312.816 128.074C311.653 130.205 310.991 132.65 310.991 135.25C310.991 143.534 317.707 150.25 325.991 150.25Z" fill="#2476ED"/>
<path d="M781.979 307.802C770.071 329.824 746.181 344.417 719.046 342.842C686.583 340.957 660.068 315.51 656.498 283.5H430.94C426.797 283.5 423.44 280.142 423.44 276C423.44 271.858 426.797 268.5 430.94 268.5H656.501C658.984 246.229 672.39 227.256 691.241 217.064C694.6 215.248 698.49 218.204 697.702 221.94C696.5 227.638 696.022 233.603 696.371 239.734C698.287 273.426 725.616 300.756 759.309 302.672C765.44 303.021 771.405 302.543 777.103 301.341C780.839 300.552 783.795 304.443 781.979 307.802V307.802Z" fill="#07A9F0"/>
<path d="M455.574 285.743C451.973 292.403 444.748 296.817 436.541 296.34C426.368 295.749 418.125 287.507 417.535 277.334C417.058 269.127 421.472 261.902 428.132 258.301C429.148 257.752 430.324 258.646 430.086 259.776C429.722 261.499 429.578 263.303 429.683 265.158C430.262 275.348 438.528 283.613 448.717 284.192C450.571 284.297 452.375 284.153 454.099 283.789C455.229 283.55 456.124 284.727 455.574 285.743V285.743ZM390.567 281.802C389.291 282.071 387.954 282.178 386.581 282.1C379.033 281.671 372.911 275.548 372.482 268.001C372.404 266.627 372.511 265.291 372.78 264.015C372.957 263.178 372.085 262.516 371.333 262.922C366.399 265.59 363.13 270.942 363.483 277.02C363.921 284.556 370.026 290.661 377.562 291.099C383.641 291.452 388.993 288.183 391.66 283.249C392.066 282.497 391.404 281.625 390.567 281.802ZM335.111 281.802C333.835 282.071 332.498 282.178 331.125 282.1C323.577 281.671 317.455 275.548 317.026 268.001C316.948 266.627 317.055 265.291 317.324 264.015C317.501 263.178 316.629 262.516 315.877 262.922C310.943 265.59 307.674 270.942 308.027 277.02C308.465 284.556 314.57 290.661 322.106 291.099C328.185 291.452 333.537 288.183 336.204 283.249C336.61 282.497 335.948 281.625 335.111 281.802ZM288 266C282.477 266 278 270.477 278 276C278 281.523 282.477 286 288 286C293.523 286 298 281.523 298 276C298 270.477 293.523 266 288 266V266Z" fill="#07A9F0"/>
<path d="M790 276C790 287.603 787.048 298.516 781.856 308.03C772.342 313.223 761.429 316.174 749.826 316.174C712.846 316.174 682.869 286.196 682.869 249.217C682.869 237.614 685.821 226.701 691.013 217.187C700.527 211.994 711.44 209.043 723.043 209.043C760.022 209.043 790 239.02 790 276V276ZM458 276.125C458 279.634 457.107 282.934 455.537 285.812C452.66 287.383 449.359 288.275 445.85 288.275C434.666 288.275 425.6 279.209 425.6 268.025C425.6 264.516 426.493 261.215 428.063 258.338C430.94 256.768 434.241 255.875 437.75 255.875C448.934 255.875 458 264.941 458 276.125ZM378.456 261.125C375.857 261.125 373.412 261.786 371.28 262.949C370.117 265.08 369.456 267.525 369.456 270.125C369.456 278.409 376.172 285.125 384.456 285.125C387.055 285.125 389.5 284.464 391.631 283.3C392.794 281.169 393.456 278.724 393.456 276.125C393.456 267.841 386.74 261.125 378.456 261.125ZM323 261.125C320.401 261.125 317.956 261.786 315.825 262.949C314.662 265.08 314 267.525 314 270.125C314 278.409 320.716 285.125 329 285.125C331.599 285.125 334.044 284.464 336.175 283.3C337.338 281.169 338 278.724 338 276.125C338 267.841 331.284 261.125 323 261.125Z" fill="#72D1FB"/>
<path d="M380.62 108.66C377.019 115.32 369.794 119.733 361.587 119.257C351.414 118.666 343.172 110.424 342.581 100.251C342.104 92.0449 346.518 84.8199 353.178 81.2179C354.194 80.6689 355.37 81.5629 355.132 82.6929C354.768 84.4159 354.624 86.2199 354.729 88.0749C355.308 98.2639 363.574 106.53 373.763 107.109C375.617 107.214 377.421 107.07 379.145 106.706C380.275 106.468 381.169 107.645 380.62 108.66V108.66ZM325.937 105.849C324.661 106.118 323.324 106.225 321.951 106.147C314.403 105.718 308.281 99.5949 307.852 92.0469C307.774 90.6729 307.881 89.3369 308.15 88.0609C308.327 87.2239 307.455 86.5619 306.703 86.9679C301.769 89.6359 298.5 94.9879 298.853 101.066C299.291 108.602 305.396 114.707 312.932 115.145C319.011 115.498 324.363 112.229 327.03 107.295C327.436 106.544 326.774 105.673 325.937 105.849V105.849Z" fill="#0691CE"/>
<path d="M548.929 119.486C541.274 133.643 525.917 143.024 508.474 142.01C488.477 140.849 471.991 125.779 468.63 106.417H363.736C361.017 106.417 358.813 103.059 358.813 98.917C358.813 94.775 361.017 91.417 363.736 91.417H468.673C471.014 78.32 479.28 67.276 490.599 61.156C492.758 59.989 495.259 61.889 494.752 64.291C493.979 67.954 493.672 71.788 493.896 75.73C495.127 97.389 512.696 114.957 534.354 116.188C538.295 116.412 542.13 116.105 545.793 115.332C548.196 114.826 550.097 117.327 548.929 119.486V119.486Z" fill="#0691CE"/>
<path d="M328.826 100.172C328.826 102.771 328.165 105.216 327.001 107.347C324.87 108.51 322.425 109.172 319.826 109.172C311.542 109.172 304.826 102.456 304.826 94.172C304.826 91.573 305.487 89.128 306.651 86.997C308.782 85.834 311.227 85.172 313.826 85.172C322.111 85.172 328.826 91.888 328.826 100.172ZM383.046 99.043C383.046 102.552 382.153 105.852 380.583 108.73C377.706 110.3 374.405 111.193 370.896 111.193C359.712 111.193 350.646 102.127 350.646 90.943C350.646 87.434 351.539 84.134 353.109 81.256C355.986 79.686 359.287 78.793 362.796 78.793C373.979 78.793 383.046 87.859 383.046 99.043V99.043ZM554.085 99.043C554.085 106.502 552.187 113.517 548.849 119.633C542.733 122.971 535.718 124.868 528.259 124.868C504.487 124.868 485.216 105.597 485.216 81.825C485.216 74.366 487.113 67.351 490.451 61.235C496.567 57.897 503.582 55.999 511.041 55.999C534.814 56 554.085 75.271 554.085 99.043V99.043Z" fill="#07A9F0"/>
<path d="M647.731 385.443C638.298 402.889 619.373 414.449 597.877 413.201C572.647 411.736 551.953 392.305 548.508 367.626H373.813C369.67 367.626 366.313 364.268 366.313 360.126C366.313 355.984 369.67 352.626 373.813 352.626H548.544C550.979 335.713 561.394 321.379 575.85 313.562C578.511 312.123 581.593 314.466 580.968 317.425C580.016 321.939 579.637 326.664 579.914 331.521C580.343 339.073 582.385 346.222 585.697 352.625H638C642.143 352.625 645.5 355.983 645.5 360.125C645.5 364.267 642.143 367.625 638 367.625H597.222C605.95 375.574 617.311 380.67 629.772 381.379C634.629 381.655 639.355 381.277 643.868 380.325C646.828 379.7 649.17 382.782 647.731 385.443V385.443Z" fill="#EA552D"/>
<path d="M654.085 360.25C654.085 369.441 651.747 378.087 647.633 385.624C640.096 389.738 631.451 392.076 622.259 392.076C592.964 392.076 569.216 368.328 569.216 339.033C569.216 329.842 571.554 321.196 575.668 313.659C583.205 309.545 591.85 307.207 601.042 307.207C630.337 307.207 654.085 330.955 654.085 360.25Z" fill="#F76937"/>
<path d="M334.53 367.249C331.862 372.183 326.51 375.452 320.432 375.099C312.896 374.661 306.791 368.556 306.353 361.02C306 354.941 309.269 349.589 314.203 346.922C314.955 346.515 315.827 347.177 315.65 348.014C315.381 349.291 315.274 350.627 315.352 352C315.781 359.548 321.904 365.67 329.451 366.1C330.825 366.178 332.161 366.071 333.437 365.802C334.274 365.625 334.936 366.497 334.53 367.249ZM386.645 367.914C384.922 368.278 383.118 368.422 381.263 368.317C371.073 367.738 362.808 359.472 362.229 349.283C362.124 347.429 362.268 345.625 362.632 343.901C362.87 342.771 361.694 341.877 360.678 342.426C354.018 346.027 349.604 353.252 350.081 361.459C350.672 371.632 358.914 379.875 369.087 380.465C377.293 380.942 384.519 376.528 388.12 369.868C388.669 368.852 387.775 367.675 386.645 367.914V367.914Z" fill="#F76937"/>
<path d="M336.326 360.125C336.326 362.724 335.665 365.169 334.501 367.301C332.37 368.464 329.925 369.125 327.326 369.125C319.042 369.125 312.326 362.409 312.326 354.125C312.326 351.526 312.987 349.081 314.151 346.95C316.282 345.787 318.727 345.125 321.326 345.125C329.611 345.125 336.326 351.841 336.326 360.125ZM370.295 340C366.786 340 363.486 340.893 360.608 342.463C359.038 345.34 358.145 348.641 358.145 352.15C358.145 363.334 367.211 372.4 378.395 372.4C381.904 372.4 385.204 371.507 388.082 369.937C389.652 367.06 390.545 363.759 390.545 360.25C390.545 349.066 381.479 340 370.295 340Z" fill="#FF956A"/>
<path d="M647.731 214.943C638.298 232.389 619.372 243.949 597.877 242.701C572.647 241.236 551.953 221.805 548.508 197.126H371.583C368.672 197.126 366.313 193.768 366.313 189.626C366.313 185.484 368.672 182.126 371.583 182.126H548.544C550.979 165.213 561.394 150.879 575.85 143.062C578.511 141.623 581.593 143.966 580.968 146.925C580.016 151.439 579.637 156.164 579.914 161.021C581.432 187.711 603.082 209.362 629.772 210.879C634.629 211.155 639.355 210.777 643.868 209.825C646.828 209.2 649.17 212.282 647.731 214.943V214.943Z" fill="#FFA90B"/>
<path d="M654.085 189.75C654.085 198.941 651.747 207.586 647.633 215.124C640.096 219.238 631.451 221.576 622.259 221.576C592.964 221.576 569.216 197.828 569.216 168.534C569.216 159.343 571.554 150.697 575.668 143.16C583.205 139.047 591.85 136.708 601.042 136.708C630.337 136.708 654.085 160.455 654.085 189.75Z" fill="#FFC14F"/>
<path d="M334.53 198.004C331.862 202.938 326.51 206.207 320.432 205.854C312.896 205.416 306.791 199.311 306.353 191.775C306 185.696 309.269 180.344 314.203 177.677C314.955 177.27 315.827 177.933 315.65 178.77C315.381 180.046 315.274 181.383 315.352 182.756C315.781 190.304 321.904 196.426 329.451 196.855C330.825 196.933 332.161 196.826 333.437 196.557C334.274 196.38 334.936 197.251 334.53 198.004V198.004ZM386.645 197.414C384.922 197.778 383.118 197.922 381.263 197.817C371.073 197.238 362.808 188.972 362.229 178.783C362.124 176.929 362.268 175.125 362.632 173.401C362.87 172.271 361.694 171.377 360.678 171.926C354.018 175.527 349.604 182.752 350.081 190.959C350.672 201.132 358.914 209.375 369.087 209.965C377.293 210.442 384.519 206.028 388.12 199.368C388.669 198.352 387.775 197.175 386.645 197.414V197.414Z" fill="#FFC14F"/>
<path d="M336.326 190.88C336.326 193.479 335.665 195.924 334.501 198.056C332.37 199.219 329.925 199.88 327.326 199.88C319.042 199.88 312.326 193.164 312.326 184.88C312.326 182.281 312.987 179.836 314.151 177.704C316.282 176.541 318.727 175.88 321.326 175.88C329.611 175.88 336.326 182.595 336.326 190.88ZM370.296 169.5C366.787 169.5 363.487 170.393 360.609 171.963C359.039 174.84 358.146 178.141 358.146 181.65C358.146 192.834 367.212 201.9 378.396 201.9C381.905 201.9 385.205 201.007 388.083 199.437C389.653 196.56 390.546 193.259 390.546 189.75C390.546 178.566 381.479 169.5 370.296 169.5Z" fill="#FFCD71"/>
<path d="M325.937 459.764C326.774 459.587 327.436 460.459 327.029 461.211C324.361 466.145 319.009 469.414 312.931 469.061C305.395 468.623 299.29 462.518 298.852 454.982C298.499 448.903 301.768 443.551 306.702 440.884C307.454 440.477 308.326 441.14 308.149 441.976C307.88 443.252 307.773 444.589 307.851 445.962C308.28 453.51 314.403 459.632 321.95 460.061C323.324 460.14 324.661 460.033 325.937 459.764V459.764Z" fill="#F29500"/>
<path d="M548.929 473.401C541.274 487.558 525.917 496.939 508.474 495.926C488.477 494.765 471.991 479.695 468.63 460.333H363.729C361.014 460.333 358.813 456.975 358.813 452.833C358.813 448.691 361.014 445.333 363.729 445.333H468.674C471.015 432.236 479.281 421.191 490.6 415.071C492.759 413.904 495.26 415.804 494.753 418.206C493.98 421.869 493.673 425.703 493.897 429.645C495.128 451.303 512.697 468.872 534.355 470.103C538.297 470.327 542.131 470.02 545.794 469.247C548.196 468.741 550.097 471.241 548.929 473.401V473.401Z" fill="#F29500"/>
<path d="M328.826 454.087C328.826 456.686 328.165 459.131 327.001 461.263C324.87 462.426 322.425 463.087 319.826 463.087C311.542 463.087 304.826 456.371 304.826 448.087C304.826 445.488 305.487 443.043 306.651 440.911C308.782 439.748 311.227 439.087 313.826 439.087C322.111 439.087 328.826 445.803 328.826 454.087ZM379.145 460.621C377.422 460.985 375.618 461.129 373.763 461.024C363.573 460.444 355.308 452.179 354.729 441.99C354.624 440.136 354.768 438.332 355.132 436.608C355.37 435.478 354.194 434.584 353.178 435.133C346.518 438.734 342.104 445.959 342.581 454.166C343.172 464.339 351.414 472.582 361.587 473.172C369.793 473.649 377.019 469.235 380.62 462.575C381.169 461.56 380.275 460.383 379.145 460.621V460.621ZM554.085 452.958C554.085 460.416 552.187 467.432 548.85 473.548C542.734 476.886 535.719 478.784 528.26 478.784C504.488 478.784 485.217 459.513 485.217 435.742C485.217 428.283 487.114 421.268 490.452 415.152C496.568 411.814 503.583 409.916 511.042 409.916C534.814 409.915 554.085 429.186 554.085 452.958Z" fill="#FFA90B"/>
<path d="M383.045 452.958C383.045 456.467 382.152 459.767 380.582 462.645C377.705 464.216 374.404 465.108 370.895 465.108C359.711 465.108 350.645 456.042 350.645 444.858C350.645 441.349 351.538 438.048 353.108 435.171C355.986 433.601 359.286 432.708 362.795 432.708C373.979 432.708 383.045 441.774 383.045 452.958Z" fill="#FFC14F"/>
<path d="M711.389 272.222C715.759 276.825 717.984 282.857 717.654 289.206C717.035 301.131 707.192 310.66 695.244 310.902C695.088 310.905 694.931 310.907 694.776 310.907C683.374 310.908 673.662 302.505 672.082 291.183C671.936 290.131 671.861 289.058 671.861 287.994C671.861 285.232 674.1 282.994 676.861 282.994C679.622 282.994 681.861 285.232 681.861 287.994C681.861 288.598 681.903 289.207 681.986 289.802C682.887 296.263 688.475 301.031 695.043 300.905C701.774 300.769 707.32 295.403 707.668 288.689C707.854 285.104 706.6 281.702 704.137 279.108C701.672 276.512 698.347 275.083 694.773 275.083C689.902 275.083 687.897 275.821 685.393 276.948C685.094 277.083 684.909 277.175 684.864 277.197C683.183 278.053 681.157 277.894 679.635 276.779C678.113 275.665 677.341 273.793 677.649 271.931L682.008 245.62C682.408 243.207 684.495 241.437 686.941 241.437H708.945C711.706 241.437 713.945 243.675 713.945 246.437C713.945 249.199 711.706 251.437 708.945 251.437H691.18L688.852 265.486C690.556 265.221 692.476 265.082 694.772 265.082C701.025 265.082 707.081 267.685 711.389 272.222V272.222ZM785 271H766.996C764.235 271 761.996 273.238 761.996 276C761.996 278.762 764.235 281 766.996 281H779.655C778.239 291.139 772.309 301.093 759.023 301.093C745.187 301.093 733.931 289.836 733.931 276C733.931 262.164 745.187 250.907 759.023 250.907C764.052 250.907 768.902 252.387 773.048 255.189C775.337 256.736 778.444 256.134 779.99 253.845C781.536 251.557 780.934 248.449 778.646 246.904C772.84 242.98 766.054 240.907 759.022 240.907C739.672 240.907 723.93 256.649 723.93 276C723.93 295.351 739.672 311.093 759.022 311.093C777.262 311.093 790 296.662 790 276C790 273.238 787.761 271 785 271V271ZM629.995 357.696L591.426 330.424C588.777 328.55 585.117 330.445 585.117 333.69V388.235C585.117 391.48 588.777 393.374 591.426 391.501L629.995 364.228C632.249 362.634 632.249 359.29 629.995 357.696V357.696ZM601.043 193.832C610.318 193.832 617.837 186.313 617.837 177.038V167.708C617.837 158.433 610.318 150.914 601.043 150.914C591.768 150.914 584.249 158.433 584.249 167.708V177.038C584.249 186.313 591.768 193.832 601.043 193.832ZM629.343 172.522C626.581 172.522 624.343 174.761 624.343 177.522C624.343 190.37 613.891 200.822 601.043 200.822C588.195 200.822 577.742 190.37 577.742 177.522C577.742 174.761 575.504 172.522 572.742 172.522C569.98 172.522 567.742 174.761 567.742 177.522C567.742 194.185 580.044 208.028 596.043 210.447V218.681H587C584.238 218.681 582 220.92 582 223.681C582 226.442 584.238 228.681 587 228.681H615.085C617.847 228.681 620.085 226.442 620.085 223.681C620.085 220.92 617.847 218.681 615.085 218.681H606.043V210.447C622.041 208.028 634.343 194.185 634.343 177.522C634.343 174.761 632.104 172.522 629.343 172.522V172.522ZM498.217 84.1958H525.032C527.793 84.1958 530.032 81.9568 530.032 79.1958C530.032 76.4348 527.793 74.1958 525.032 74.1958H498.217C495.456 74.1958 493.217 76.4348 493.217 79.1958C493.217 81.9578 495.456 84.1958 498.217 84.1958ZM530.032 118.639C530.032 115.878 527.793 113.639 525.032 113.639H498.217C495.456 113.639 493.217 115.878 493.217 118.639C493.217 121.4 495.456 123.639 498.217 123.639H525.032C527.793 123.639 530.032 121.4 530.032 118.639ZM533.032 94.1958H490.217C487.456 94.1958 485.217 96.4348 485.217 99.1958C485.217 101.957 487.456 104.196 490.217 104.196H533.032C535.793 104.196 538.032 101.957 538.032 99.1958C538.031 96.4348 535.793 94.1958 533.032 94.1958V94.1958ZM491.903 433.696C489.142 433.696 486.903 435.935 486.903 438.696V465.51C486.903 468.271 489.142 470.51 491.903 470.51C494.664 470.51 496.903 468.271 496.903 465.51V438.696C496.903 435.934 494.664 433.696 491.903 433.696ZM531.346 433.696C528.585 433.696 526.346 435.935 526.346 438.696V465.51C526.346 468.271 528.585 470.51 531.346 470.51C534.107 470.51 536.346 468.271 536.346 465.51V438.696C536.346 435.934 534.107 433.696 531.346 433.696ZM511.903 425.696C509.142 425.696 506.903 427.935 506.903 430.696V473.51C506.903 476.271 509.142 478.51 511.903 478.51C514.664 478.51 516.903 476.271 516.903 473.51V430.696C516.903 427.934 514.664 425.696 511.903 425.696Z" fill="#F0ECEA"/>
</g>
<path d="M214.636 371.864H208.225C189.213 371.864 173.8 356.451 173.8 337.439V265.925C173.8 246.913 189.213 231.5 208.225 231.5H346.776C365.788 231.5 381.201 246.913 381.201 265.925V337.44C381.201 356.452 365.788 371.865 346.776 371.865H241.853L222.427 395.809C219.825 399.016 214.636 397.176 214.636 393.046V371.864V371.864Z" fill="#FFCF59"/>
<path d="M346.775 231.5H208.225C190.599 231.5 176.076 244.75 174.051 261.832H300.976C319.988 261.832 335.401 277.245 335.401 296.257V367.772C335.401 369.158 335.31 370.522 335.151 371.865H346.776C365.788 371.865 381.201 356.452 381.201 337.44V265.925C381.2 246.913 365.788 231.5 346.775 231.5Z" fill="#FFB55C"/>
<path d="M281.147 622.864H176.225C157.213 622.864 141.8 607.451 141.8 588.439V516.924C141.8 497.912 157.213 482.499 176.225 482.499H314.776C333.788 482.499 349.201 497.912 349.201 516.924V588.439C349.201 607.451 333.788 622.864 314.776 622.864H308.365V644.045C308.365 648.175 303.176 650.015 300.574 646.808L281.147 622.864Z" fill="#FFCF59"/>
<path d="M178 614.939V543.424C178 524.413 193.412 509 212.425 509H348.273C344.692 493.81 331.059 482.5 314.775 482.5H176.225C157.213 482.5 141.8 497.913 141.8 516.925V588.44C141.8 607.452 157.213 622.865 176.225 622.865H178.927C178.327 620.319 178 617.668 178 614.939Z" fill="#FFB55C"/>
<path d="M506.54 468.714C493.63 456.001 476.573 449 458.511 449C458.154 449 457.793 449.002 457.436 449.008C420.252 449.575 390 480.764 390 518.532V608.895C390 618.48 393.944 627.829 400.821 634.545L407.265 640.838L509.138 643.963L516.068 637.248C523.015 630.518 527 621.132 527 611.497V517.5C527 499.034 519.734 481.709 506.54 468.714Z" fill="#3F2725"/>
<path d="M443 631.504V573.994L452.161 576.425C454.277 576.986 456.41 577.271 458.5 577.271C460.017 577.271 461.583 577.117 463.153 576.816L472 575.114V631.505H443V631.504Z" fill="#FAD393"/>
<path d="M452.161 576.425L443 573.994V631.504H457.5V577.237C455.732 577.161 453.941 576.897 452.161 576.425Z" fill="#EDB769"/>
<path d="M414.887 684C408.884 684 404 679.116 404 673.113V656.478C404 635.262 421.262 618 442.479 618H472.522C493.738 618 511 635.262 511 656.479V673.114C511 679.117 506.116 684.001 500.113 684.001H414.887V684Z" fill="#FF62A7"/>
<path d="M459.273 589.993C434.376 590.42 414 569.611 414 544.711V527.214C414 525.618 415.241 524.297 416.834 524.197L421.501 523.905C444.016 522.498 462.429 505.436 465.545 483.094L466.652 475.158C466.835 473.849 468.222 473.081 469.429 473.621L476.74 476.898C492.692 484.049 503 499.985 503 517.5V545.5C503 569.779 483.455 589.579 459.273 589.993Z" fill="#FAD393"/>
<path d="M443.927 531.136C443.927 530.033 444.694 529.064 445.776 528.848C465.794 524.856 481.483 508.601 484.367 487.919L485.207 481.893C482.61 479.943 479.778 478.26 476.739 476.899L469.428 473.622C468.463 473.189 467.392 473.602 466.905 474.452L465.861 481.937C465.543 484.216 465.053 486.433 464.436 488.593C459.303 508.184 442.128 522.616 421.501 523.905L416.834 524.197C415.241 524.296 414 525.617 414 527.214V544.711C414 569.352 433.691 589.907 458.331 590C470.387 590.046 481.34 585.262 489.388 577.488C464.307 577.419 443.927 556.331 443.927 531.136Z" fill="#EDB769"/>
<path d="M68 378.427V311.176L77.002 313.6C79.273 314.21 81.398 314.507 83.5 314.507C85.027 314.507 86.587 314.347 88.266 314.018L97 312.304V378.427H68V378.427Z" fill="#FAD393"/>
<path d="M77.002 313.6L68 311.176V378.427H82.5V314.472C80.722 314.393 78.915 314.114 77.002 313.6Z" fill="#EDB769"/>
<path d="M39.887 428C33.884 428 29 423.116 29 417.113V400.478C29 379.262 46.262 362 67.479 362H97.522C118.738 362 136 379.262 136 400.479V417.114C136 423.117 131.116 428.001 125.113 428.001L39.887 428Z" fill="#0071B7"/>
<path d="M443 673.113V656.478C443 636.777 457.886 620.496 477 618.269C475.53 618.098 474.037 618 472.521 618H442.478C421.262 618 404 635.262 404 656.479V673.114C404 679.117 408.884 684.001 414.887 684.001H453.887C447.884 684 443 679.116 443 673.113Z" fill="#FC5479"/>
<path d="M68 417.113V400.478C68 380.777 82.886 364.496 102 362.269C100.53 362.098 99.037 362 97.521 362H67.479C46.262 362 29 379.262 29 400.479V417.114C29 423.116 33.884 428 39.887 428H78.887C72.884 428 68 423.116 68 417.113Z" fill="#065A84"/>
<path d="M83.5 334C54.552 334 31 310.448 31 281.5V243H136V281.5C136 310.448 112.448 334 83.5 334Z" fill="#FAD393"/>
<path d="M73.524 281.5V243H31V281.5C31 310.448 54.552 334 83.5 334C91.066 334 98.257 332.378 104.762 329.485C86.38 321.307 73.524 302.882 73.524 281.5Z" fill="#EDB769"/>
<path d="M31 244V233.87C31 207.475 52.475 186 78.87 186H158.542C165.963 186 172 192.037 172 199.458C172 220.382 157.229 239.025 136.879 243.789L135.979 244H31Z" fill="#353535"/>
<path d="M346.775 224.5H208.225C185.347 224.5 166.8 243.047 166.8 265.925V337.44C166.8 360.086 185.065 378.544 207.636 378.861V403.776C207.636 406.584 209.083 409.267 211.558 410.594C212.702 411.208 213.926 411.5 215.135 411.5C217.352 411.5 219.508 410.515 220.96 408.726L245.188 378.865H267.615C271.757 378.865 275.115 375.507 275.115 371.365C275.115 367.223 271.757 363.865 267.615 363.865H241.615C239.354 363.865 237.215 364.885 235.79 366.64L222.636 382.853V371.365C222.636 367.223 219.278 363.865 215.136 363.865H208.225C193.631 363.865 181.8 352.034 181.8 337.44V265.925C181.8 251.331 193.631 239.5 208.225 239.5H346.776C361.37 239.5 373.201 251.331 373.201 265.925V337.44C373.201 352.034 361.37 363.865 346.776 363.865H316.416C312.274 363.865 308.916 367.223 308.916 371.365C308.916 375.507 312.274 378.865 316.416 378.865H346.776C369.654 378.865 388.201 360.318 388.201 337.44V265.925C388.2 243.047 369.654 224.5 346.775 224.5Z" fill="black"/>
<path d="M314.775 475.5H176.225C153.383 475.5 134.8 494.083 134.8 516.925V588.44C134.8 611.282 153.383 629.865 176.225 629.865H277.813L302.041 659.726C303.493 661.516 305.649 662.5 307.866 662.5C308.704 662.5 309.552 662.359 310.372 662.068C313.365 661.006 315.365 658.175 315.365 655V629.86C337.936 629.544 356.201 611.085 356.201 588.439V516.924C356.2 494.083 337.617 475.5 314.775 475.5ZM341.2 588.439C341.2 603.009 329.346 614.864 314.775 614.864H307.864C303.721 614.864 300.364 618.221 300.364 622.364V633.852L287.21 617.638C285.786 615.883 283.647 614.864 281.386 614.864H176.225C161.655 614.864 149.8 603.01 149.8 588.439V516.924C149.8 502.354 161.654 490.499 176.225 490.499H314.776C329.346 490.499 341.201 502.353 341.201 516.924L341.2 588.439Z" fill="black"/>
<path d="M143 417.113V400.478C143 377.601 126.018 358.624 104 355.469V337.359C126.739 328.988 143 307.108 143 281.5V249.336C164.194 242.309 179 222.258 179 199.458C179 188.178 169.822 179 158.542 179H78.87C48.614 179 24 203.614 24 233.87V281.5C24 306.349 39.317 327.677 61 336.569V355.469C38.982 358.624 22 377.601 22 400.478V417.113C22 426.976 30.024 435 39.887 435H125.114C134.976 435 143 426.976 143 417.113ZM39 281.5V251H64.5C68.643 251 72 247.643 72 243.5C72 239.357 68.643 236 64.5 236H39V233.87C39 211.886 56.886 194 78.87 194H158.542C161.552 194 164 196.448 164 199.458C164 216.886 151.897 232.058 135.055 236H93.5C89.357 236 86 239.357 86 243.5C86 247.643 89.357 251 93.5 251H128V281.5C128 306.037 108.037 326 83.5 326C58.963 326 39 306.037 39 281.5ZM83.5 341C85.355 341 87.188 340.903 89 340.736V355H76V340.511C78.459 340.822 80.958 341 83.5 341ZM128 417.113C128 418.705 126.705 420 125.113 420H39.887C38.295 420 37 418.705 37 417.113V400.478C37 383.673 50.673 370 67.479 370H68.5H96.5H97.521C114.327 370 128 383.673 128 400.479V417.113Z" fill="black"/>
<path d="M511.452 463.728C496.916 449.412 477.689 441.713 457.329 442.009C416.344 442.634 383 476.962 383 518.532V608.895C383 622.059 389.095 634.389 399.228 642.439C397.788 646.864 397 651.579 397 656.478V673.113C397 682.975 405.024 691 414.887 691H500.114C509.976 691 518.001 682.976 518.001 673.113V656.478C518.001 652.819 517.555 649.264 516.735 645.853C527.549 637.799 534 625 534 611.498V517.5C534 497.145 525.992 478.048 511.452 463.728ZM503 673.113C503 674.705 501.705 676 500.113 676H414.886C413.294 676 411.999 674.705 411.999 673.113V656.478C412 639.673 425.673 626 442.479 626H443.5H471.5H472.521C489.327 626 503 639.673 503 656.479V673.113ZM458.5 582C438.374 582 422 565.626 422 545.5V531.891C448.406 530.241 469.864 510.039 473.468 484.201C486.329 489.964 495 502.855 495 517.5V545.5C495 565.626 478.626 582 458.5 582ZM458.5 597C460.358 597 462.192 596.896 464 596.703V611H451V596.448C453.449 596.807 455.952 597 458.5 597ZM519 611.498C519 619.07 515.874 626.299 510.502 631.504C503.49 620.876 492.146 613.352 479 611.469V592.732C497.224 584.792 510 566.614 510 545.5V517.5C510 492.614 492.247 471.312 467.788 466.851C465.543 466.44 463.226 467.079 461.506 468.582C459.785 470.087 458.844 472.294 458.95 474.578C458.98 475.216 459 475.855 459 476.5C459 498.832 440.832 517 418.5 517C417.479 517 416.372 516.95 415.113 516.847C413.021 516.666 410.96 517.385 409.418 518.806C407.877 520.226 407 522.226 407 524.322V545.5C407 565.834 418.848 583.449 436 591.815V611.469C423.99 613.19 413.485 619.618 406.411 628.822C401.114 623.648 398 616.483 398 608.895V518.532C398 485.108 424.718 457.508 457.558 457.007C473.904 456.757 489.277 462.942 500.927 474.414C512.581 485.893 519 501.194 519 517.5V611.498Z" fill="black"/>
<defs>
<clipPath id="clip0">
<rect width="512" height="512" fill="white" transform="translate(278 20)"/>
</clipPath>
</defs>
</svg>
