<?xml version="1.0" encoding="UTF-8"?>
<svg xmlns="http://www.w3.org/2000/svg" id="filled_outline" data-name="filled outline" viewBox="0 0 512 512" width="512" height="512"><path d="M336,144V80a55.99994,55.99994,0,0,1,55.99994-55.99994h.00012A55.99994,55.99994,0,0,1,448,80v64Z" style="fill:#b36f42"/><path d="M469.40991,218.59A110.67113,110.67113,0,0,0,472,312H360V240a35.10519,35.10519,0,0,1-24-33.3V192l-56,56H198.77L318.79,136.55005a31.9915,31.9915,0,0,1,21.78-8.55h96.52a50.91169,50.91169,0,0,1,36,86.90991Z" style="fill:#f5a431"/><rect x="208" y="248" width="128" height="32" style="fill:#2c3e91"/><path d="M184,488V384l72,72h40V424L193.20835,328.5506A32,32,0,0,0,171.43392,320l-85.20858,0A62.22533,62.22533,0,0,0,24,382.22532V496H168a8,8,0,0,0,8-8v0Z" style="fill:#ed6445"/><polygon points="144 360 160 432 128 432 114.909 418.909 128 360 144 360" style="fill:#f7c04a"/><polygon points="128 360 120 344 136 328 152 344 144 360 128 360" style="fill:#f5a431"/><rect x="176" y="455.99999" width="112" height="31.99999" style="fill:#2c3e91"/><path d="M336,280l-40-32H264V232l15.56726-10.37817A33.47322,33.47322,0,0,1,298.13489,216h0a33.47327,33.47327,0,0,1,23.66917,9.80409L336,240Z" style="fill:#ffceb6"/><polygon points="416 104 416 128 409.14 144 392 184 368 128 368 104 416 104" style="fill:#ffceb6"/><polygon points="88 280 40 152 184 152 232 280 88 280" style="fill:#56679c"/><rect x="24" y="280" width="392" height="32" style="fill:#a6bce3"/><path d="M168,240v56a32,32,0,0,1-32,32H136a32,32,0,0,1-32-32V240Z" style="fill:#ffceb6"/><path d="M153.6451,269.05914l0,0A36.327,36.327,0,0,0,184,233.22643V224l-60.46787,0A27.53211,27.53211,0,0,0,96,251.53212v0a27.5322,27.5322,0,0,0,1.41285,8.70641L104,280l24-24,0,0A24.2203,24.2203,0,0,0,153.6451,269.05914Z" style="fill:#b36f42"/><path d="M176,432l16.05511-5.3517A51.60685,51.60685,0,0,1,208.37465,424h0a51.60692,51.60692,0,0,1,28.62637,8.66737L248,440v16H216l-40,32Z" style="fill:#ffceb6"/><polygon points="464 360 320 360 272 488 416 488 464 360" style="fill:#56679c"/><circle cx="368" cy="424" r="16" style="fill:#8796c4"/><path d="M469.40534,218.59466l-52.03276,52.03276A32,32,0,0,1,394.74517,280H336V240h48l56-56Z" style="fill:#f5a431"/><path d="M392,136H392a32,32,0,0,0,32-32V88L400,64l0,0A35.09935,35.09935,0,0,1,366.70183,88H360V104A32,32,0,0,0,392,136Z" style="fill:#ffceb6"/><path d="M32,426.853q2.1515,2.6045,4.56836,5.02929L88.9707,484.28467A39.74137,39.74137,0,0,0,117.25488,496H416a7.999,7.999,0,0,0,7.49023-5.19092l48-128A7.99991,7.99991,0,0,0,464,352H320a7.999,7.999,0,0,0-7.49023,5.19092l-19.81031,52.82739-94.04809-87.32983a39.86382,39.86382,0,0,0-26.01416-10.66028A39.75941,39.75941,0,0,0,176,296V267.36987a44.19394,44.19394,0,0,0,16-34.14331V224a8.00008,8.00008,0,0,0-8-8H123.53223a35.53267,35.53267,0,0,0-33.709,46.76855L96,281.29932V296a39.756,39.756,0,0,0,3.3501,16H86.22559A70.305,70.305,0,0,0,16,382.22559V496H32ZM198.80615,480l20.00049-16H272.4563l-6,16ZM240,448H216a7.998,7.998,0,0,0-4.99707,1.75293L184,471.35486V437.76611l10.585-3.52832a43.60695,43.60695,0,0,1,37.97852,5.08594L240,444.28174Zm-48-29.70361V403.314l12.80444,12.80469A59.43825,59.43825,0,0,0,192,418.29639ZM325.544,368h126.9121l-42,112H283.544Zm-38.91749,58.21289L278.4563,448H256v-8a7.99943,7.99943,0,0,0-3.5625-6.65625l-10.999-7.33252a59.79279,59.79279,0,0,0-9.08789-4.97412l-42.69336-42.69385A8.0001,8.0001,0,0,0,176,384v39.56738L174.70215,424h-8.28467l-13.9917-62.96289,1.76563-3.53162,8.15136,8.15125,11.31446-11.31348-21.68213-21.682A40.031,40.031,0,0,0,160,327.978V328h11.43359a23.92877,23.92877,0,0,1,16.33106,6.41309ZM136,339.314l6.26587,6.26587L139.05591,352h-6.11182l-3.21-6.42017ZM134.41748,368h3.165l12.44458,56H131.31348l-7.64209-7.64221ZM160,296a24,24,0,0,1-48,0V283.314l15.10449-15.10449a32.04275,32.04275,0,0,0,27.85645,8.74073A45.0691,45.0691,0,0,0,160,275.80005Zm-36.46777-64H176v1.22656A28.23779,28.23779,0,0,1,152.33008,261.168a16.135,16.135,0,0,1-17.17481-8.74561,8.00038,8.00038,0,0,0-12.8125-2.0791l-14.84668,14.84668-2.49316-7.48A19.53162,19.53162,0,0,1,123.53223,232ZM86.22559,328H112v-.022a40.031,40.031,0,0,0,8.0249,4.68322l-21.68213,21.682,11.31446,11.31348,8.15136-8.15125,1.76563,3.53162L110.261,402.94727l-40.60376-40.604L58.34277,373.65674l64,64A8.00076,8.00076,0,0,0,128,440h40v40H117.25488a23.84541,23.84541,0,0,1-16.9707-7.0293L47.88281,420.56885A54.22522,54.22522,0,0,1,86.22559,328Z"/><path d="M456,123.13208V80a64,64,0,0,0-128,0V122.023a39.92448,39.92448,0,0,0-14.65137,8.66553l-95.53149,88.70739-26.32691-70.20495A7.999,7.999,0,0,0,184,144H40a7.99991,7.99991,0,0,0-7.49023,10.80908L64.67188,240.5752,79.65234,234.957,51.544,160h126.9121l42,112H192v16H408v16H208v16H416a8.00008,8.00008,0,0,0,8-8V280a7.9574,7.9574,0,0,0-.9353-3.75024l30.418-30.41846a118.39955,118.39955,0,0,0,11.36206,69.74634l14.31054-7.15528a102.41364,102.41364,0,0,1-2.97485-85.2893l2.5647-2.5647A58.899,58.899,0,0,0,456,123.13208ZM392,32a48.054,48.054,0,0,1,48,48v40.07385c-.96509-.04724-1.93555-.07385-2.91211-.07385h-8.438A39.756,39.756,0,0,0,432,104V88a8.00035,8.00035,0,0,0-2.34277-5.65674l-24-24a8.00044,8.00044,0,0,0-13.24707,3.127A27.06364,27.06364,0,0,1,366.70215,80H360a8.00008,8.00008,0,0,0-8,8v16a39.756,39.756,0,0,0,3.3501,16H344V80A48.054,48.054,0,0,1,392,32Zm0,131.69141-8.8689-20.69471a39.701,39.701,0,0,0,17.7378,0ZM416,104a24,24,0,0,1-48,0V95.98047a43.03876,43.03876,0,0,0,34.13672-18.52979L416,91.31348Zm-51.05151,37.18945,6.62475,15.45764-9.87207-2.46789Zm17.15283,40.02307L384,185.64282v23.551l-13.28027-16.6001ZM400,209.19385v-23.551l1.89868-4.4303,11.38159,11.38123Zm19.05151-68.0044,3.24732,12.98975-9.87207,2.46789Zm-94.81616,1.22364A23.92877,23.92877,0,0,1,340.56641,136h9.18774l-5.51489,22.05957a7.99952,7.99952,0,0,0,5.82031,9.70166l18.29224,4.573-14.009,14.009a8.00116,8.00116,0,0,0-.58984,10.6543L381.28,231.40649,380.68652,232h-19.2434A27.04771,27.04771,0,0,1,344,206.70166V192a8.0001,8.0001,0,0,0-13.65723-5.65674l-22.74609,22.7461A41.77671,41.77671,0,0,0,298.13477,208a41.33419,41.33419,0,0,0-23.00489,6.96582L259.5625,225.34375A7.99943,7.99943,0,0,0,256,232v8H225.5437l-1.65356-4.40967ZM237.5437,272l-6-16h61.64966l20.00049,16Zm78.60278-40.53906L328,243.314v20.0409l-27.00293-21.60193A7.998,7.998,0,0,0,296,240H272v-3.71826l12.00586-8.00342a25.47068,25.47068,0,0,1,32.14062,3.18262ZM323.02,216.29358l5.20166-5.20178a42.96734,42.96734,0,0,0,3.68359,13.50012l-4.44433-4.44446A42.05288,42.05288,0,0,0,323.02,216.29358Zm144.41064-7.0387L411.7168,264.97021A23.84779,23.84779,0,0,1,394.74512,272H344V248h40a8.00076,8.00076,0,0,0,5.65723-2.34326l56-56-11.31446-11.31348L428,184.686l-12.35181-12.35181,18.29224-4.573a7.99952,7.99952,0,0,0,5.82031-9.70166L434.24585,136h2.842a42.91116,42.91116,0,0,1,30.34277,73.25488Z"/><path d="M368,448a24,24,0,1,0-24-24A24.02718,24.02718,0,0,0,368,448Zm0-32a8,8,0,1,1-8,8A8.00917,8.00917,0,0,1,368,416Z"/><path d="M24,320H48V304H32V288H80V272H24a8.00008,8.00008,0,0,0-8,8v32A8.00008,8.00008,0,0,0,24,320Z"/></svg>
