<svg width="13" height="14" viewBox="0 0 13 14" fill="none" xmlns="http://www.w3.org/2000/svg">
<path d="M12.2176 2.60145C12.1604 2.52961 12.0992 2.46064 12.0344 2.39481C12.0996 2.23046 12.1491 2.06092 12.1824 1.88821C12.2805 1.25642 12.1953 0.611274 11.9358 0.0217831C11.9358 0.0217831 11.1467 -0.21152 9.33615 0.941666C8.56747 0.740851 7.77349 0.639937 6.97605 0.641704C6.17632 0.640377 5.38007 0.741277 4.6089 0.941666C2.79831 -0.224852 2.00926 0.0217831 2.00926 0.0217831C1.75288 0.605032 1.66769 1.24296 1.76269 1.86821C1.79611 2.0481 1.84802 2.22447 1.91768 2.39481C1.85427 2.46147 1.79087 2.5348 1.73451 2.60145C1.20879 3.22539 0.929725 4.00337 0.945456 4.80117C0.943784 4.99039 0.953192 5.17954 0.973636 5.36777C1.19908 8.32072 3.27738 9.0073 5.25705 9.22061C4.97685 9.46714 4.78686 9.79165 4.71458 10.1472C4.64909 10.3843 4.61828 10.6287 4.62299 10.8737V11.747C3.83464 11.8136 3.02587 11.705 2.77506 11.0397C2.50584 10.403 2.05933 9.84713 1.483 9.43125C1.44087 9.40968 1.4008 9.3847 1.36323 9.35659C1.31262 9.23075 1.22296 9.12233 1.10602 9.0456C0.989081 8.96886 0.850343 8.9274 0.708037 8.92665H0.704514C0.518276 8.92665 0.339613 8.99642 0.207593 9.1207C0.0755726 9.24499 0.000937026 9.41369 5.83342e-06 9.5899C-0.00210769 10.1312 0.570658 10.4811 0.805259 10.5998C1.07935 10.8611 1.29983 11.1682 1.45552 11.5057C1.71196 12.1876 2.46226 13.2241 4.60185 13.0895L4.60326 13.1548L4.60608 13.3334C4.60608 13.5102 4.68031 13.6798 4.81243 13.8048C4.94455 13.9298 5.12374 14 5.31059 14H8.63164C8.81849 14 8.99768 13.9298 9.1298 13.8048C9.26193 13.6798 9.33615 13.5102 9.33615 13.3334C9.33615 13.3334 9.34179 11.227 9.34179 10.8737C9.34648 10.6287 9.31566 10.3843 9.2502 10.1472L9.24879 10.1432L9.25161 10.1472C9.24527 10.1238 9.23611 10.1052 9.22906 10.0825C9.15057 9.75224 8.96893 9.45194 8.70773 9.22061L8.71618 9.23461L8.70209 9.22128C10.6818 9.00797 12.746 8.30806 12.9714 5.36843C12.9919 5.18021 13.0013 4.99105 12.9996 4.80184C13.0121 4.00562 12.7361 3.22934 12.2176 2.60212V2.60145Z" fill="#102B3E"/>
</svg>
